<svg width="175" height="38" fill="none" xmlns="http://www.w3.org/2000/svg"><path d="M.85.76v17.6h17.641v-8.8l.001-8.8H.85zM91.14 17.206c1.565-.197 3.125.398 4.356 1.335.005-.529.004-1.058.002-1.587-.001-.684-.003-1.369.009-2.052a4.578 4.578 0 00-1.088-.453c-1.84-.519-3.827-.54-5.668-.017-1.69.486-3.241 1.521-4.233 2.983-1.184 1.713-1.602 3.854-1.51 5.906.093 1.974.873 3.944 2.31 5.325 1.322 1.282 3.144 1.972 4.97 2.068 1.786.088 3.656-.15 5.216-1.077-.007-.609-.006-1.218-.005-1.826v-.003c0-.54.002-1.079-.003-1.618-1.006.733-2.18 1.258-3.424 1.402-1.259.094-2.608-.208-3.57-1.061-.926-.787-1.418-1.974-1.541-3.163-.165-1.518.056-3.166 1.01-4.407.744-1 1.928-1.643 3.17-1.755zM78.25 7.688c-1.06.12-1.963 1.081-1.934 2.16-.045 1.024.78 1.942 1.772 2.12.954.208 2.05-.195 2.54-1.062.442-.768.332-1.815-.266-2.472-.51-.6-1.342-.862-2.111-.746zM67.753 8.172c-1.333 3.31-2.684 6.612-4.035 9.914-.883 2.16-1.767 4.319-2.646 6.48-.293-.687-.567-1.384-.84-2.08-.158-.402-.316-.805-.478-1.206-.796-2.016-1.596-4.031-2.395-6.046l-.003-.007-.001-.004-.002-.005c-.933-2.352-1.866-4.705-2.795-7.059H49.01c-.002 7.4-.001 14.799 0 22.198h3.633c-.002-2.04-.002-4.078-.002-6.117v-3.822c.006-.904.003-1.81 0-2.714-.004-1.488-.008-2.977.02-4.464.07.108.133.221.193.338.86 2.128 1.72 4.257 2.578 6.386l.001.003c1.398 3.466 2.796 6.932 4.205 10.393.381-.006.762-.004 1.143-.002.533.002 1.066.005 1.6-.015 1.241-3.169 2.501-6.33 3.76-9.493.964-2.42 1.928-4.84 2.884-7.262.059-.122.126-.24.2-.355.018.245.026.49.024.736-.003 2.382-.002 4.763 0 7.144 0 3.079.002 6.158-.006 9.236.832.012 1.665.01 2.497.008h.004c.45 0 .9-.002 1.35 0v-2.47c-.002-6.575-.003-13.15 0-19.725-.593 0-1.187 0-1.78-.002-1.187-.004-2.374-.007-3.56.012zM104.039 14.691c-.957.54-1.564 1.502-1.972 2.493.002-.403.001-.806.001-1.21v-.004c0-.506-.001-1.012.003-1.517h-.063c-1.235-.007-2.47-.012-3.705.003.005 3.068.004 6.136.003 9.203v6.698h3.762l.001-5.072-.001-2.535c-.031-1.102.06-2.241.544-3.248.444-.952 1.303-1.782 2.386-1.904a4.061 4.061 0 012.579.604v-1.676c0-.71 0-1.421.003-2.132-1.149-.386-2.488-.334-3.541.297zM76.662 14.452c.002 2.719.002 5.437.002 8.155v7.75h3.788c.003-2.12.002-4.24 0-6.36 0-3.18-.002-6.359.007-9.538-1.05-.02-2.099-.015-3.148-.01l-.649.003zM133.929 21.685c-.504-.29-1.043-.513-1.581-.735-.659-.272-1.317-.543-1.912-.94-.633-.401-.811-1.279-.553-1.948.325-.676 1.109-.978 1.822-1.005a6.73 6.73 0 014.007 1.181v-1.504c0-.665.001-1.33-.001-1.995-1.67-.631-3.516-.858-5.281-.548-1.49.265-2.954 1.037-3.796 2.326-.738 1.106-.833 2.532-.528 3.797.206.858.732 1.62 1.425 2.16.786.6 1.694.99 2.599 1.379.233.1.465.2.695.302l.061.03c.58.271 1.187.556 1.604 1.058.463.675.323 1.777-.456 2.163-.812.389-1.76.382-2.633.241-1.252-.215-2.436-.747-3.462-1.49-.008.727-.006 1.454-.005 2.182.001.499.001.998-.001 1.497 1.219.542 2.553.802 3.879.888 1.868.07 3.899-.294 5.31-1.609 1.477-1.302 1.833-3.61.993-5.356-.447-.932-1.303-1.58-2.186-2.074z" fill="#2B2A35"/><path fill-rule="evenodd" clip-rule="evenodd" d="M150.678 14.921c-1.738-.875-3.76-1.003-5.664-.767-1.535.196-3.044.778-4.216 1.804-1.431 1.23-2.27 3.037-2.517 4.886-.235 1.848-.155 3.796.6 5.526a7.063 7.063 0 003.876 3.752c1.699.667 3.587.741 5.374.453 1.828-.301 3.56-1.26 4.691-2.736 1.21-1.524 1.729-3.497 1.726-5.418.027-1.287-.134-2.591-.593-3.8-.587-1.578-1.762-2.944-3.277-3.7zm-.165 9.094c-.146.837-.436 1.672-.986 2.335-.554.666-1.379 1.072-2.23 1.197-.913.136-1.875.07-2.729-.296-.922-.39-1.636-1.185-2.012-2.1-.453-1.091-.543-2.3-.453-3.466.087-1.13.409-2.29 1.157-3.169.683-.82 1.729-1.273 2.785-1.333 1.077-.074 2.228.174 3.057.9.763.633 1.187 1.58 1.38 2.533a9.634 9.634 0 01.031 3.4zM120.065 14.802c-1.7-.772-3.631-.876-5.463-.643-1.923.242-3.795 1.144-5.016 2.674-1.114 1.366-1.657 3.12-1.76 4.861-.155 2.053.189 4.23 1.397 5.942 1.029 1.478 2.653 2.493 4.408 2.868 1.466.307 3 .308 4.467.004 1.716-.352 3.318-1.299 4.381-2.696 1.038-1.316 1.559-2.976 1.677-4.632.119-1.697-.052-3.454-.759-5.018-.662-1.47-1.857-2.697-3.332-3.36zm-.353 10.662c-.365.818-1.032 1.51-1.875 1.837-.985.378-2.092.4-3.11.137-1.035-.272-1.913-1.018-2.391-1.969-.615-1.224-.707-2.639-.58-3.982.116-1.22.542-2.476 1.474-3.319.677-.63 1.598-.937 2.51-.988 1.147-.075 2.368.248 3.191 1.08.882.865 1.223 2.119 1.318 3.316.068 1.31.014 2.675-.537 3.888z" fill="#2B2A35"/><path d="M174.519 17.538v-3.091c-.464.002-.928 0-1.391 0-.795-.002-1.591-.003-2.385.008-.017-.954-.015-1.909-.013-2.863.002-.634.003-1.268-.001-1.902-.452.136-.904.276-1.356.415-.804.248-1.609.496-2.419.726-.018.7-.016 1.4-.013 2.1.001.505.003 1.01-.003 1.516h-1.924c-1.22 0-2.439 0-3.658-.002.008-.317.003-.634-.001-.952-.01-.634-.019-1.269.072-1.898.113-.744.545-1.488 1.273-1.776.916-.375 1.941-.126 2.812.257-.002-.425-.002-.85-.001-1.275.001-.663.003-1.325-.007-1.987-1.833-.503-3.934-.405-5.561.651-1.049.67-1.81 1.742-2.152 2.93-.28.912-.267 1.86-.254 2.805v.001c.006.419.011.837-.009 1.251l-.221-.001c-.809-.006-1.617-.012-2.423.007.009 1.017.005 2.034.002 3.05.447.009.893.008 1.34.007.438-.001.877-.002 1.315.006-.005 2.996-.004 5.99-.003 8.986l.001 3.85h3.815v-3.515l.001-9.325c1.861-.003 3.723-.002 5.585-.001.002 1.196.001 2.393.001 3.59-.002 1.53-.003 3.061.003 4.592.017 1.27.234 2.63 1.077 3.632.731.889 1.89 1.294 3.009 1.377 1.179.083 2.398-.06 3.488-.533v-3.122c-.836.558-1.991.78-2.902.272-.542-.3-.754-.94-.824-1.518-.077-.656-.07-1.316-.063-1.975.004-.327.007-.654.001-.98V20.902c0-1.128.001-2.255-.002-3.383.408.002.816 0 1.224-.004a53.599 53.599 0 012.567.023zM.85 37.757V20.156h8.244c3.133 0 6.266 0 9.398.002v17.599H.85zM20.294 30.212v7.545h17.642v-17.6H20.295v10.055zM20.294 5.163V.76h17.642v4.392l-.001 13.207h-17.64c-.002-4.398-.001-8.797-.001-13.196z" fill="#2B2A35"/></svg>