<svg xmlns="http://www.w3.org/2000/svg" xmlns:xlink="http://www.w3.org/1999/xlink" width="360" zoomAndPan="magnify" viewBox="0 0 270 119.999999" height="160" preserveAspectRatio="xMidYMid meet" version="1.0"><defs><g/><clipPath id="487e458505"><path d="M 133.433594 106.125 L 135.03125 106.125 L 135.03125 119.480469 L 133.433594 119.480469 Z M 133.433594 106.125 " clip-rule="nonzero"/></clipPath><clipPath id="1335e27e6d"><path d="M 133.433594 0 L 135.03125 0 L 135.03125 12.832031 L 133.433594 12.832031 Z M 133.433594 0 " clip-rule="nonzero"/></clipPath><clipPath id="086b8368d3"><path d="M 0 58.566406 L 30.035156 58.566406 L 30.035156 60.007812 L 0 60.007812 Z M 0 58.566406 " clip-rule="nonzero"/></clipPath><clipPath id="39140abfde"><path d="M 239.941406 58.566406 L 269.988281 58.566406 L 269.988281 60.007812 L 239.941406 60.007812 Z M 239.941406 58.566406 " clip-rule="nonzero"/></clipPath><clipPath id="98487ee4e5"><path d="M 66 98 L 75 98 L 75 111 L 66 111 Z M 66 98 " clip-rule="nonzero"/></clipPath><clipPath id="d4506c2021"><path d="M 74.976562 98.996094 L 67.917969 110.332031 L 66.523438 109.464844 L 73.582031 98.128906 Z M 74.976562 98.996094 " clip-rule="nonzero"/></clipPath><clipPath id="525638457e"><path d="M 193 7 L 202 7 L 202 20 L 193 20 Z M 193 7 " clip-rule="nonzero"/></clipPath><clipPath id="9cb9b3db09"><path d="M 201.832031 8.472656 L 194.773438 19.808594 L 193.378906 18.941406 L 200.4375 7.605469 Z M 201.832031 8.472656 " clip-rule="nonzero"/></clipPath><clipPath id="af152aee5d"><path d="M 16 20 L 50 20 L 50 42 L 16 42 Z M 16 20 " clip-rule="nonzero"/></clipPath><clipPath id="55466a426a"><path d="M 49.171875 41.882812 L 16.578125 21.585938 L 17.339844 20.363281 L 49.929688 40.664062 Z M 49.171875 41.882812 " clip-rule="nonzero"/></clipPath><clipPath id="0db87c993a"><path d="M 220 76 L 254 76 L 254 99 L 220 99 Z M 220 76 " clip-rule="nonzero"/></clipPath><clipPath id="5b82d4d374"><path d="M 252.847656 98.265625 L 220.257812 77.964844 L 221.019531 76.746094 L 253.609375 97.042969 Z M 252.847656 98.265625 " clip-rule="nonzero"/></clipPath><clipPath id="500e79c150"><path d="M 13 75 L 47 75 L 47 96 L 13 96 Z M 13 75 " clip-rule="nonzero"/></clipPath><clipPath id="f9698a1d6a"><path d="M 46.992188 76.835938 L 14.226562 95.207031 L 13.523438 93.953125 L 46.285156 75.578125 Z M 46.992188 76.835938 " clip-rule="nonzero"/></clipPath><clipPath id="2ba7f21e7a"><path d="M 222 23 L 257 23 L 257 44 L 222 44 Z M 222 23 " clip-rule="nonzero"/></clipPath><clipPath id="38d99acfaf"><path d="M 256.285156 24.671875 L 223.519531 43.046875 L 222.816406 41.789062 L 255.578125 23.417969 Z M 256.285156 24.671875 " clip-rule="nonzero"/></clipPath><clipPath id="d915478d9f"><path d="M 72 6 L 81 6 L 81 19 L 72 19 Z M 72 6 " clip-rule="nonzero"/></clipPath><clipPath id="5b023e5bf5"><path d="M 79.496094 18.828125 L 72.964844 7.183594 L 74.394531 6.378906 L 80.925781 18.027344 Z M 79.496094 18.828125 " clip-rule="nonzero"/></clipPath><clipPath id="ae61e06bd2"><path d="M 190 99 L 199 99 L 199 112 L 190 112 Z M 190 99 " clip-rule="nonzero"/></clipPath><clipPath id="40a8eff338"><path d="M 196.859375 111.847656 L 190.328125 100.203125 L 191.757812 99.398438 L 198.289062 111.046875 Z M 196.859375 111.847656 " clip-rule="nonzero"/></clipPath></defs><rect x="-27" width="324" fill="#ffffff" y="-12" height="143.999998" fill-opacity="1"/><rect x="-27" width="324" fill="#ffffff" y="-12" height="143.999998" fill-opacity="1"/><g clip-path="url(#487e458505)"><path fill="#008000" d="M 139.5625 106.125 L 139.5625 119.472656 L 129.960938 119.472656 L 129.960938 106.125 Z M 139.5625 106.125 " fill-opacity="1" fill-rule="nonzero"/></g><g clip-path="url(#1335e27e6d)"><path fill="#008000" d="M 139.5625 -0.519531 L 139.5625 12.828125 L 129.960938 12.828125 L 129.960938 -0.519531 Z M 139.5625 -0.519531 " fill-opacity="1" fill-rule="nonzero"/></g><g clip-path="url(#086b8368d3)"><path fill="#008000" d="M 30.035156 64.085938 L 0 64.085938 L 0 54.488281 L 30.035156 54.488281 Z M 30.035156 64.085938 " fill-opacity="1" fill-rule="nonzero"/></g><g clip-path="url(#39140abfde)"><path fill="#008000" d="M 269.988281 64.085938 L 239.957031 64.085938 L 239.957031 54.488281 L 269.988281 54.488281 Z M 269.988281 64.085938 " fill-opacity="1" fill-rule="nonzero"/></g><g clip-path="url(#98487ee4e5)"><g clip-path="url(#d4506c2021)"><path fill="#008000" d="M 78.925781 101.457031 L 71.871094 112.789062 L 63.722656 107.710938 L 70.777344 96.382812 Z M 78.925781 101.457031 " fill-opacity="1" fill-rule="nonzero"/></g></g><g clip-path="url(#525638457e)"><g clip-path="url(#9cb9b3db09)"><path fill="#008000" d="M 205.78125 10.933594 L 198.726562 22.261719 L 190.578125 17.1875 L 197.636719 5.859375 Z M 205.78125 10.933594 " fill-opacity="1" fill-rule="nonzero"/></g></g><g clip-path="url(#af152aee5d)"><g clip-path="url(#55466a426a)"><path fill="#008000" d="M 47.011719 45.347656 L 14.421875 25.050781 L 19.496094 16.902344 L 52.085938 37.199219 Z M 47.011719 45.347656 " fill-opacity="1" fill-rule="nonzero"/></g></g><g clip-path="url(#0db87c993a)"><g clip-path="url(#5b82d4d374)"><path fill="#008000" d="M 250.691406 101.726562 L 218.101562 81.429688 L 223.175781 73.28125 L 255.765625 93.582031 Z M 250.691406 101.726562 " fill-opacity="1" fill-rule="nonzero"/></g></g><g clip-path="url(#500e79c150)"><g clip-path="url(#f9698a1d6a)"><path fill="#008000" d="M 48.984375 80.394531 L 16.214844 98.769531 L 11.523438 90.394531 L 44.292969 72.019531 Z M 48.984375 80.394531 " fill-opacity="1" fill-rule="nonzero"/></g></g><g clip-path="url(#2ba7f21e7a)"><g clip-path="url(#38d99acfaf)"><path fill="#008000" d="M 258.277344 28.230469 L 225.511719 46.605469 L 220.816406 38.234375 L 253.585938 19.859375 Z M 258.277344 28.230469 " fill-opacity="1" fill-rule="nonzero"/></g></g><g clip-path="url(#d915478d9f)"><g clip-path="url(#5b023e5bf5)"><path fill="#008000" d="M 75.445312 21.101562 L 68.917969 9.457031 L 77.289062 4.765625 L 83.816406 16.40625 Z M 75.445312 21.101562 " fill-opacity="1" fill-rule="nonzero"/></g></g><g clip-path="url(#ae61e06bd2)"><g clip-path="url(#40a8eff338)"><path fill="#008000" d="M 192.808594 114.121094 L 186.277344 102.476562 L 194.652344 97.78125 L 201.179688 109.425781 Z M 192.808594 114.121094 " fill-opacity="1" fill-rule="nonzero"/></g></g><g fill="#1025a1" fill-opacity="1"><g transform="translate(78.352432, 67.124998)"><g><path d="M 6.484375 -5.84375 C 6.484375 -6.03125 6.421875 -6.171875 6.296875 -6.265625 C 6.179688 -6.367188 6.03125 -6.421875 5.84375 -6.421875 C 5.582031 -6.421875 5.332031 -6.359375 5.09375 -6.234375 C 4.851562 -6.117188 4.640625 -5.941406 4.453125 -5.703125 C 4.273438 -5.472656 4.132812 -5.1875 4.03125 -4.84375 C 3.925781 -4.5 3.875 -4.101562 3.875 -3.65625 C 3.875 -3.21875 3.90625 -2.851562 3.96875 -2.5625 C 4.039062 -2.28125 4.128906 -2.054688 4.234375 -1.890625 C 4.335938 -1.722656 4.460938 -1.601562 4.609375 -1.53125 C 4.753906 -1.46875 4.90625 -1.4375 5.0625 -1.4375 C 5.257812 -1.4375 5.441406 -1.484375 5.609375 -1.578125 C 5.785156 -1.679688 5.9375 -1.8125 6.0625 -1.96875 C 6.195312 -2.125 6.300781 -2.300781 6.375 -2.5 C 6.445312 -2.695312 6.484375 -2.894531 6.484375 -3.09375 Z M 4.6875 -10.78125 C 4.4375 -10.78125 4.203125 -10.75 3.984375 -10.6875 C 3.765625 -10.625 3.578125 -10.546875 3.421875 -10.453125 C 3.265625 -10.367188 3.140625 -10.269531 3.046875 -10.15625 C 2.953125 -10.050781 2.90625 -9.953125 2.90625 -9.859375 C 2.90625 -9.742188 2.960938 -9.660156 3.078125 -9.609375 C 3.203125 -9.566406 3.332031 -9.507812 3.46875 -9.4375 C 3.613281 -9.375 3.742188 -9.285156 3.859375 -9.171875 C 3.972656 -9.054688 4.03125 -8.878906 4.03125 -8.640625 C 4.03125 -8.484375 4 -8.335938 3.9375 -8.203125 C 3.875 -8.066406 3.785156 -7.945312 3.671875 -7.84375 C 3.566406 -7.75 3.441406 -7.671875 3.296875 -7.609375 C 3.148438 -7.554688 3 -7.53125 2.84375 -7.53125 C 2.414062 -7.53125 2.070312 -7.671875 1.8125 -7.953125 C 1.5625 -8.242188 1.4375 -8.625 1.4375 -9.09375 C 1.4375 -9.550781 1.554688 -9.941406 1.796875 -10.265625 C 2.035156 -10.597656 2.347656 -10.867188 2.734375 -11.078125 C 3.117188 -11.296875 3.554688 -11.453125 4.046875 -11.546875 C 4.535156 -11.648438 5.023438 -11.703125 5.515625 -11.703125 C 6.097656 -11.703125 6.65625 -11.640625 7.1875 -11.515625 C 7.726562 -11.390625 8.203125 -11.1875 8.609375 -10.90625 C 9.015625 -10.625 9.335938 -10.269531 9.578125 -9.84375 C 9.828125 -9.414062 9.953125 -8.894531 9.953125 -8.28125 L 9.953125 -1.921875 C 9.953125 -1.847656 9.957031 -1.769531 9.96875 -1.6875 C 9.976562 -1.601562 9.992188 -1.523438 10.015625 -1.453125 C 10.046875 -1.390625 10.09375 -1.335938 10.15625 -1.296875 C 10.21875 -1.253906 10.304688 -1.234375 10.421875 -1.234375 C 10.554688 -1.234375 10.679688 -1.28125 10.796875 -1.375 C 10.910156 -1.476562 11.015625 -1.582031 11.109375 -1.6875 L 11.390625 -1.453125 C 11.273438 -1.296875 11.140625 -1.125 10.984375 -0.9375 C 10.828125 -0.75 10.632812 -0.570312 10.40625 -0.40625 C 10.175781 -0.238281 9.910156 -0.0976562 9.609375 0.015625 C 9.316406 0.128906 8.976562 0.1875 8.59375 0.1875 C 8.113281 0.1875 7.691406 0.046875 7.328125 -0.234375 C 6.960938 -0.523438 6.722656 -0.960938 6.609375 -1.546875 C 6.367188 -1.222656 6.117188 -0.953125 5.859375 -0.734375 C 5.597656 -0.515625 5.332031 -0.335938 5.0625 -0.203125 C 4.789062 -0.0664062 4.515625 0.03125 4.234375 0.09375 C 3.960938 0.15625 3.691406 0.1875 3.421875 0.1875 C 3.054688 0.1875 2.703125 0.128906 2.359375 0.015625 C 2.023438 -0.0976562 1.722656 -0.273438 1.453125 -0.515625 C 1.191406 -0.765625 0.976562 -1.082031 0.8125 -1.46875 C 0.65625 -1.863281 0.578125 -2.34375 0.578125 -2.90625 C 0.578125 -3.59375 0.710938 -4.15625 0.984375 -4.59375 C 1.253906 -5.03125 1.609375 -5.394531 2.046875 -5.6875 C 2.484375 -5.988281 2.984375 -6.242188 3.546875 -6.453125 C 4.109375 -6.660156 4.679688 -6.878906 5.265625 -7.109375 C 5.703125 -7.285156 6.019531 -7.546875 6.21875 -7.890625 C 6.414062 -8.234375 6.515625 -8.582031 6.515625 -8.9375 C 6.515625 -9.5 6.347656 -9.945312 6.015625 -10.28125 C 5.691406 -10.613281 5.25 -10.78125 4.6875 -10.78125 Z M 4.6875 -10.78125 "/></g></g></g><g fill="#1025a1" fill-opacity="1"><g transform="translate(89.879247, 67.124998)"><g><path d="M 0.921875 -7.09375 C 0.921875 -7.863281 1.050781 -8.535156 1.3125 -9.109375 C 1.582031 -9.679688 1.941406 -10.160156 2.390625 -10.546875 C 2.847656 -10.929688 3.375 -11.21875 3.96875 -11.40625 C 4.5625 -11.601562 5.1875 -11.703125 5.84375 -11.703125 C 6.5 -11.703125 7.117188 -11.613281 7.703125 -11.4375 C 8.285156 -11.269531 8.800781 -11.003906 9.25 -10.640625 C 9.394531 -10.859375 9.515625 -11.085938 9.609375 -11.328125 C 9.703125 -11.566406 9.75 -11.804688 9.75 -12.046875 C 9.75 -12.367188 9.660156 -12.625 9.484375 -12.8125 C 9.316406 -13 9.101562 -13.09375 8.84375 -13.09375 L 8.84375 -13.421875 C 9.007812 -13.472656 9.15625 -13.519531 9.28125 -13.5625 C 9.40625 -13.601562 9.519531 -13.632812 9.625 -13.65625 C 9.726562 -13.675781 9.832031 -13.691406 9.9375 -13.703125 C 10.050781 -13.710938 10.171875 -13.71875 10.296875 -13.71875 C 10.648438 -13.71875 10.921875 -13.609375 11.109375 -13.390625 C 11.296875 -13.171875 11.390625 -12.875 11.390625 -12.5 C 11.390625 -12.269531 11.335938 -12.039062 11.234375 -11.8125 C 11.128906 -11.59375 10.992188 -11.378906 10.828125 -11.171875 C 10.671875 -10.972656 10.5 -10.785156 10.3125 -10.609375 C 10.125 -10.429688 9.941406 -10.273438 9.765625 -10.140625 C 10.078125 -9.773438 10.316406 -9.351562 10.484375 -8.875 C 10.660156 -8.394531 10.75 -7.847656 10.75 -7.234375 C 10.75 -6.453125 10.613281 -5.765625 10.34375 -5.171875 C 10.082031 -4.578125 9.726562 -4.078125 9.28125 -3.671875 C 8.832031 -3.265625 8.3125 -2.957031 7.71875 -2.75 C 7.125 -2.550781 6.5 -2.453125 5.84375 -2.453125 C 5.457031 -2.453125 5.078125 -2.484375 4.703125 -2.546875 C 4.335938 -2.617188 3.992188 -2.71875 3.671875 -2.84375 C 3.554688 -2.75 3.453125 -2.632812 3.359375 -2.5 C 3.273438 -2.363281 3.234375 -2.210938 3.234375 -2.046875 C 3.234375 -1.773438 3.351562 -1.570312 3.59375 -1.4375 C 3.832031 -1.300781 4.148438 -1.203125 4.546875 -1.140625 C 4.953125 -1.078125 5.40625 -1.035156 5.90625 -1.015625 C 6.414062 -1.003906 6.929688 -0.984375 7.453125 -0.953125 C 7.984375 -0.921875 8.5 -0.859375 9 -0.765625 C 9.507812 -0.671875 9.960938 -0.515625 10.359375 -0.296875 C 10.753906 -0.0859375 11.070312 0.195312 11.3125 0.5625 C 11.5625 0.9375 11.6875 1.414062 11.6875 2 C 11.6875 2.4375 11.59375 2.820312 11.40625 3.15625 C 11.226562 3.5 10.988281 3.800781 10.6875 4.0625 C 10.382812 4.320312 10.03125 4.539062 9.625 4.71875 C 9.21875 4.90625 8.789062 5.054688 8.34375 5.171875 C 7.894531 5.296875 7.441406 5.382812 6.984375 5.4375 C 6.523438 5.488281 6.082031 5.515625 5.65625 5.515625 C 4.894531 5.515625 4.207031 5.472656 3.59375 5.390625 C 2.976562 5.316406 2.457031 5.195312 2.03125 5.03125 C 1.601562 4.863281 1.269531 4.644531 1.03125 4.375 C 0.800781 4.113281 0.6875 3.800781 0.6875 3.4375 C 0.6875 3.175781 0.742188 2.929688 0.859375 2.703125 C 0.984375 2.484375 1.144531 2.28125 1.34375 2.09375 C 1.539062 1.914062 1.765625 1.753906 2.015625 1.609375 C 2.265625 1.460938 2.519531 1.320312 2.78125 1.1875 C 2.394531 1.03125 2.078125 0.789062 1.828125 0.46875 C 1.578125 0.15625 1.453125 -0.265625 1.453125 -0.796875 C 1.453125 -1.066406 1.5 -1.320312 1.59375 -1.5625 C 1.695312 -1.800781 1.820312 -2.019531 1.96875 -2.21875 C 2.125 -2.414062 2.296875 -2.59375 2.484375 -2.75 C 2.671875 -2.914062 2.847656 -3.054688 3.015625 -3.171875 C 2.710938 -3.347656 2.429688 -3.566406 2.171875 -3.828125 C 1.910156 -4.085938 1.6875 -4.378906 1.5 -4.703125 C 1.320312 -5.035156 1.179688 -5.398438 1.078125 -5.796875 C 0.972656 -6.191406 0.921875 -6.625 0.921875 -7.09375 Z M 7.359375 -7.1875 C 7.359375 -7.625 7.335938 -8.046875 7.296875 -8.453125 C 7.253906 -8.867188 7.175781 -9.238281 7.0625 -9.5625 C 6.945312 -9.882812 6.789062 -10.144531 6.59375 -10.34375 C 6.394531 -10.539062 6.144531 -10.640625 5.84375 -10.640625 C 5.53125 -10.640625 5.273438 -10.535156 5.078125 -10.328125 C 4.890625 -10.128906 4.738281 -9.859375 4.625 -9.515625 C 4.507812 -9.179688 4.425781 -8.800781 4.375 -8.375 C 4.332031 -7.957031 4.3125 -7.53125 4.3125 -7.09375 C 4.3125 -6.644531 4.332031 -6.207031 4.375 -5.78125 C 4.425781 -5.351562 4.507812 -4.96875 4.625 -4.625 C 4.738281 -4.289062 4.890625 -4.019531 5.078125 -3.8125 C 5.273438 -3.601562 5.53125 -3.5 5.84375 -3.5 C 6.144531 -3.5 6.394531 -3.609375 6.59375 -3.828125 C 6.789062 -4.046875 6.945312 -4.328125 7.0625 -4.671875 C 7.175781 -5.023438 7.253906 -5.421875 7.296875 -5.859375 C 7.335938 -6.296875 7.359375 -6.738281 7.359375 -7.1875 Z M 9.078125 2.90625 C 9.078125 2.664062 8.984375 2.46875 8.796875 2.3125 C 8.609375 2.164062 8.359375 2.039062 8.046875 1.9375 C 7.742188 1.84375 7.398438 1.769531 7.015625 1.71875 C 6.628906 1.675781 6.238281 1.640625 5.84375 1.609375 C 5.445312 1.585938 5.054688 1.566406 4.671875 1.546875 C 4.296875 1.523438 3.972656 1.492188 3.703125 1.453125 C 3.546875 1.566406 3.390625 1.6875 3.234375 1.8125 C 3.085938 1.945312 2.957031 2.085938 2.84375 2.234375 C 2.738281 2.378906 2.648438 2.53125 2.578125 2.6875 C 2.515625 2.851562 2.484375 3.019531 2.484375 3.1875 C 2.484375 3.476562 2.566406 3.71875 2.734375 3.90625 C 2.898438 4.09375 3.125 4.242188 3.40625 4.359375 C 3.6875 4.472656 4.015625 4.550781 4.390625 4.59375 C 4.765625 4.644531 5.160156 4.671875 5.578125 4.671875 C 6.117188 4.671875 6.609375 4.625 7.046875 4.53125 C 7.484375 4.4375 7.851562 4.304688 8.15625 4.140625 C 8.457031 3.984375 8.6875 3.796875 8.84375 3.578125 C 9 3.367188 9.078125 3.144531 9.078125 2.90625 Z M 9.078125 2.90625 "/></g></g></g><g fill="#1025a1" fill-opacity="1"><g transform="translate(101.676738, 67.124998)"><g><path d="M 4.3125 -5.171875 C 4.3125 -4.929688 4.347656 -4.671875 4.421875 -4.390625 C 4.492188 -4.109375 4.597656 -3.820312 4.734375 -3.53125 C 4.867188 -3.25 5.035156 -2.976562 5.234375 -2.71875 C 5.429688 -2.457031 5.660156 -2.222656 5.921875 -2.015625 C 6.179688 -1.816406 6.46875 -1.65625 6.78125 -1.53125 C 7.101562 -1.414062 7.453125 -1.359375 7.828125 -1.359375 C 8.085938 -1.359375 8.328125 -1.390625 8.546875 -1.453125 C 8.773438 -1.515625 8.988281 -1.597656 9.1875 -1.703125 C 9.382812 -1.804688 9.570312 -1.925781 9.75 -2.0625 C 9.9375 -2.207031 10.117188 -2.359375 10.296875 -2.515625 L 10.578125 -2.25 C 10.398438 -2.007812 10.175781 -1.75 9.90625 -1.46875 C 9.632812 -1.195312 9.304688 -0.9375 8.921875 -0.6875 C 8.546875 -0.445312 8.101562 -0.242188 7.59375 -0.078125 C 7.082031 0.078125 6.5 0.15625 5.84375 0.15625 C 5.1875 0.15625 4.546875 0.0390625 3.921875 -0.1875 C 3.304688 -0.425781 2.757812 -0.78125 2.28125 -1.25 C 1.800781 -1.726562 1.414062 -2.320312 1.125 -3.03125 C 0.832031 -3.738281 0.6875 -4.566406 0.6875 -5.515625 C 0.6875 -6.203125 0.769531 -6.828125 0.9375 -7.390625 C 1.113281 -7.960938 1.347656 -8.476562 1.640625 -8.9375 C 1.941406 -9.394531 2.289062 -9.796875 2.6875 -10.140625 C 3.082031 -10.492188 3.5 -10.785156 3.9375 -11.015625 C 4.375 -11.242188 4.816406 -11.414062 5.265625 -11.53125 C 5.722656 -11.644531 6.160156 -11.703125 6.578125 -11.703125 C 7.140625 -11.703125 7.625 -11.640625 8.03125 -11.515625 C 8.445312 -11.398438 8.789062 -11.238281 9.0625 -11.03125 C 9.34375 -10.832031 9.550781 -10.597656 9.6875 -10.328125 C 9.820312 -10.066406 9.890625 -9.789062 9.890625 -9.5 C 9.890625 -9.144531 9.785156 -8.828125 9.578125 -8.546875 C 9.378906 -8.265625 9.109375 -8.015625 8.765625 -7.796875 Z M 6.578125 -7.46875 C 6.679688 -7.53125 6.765625 -7.585938 6.828125 -7.640625 C 6.890625 -7.691406 6.9375 -7.757812 6.96875 -7.84375 C 7.007812 -7.925781 7.039062 -8.023438 7.0625 -8.140625 C 7.082031 -8.253906 7.09375 -8.394531 7.09375 -8.5625 C 7.09375 -8.757812 7.070312 -8.972656 7.03125 -9.203125 C 6.988281 -9.429688 6.914062 -9.644531 6.8125 -9.84375 C 6.71875 -10.050781 6.59375 -10.21875 6.4375 -10.34375 C 6.289062 -10.476562 6.113281 -10.546875 5.90625 -10.546875 C 5.632812 -10.546875 5.398438 -10.460938 5.203125 -10.296875 C 5.015625 -10.140625 4.859375 -9.929688 4.734375 -9.671875 C 4.617188 -9.421875 4.523438 -9.132812 4.453125 -8.8125 C 4.378906 -8.488281 4.320312 -8.160156 4.28125 -7.828125 C 4.25 -7.492188 4.226562 -7.175781 4.21875 -6.875 C 4.207031 -6.570312 4.203125 -6.3125 4.203125 -6.09375 Z M 6.578125 -7.46875 "/></g></g></g><g fill="#1025a1" fill-opacity="1"><g transform="translate(112.391526, 67.124998)"><g><path d="M 8.046875 -5.609375 C 8.046875 -6.554688 8 -7.3125 7.90625 -7.875 C 7.820312 -8.445312 7.707031 -8.878906 7.5625 -9.171875 C 7.425781 -9.472656 7.269531 -9.671875 7.09375 -9.765625 C 6.914062 -9.859375 6.738281 -9.90625 6.5625 -9.90625 C 6.34375 -9.90625 6.148438 -9.847656 5.984375 -9.734375 C 5.816406 -9.617188 5.671875 -9.484375 5.546875 -9.328125 C 5.421875 -9.179688 5.3125 -9.03125 5.21875 -8.875 C 5.132812 -8.726562 5.0625 -8.617188 5 -8.546875 L 5 -1.015625 C 5 -0.921875 4.984375 -0.800781 4.953125 -0.65625 C 4.929688 -0.519531 4.859375 -0.390625 4.734375 -0.265625 C 4.617188 -0.140625 4.445312 -0.0351562 4.21875 0.046875 C 3.988281 0.140625 3.675781 0.1875 3.28125 0.1875 C 2.882812 0.1875 2.570312 0.140625 2.34375 0.046875 C 2.113281 -0.046875 1.9375 -0.15625 1.8125 -0.28125 C 1.695312 -0.414062 1.625 -0.550781 1.59375 -0.6875 C 1.5625 -0.820312 1.546875 -0.929688 1.546875 -1.015625 L 1.546875 -9.71875 C 1.546875 -9.9375 1.492188 -10.125 1.390625 -10.28125 C 1.285156 -10.445312 1.113281 -10.53125 0.875 -10.53125 C 0.75 -10.53125 0.640625 -10.503906 0.546875 -10.453125 C 0.460938 -10.410156 0.367188 -10.347656 0.265625 -10.265625 L 0.015625 -10.546875 C 0.191406 -10.691406 0.382812 -10.832031 0.59375 -10.96875 C 0.8125 -11.113281 1.046875 -11.238281 1.296875 -11.34375 C 1.546875 -11.445312 1.8125 -11.53125 2.09375 -11.59375 C 2.382812 -11.664062 2.6875 -11.703125 3 -11.703125 C 3.488281 -11.703125 3.867188 -11.617188 4.140625 -11.453125 C 4.410156 -11.296875 4.609375 -11.101562 4.734375 -10.875 C 4.859375 -10.65625 4.929688 -10.421875 4.953125 -10.171875 C 4.984375 -9.929688 5 -9.726562 5 -9.5625 C 5.28125 -9.957031 5.597656 -10.316406 5.953125 -10.640625 C 6.097656 -10.773438 6.257812 -10.90625 6.4375 -11.03125 C 6.613281 -11.15625 6.800781 -11.269531 7 -11.375 C 7.195312 -11.476562 7.40625 -11.554688 7.625 -11.609375 C 7.851562 -11.671875 8.082031 -11.703125 8.3125 -11.703125 C 8.820312 -11.703125 9.273438 -11.601562 9.671875 -11.40625 C 10.066406 -11.21875 10.398438 -10.894531 10.671875 -10.4375 C 10.941406 -9.976562 11.144531 -9.367188 11.28125 -8.609375 C 11.425781 -7.847656 11.5 -6.910156 11.5 -5.796875 C 11.5 -4.703125 11.398438 -3.753906 11.203125 -2.953125 C 11.015625 -2.148438 10.757812 -1.46875 10.4375 -0.90625 C 10.125 -0.34375 9.765625 0.113281 9.359375 0.46875 C 8.960938 0.832031 8.5625 1.113281 8.15625 1.3125 C 7.757812 1.519531 7.375 1.660156 7 1.734375 C 6.625 1.816406 6.300781 1.863281 6.03125 1.875 L 5.90625 1.40625 C 6.132812 1.351562 6.34375 1.269531 6.53125 1.15625 C 6.726562 1.050781 6.90625 0.890625 7.0625 0.671875 C 7.21875 0.453125 7.351562 0.175781 7.46875 -0.15625 C 7.59375 -0.5 7.695312 -0.921875 7.78125 -1.421875 C 7.875 -1.921875 7.941406 -2.515625 7.984375 -3.203125 C 8.023438 -3.890625 8.046875 -4.691406 8.046875 -5.609375 Z M 8.046875 -5.609375 "/></g></g></g><g fill="#1025a1" fill-opacity="1"><g transform="translate(124.843149, 67.124998)"><g><path d="M 8.5625 -7.796875 C 8.332031 -7.796875 8.140625 -7.832031 7.984375 -7.90625 C 7.828125 -7.976562 7.695312 -8.070312 7.59375 -8.1875 C 7.5 -8.3125 7.425781 -8.445312 7.375 -8.59375 C 7.332031 -8.738281 7.3125 -8.894531 7.3125 -9.0625 C 7.3125 -9.257812 7.320312 -9.453125 7.34375 -9.640625 C 7.375 -9.828125 7.378906 -9.992188 7.359375 -10.140625 C 7.347656 -10.296875 7.289062 -10.414062 7.1875 -10.5 C 7.09375 -10.59375 6.921875 -10.640625 6.671875 -10.640625 C 6.410156 -10.640625 6.132812 -10.5625 5.84375 -10.40625 C 5.550781 -10.257812 5.28125 -10.023438 5.03125 -9.703125 C 4.789062 -9.378906 4.59375 -8.960938 4.4375 -8.453125 C 4.28125 -7.953125 4.203125 -7.34375 4.203125 -6.625 C 4.203125 -5.84375 4.273438 -5.125 4.421875 -4.46875 C 4.566406 -3.820312 4.785156 -3.269531 5.078125 -2.8125 C 5.378906 -2.351562 5.742188 -1.992188 6.171875 -1.734375 C 6.609375 -1.484375 7.125 -1.359375 7.71875 -1.359375 C 7.976562 -1.359375 8.222656 -1.390625 8.453125 -1.453125 C 8.691406 -1.515625 8.914062 -1.597656 9.125 -1.703125 C 9.34375 -1.804688 9.546875 -1.925781 9.734375 -2.0625 C 9.929688 -2.207031 10.117188 -2.359375 10.296875 -2.515625 L 10.578125 -2.25 C 10.398438 -2.007812 10.175781 -1.75 9.90625 -1.46875 C 9.632812 -1.195312 9.304688 -0.9375 8.921875 -0.6875 C 8.546875 -0.445312 8.101562 -0.242188 7.59375 -0.078125 C 7.082031 0.078125 6.5 0.15625 5.84375 0.15625 C 5.1875 0.15625 4.546875 0.03125 3.921875 -0.21875 C 3.304688 -0.46875 2.757812 -0.832031 2.28125 -1.3125 C 1.800781 -1.800781 1.414062 -2.390625 1.125 -3.078125 C 0.832031 -3.765625 0.6875 -4.546875 0.6875 -5.421875 C 0.6875 -6.109375 0.769531 -6.738281 0.9375 -7.3125 C 1.113281 -7.882812 1.347656 -8.40625 1.640625 -8.875 C 1.941406 -9.34375 2.289062 -9.753906 2.6875 -10.109375 C 3.082031 -10.460938 3.5 -10.753906 3.9375 -10.984375 C 4.375 -11.222656 4.816406 -11.398438 5.265625 -11.515625 C 5.722656 -11.640625 6.160156 -11.703125 6.578125 -11.703125 C 7.140625 -11.703125 7.625 -11.640625 8.03125 -11.515625 C 8.445312 -11.390625 8.789062 -11.21875 9.0625 -11 C 9.34375 -10.789062 9.550781 -10.546875 9.6875 -10.265625 C 9.820312 -9.992188 9.890625 -9.710938 9.890625 -9.421875 C 9.890625 -9.203125 9.859375 -8.992188 9.796875 -8.796875 C 9.742188 -8.597656 9.660156 -8.425781 9.546875 -8.28125 C 9.441406 -8.132812 9.304688 -8.015625 9.140625 -7.921875 C 8.972656 -7.835938 8.78125 -7.796875 8.5625 -7.796875 Z M 8.5625 -7.796875 "/></g></g></g><g fill="#1025a1" fill-opacity="1"><g transform="translate(135.557937, 67.124998)"><g><path d="M 4.3125 -5.171875 C 4.3125 -4.929688 4.347656 -4.671875 4.421875 -4.390625 C 4.492188 -4.109375 4.597656 -3.820312 4.734375 -3.53125 C 4.867188 -3.25 5.035156 -2.976562 5.234375 -2.71875 C 5.429688 -2.457031 5.660156 -2.222656 5.921875 -2.015625 C 6.179688 -1.816406 6.46875 -1.65625 6.78125 -1.53125 C 7.101562 -1.414062 7.453125 -1.359375 7.828125 -1.359375 C 8.085938 -1.359375 8.328125 -1.390625 8.546875 -1.453125 C 8.773438 -1.515625 8.988281 -1.597656 9.1875 -1.703125 C 9.382812 -1.804688 9.570312 -1.925781 9.75 -2.0625 C 9.9375 -2.207031 10.117188 -2.359375 10.296875 -2.515625 L 10.578125 -2.25 C 10.398438 -2.007812 10.175781 -1.75 9.90625 -1.46875 C 9.632812 -1.195312 9.304688 -0.9375 8.921875 -0.6875 C 8.546875 -0.445312 8.101562 -0.242188 7.59375 -0.078125 C 7.082031 0.078125 6.5 0.15625 5.84375 0.15625 C 5.1875 0.15625 4.546875 0.0390625 3.921875 -0.1875 C 3.304688 -0.425781 2.757812 -0.78125 2.28125 -1.25 C 1.800781 -1.726562 1.414062 -2.320312 1.125 -3.03125 C 0.832031 -3.738281 0.6875 -4.566406 0.6875 -5.515625 C 0.6875 -6.203125 0.769531 -6.828125 0.9375 -7.390625 C 1.113281 -7.960938 1.347656 -8.476562 1.640625 -8.9375 C 1.941406 -9.394531 2.289062 -9.796875 2.6875 -10.140625 C 3.082031 -10.492188 3.5 -10.785156 3.9375 -11.015625 C 4.375 -11.242188 4.816406 -11.414062 5.265625 -11.53125 C 5.722656 -11.644531 6.160156 -11.703125 6.578125 -11.703125 C 7.140625 -11.703125 7.625 -11.640625 8.03125 -11.515625 C 8.445312 -11.398438 8.789062 -11.238281 9.0625 -11.03125 C 9.34375 -10.832031 9.550781 -10.597656 9.6875 -10.328125 C 9.820312 -10.066406 9.890625 -9.789062 9.890625 -9.5 C 9.890625 -9.144531 9.785156 -8.828125 9.578125 -8.546875 C 9.378906 -8.265625 9.109375 -8.015625 8.765625 -7.796875 Z M 6.578125 -7.46875 C 6.679688 -7.53125 6.765625 -7.585938 6.828125 -7.640625 C 6.890625 -7.691406 6.9375 -7.757812 6.96875 -7.84375 C 7.007812 -7.925781 7.039062 -8.023438 7.0625 -8.140625 C 7.082031 -8.253906 7.09375 -8.394531 7.09375 -8.5625 C 7.09375 -8.757812 7.070312 -8.972656 7.03125 -9.203125 C 6.988281 -9.429688 6.914062 -9.644531 6.8125 -9.84375 C 6.71875 -10.050781 6.59375 -10.21875 6.4375 -10.34375 C 6.289062 -10.476562 6.113281 -10.546875 5.90625 -10.546875 C 5.632812 -10.546875 5.398438 -10.460938 5.203125 -10.296875 C 5.015625 -10.140625 4.859375 -9.929688 4.734375 -9.671875 C 4.617188 -9.421875 4.523438 -9.132812 4.453125 -8.8125 C 4.378906 -8.488281 4.320312 -8.160156 4.28125 -7.828125 C 4.25 -7.492188 4.226562 -7.175781 4.21875 -6.875 C 4.207031 -6.570312 4.203125 -6.3125 4.203125 -6.09375 Z M 6.578125 -7.46875 "/></g></g></g><g fill="#1025a1" fill-opacity="1"><g transform="translate(146.272725, 67.124998)"><g/></g></g><g fill="#1025a1" fill-opacity="1"><g transform="translate(151.495058, 67.124998)"><g><path d="M 15.140625 -8.125 C 15.140625 -8.625 15.101562 -9.035156 15.03125 -9.359375 C 14.96875 -9.679688 14.894531 -9.945312 14.8125 -10.15625 C 14.738281 -10.375 14.664062 -10.550781 14.59375 -10.6875 C 14.53125 -10.832031 14.5 -10.960938 14.5 -11.078125 C 14.5 -11.191406 14.539062 -11.285156 14.625 -11.359375 C 14.71875 -11.441406 14.828125 -11.507812 14.953125 -11.5625 C 15.078125 -11.613281 15.203125 -11.648438 15.328125 -11.671875 C 15.460938 -11.691406 15.570312 -11.703125 15.65625 -11.703125 C 15.875 -11.703125 16.03125 -11.671875 16.125 -11.609375 C 16.226562 -11.554688 16.3125 -11.441406 16.375 -11.265625 C 16.4375 -11.046875 16.476562 -10.753906 16.5 -10.390625 C 16.53125 -10.035156 16.546875 -9.65625 16.546875 -9.25 C 16.546875 -8.675781 16.507812 -8.039062 16.4375 -7.34375 C 16.375 -6.65625 16.269531 -5.960938 16.125 -5.265625 C 15.976562 -4.566406 15.789062 -3.890625 15.5625 -3.234375 C 15.332031 -2.578125 15.054688 -1.992188 14.734375 -1.484375 C 14.410156 -0.984375 14.035156 -0.578125 13.609375 -0.265625 C 13.191406 0.0351562 12.71875 0.1875 12.1875 0.1875 C 11.769531 0.1875 11.390625 0.101562 11.046875 -0.0625 C 10.710938 -0.238281 10.414062 -0.472656 10.15625 -0.765625 C 9.894531 -1.054688 9.664062 -1.398438 9.46875 -1.796875 C 9.269531 -2.191406 9.09375 -2.613281 8.9375 -3.0625 C 8.769531 -2.601562 8.570312 -2.175781 8.34375 -1.78125 C 8.113281 -1.382812 7.863281 -1.039062 7.59375 -0.75 C 7.320312 -0.457031 7.019531 -0.226562 6.6875 -0.0625 C 6.351562 0.101562 5.992188 0.1875 5.609375 0.1875 C 5.140625 0.1875 4.722656 0.0820312 4.359375 -0.125 C 3.992188 -0.332031 3.671875 -0.613281 3.390625 -0.96875 C 3.117188 -1.332031 2.878906 -1.75 2.671875 -2.21875 C 2.472656 -2.695312 2.296875 -3.195312 2.140625 -3.71875 C 1.992188 -4.25 1.875 -4.789062 1.78125 -5.34375 C 1.6875 -5.894531 1.601562 -6.429688 1.53125 -6.953125 C 1.46875 -7.472656 1.410156 -7.957031 1.359375 -8.40625 C 1.316406 -8.863281 1.273438 -9.253906 1.234375 -9.578125 C 1.179688 -9.878906 1.101562 -10.113281 1 -10.28125 C 0.894531 -10.445312 0.722656 -10.53125 0.484375 -10.53125 C 0.359375 -10.53125 0.25 -10.503906 0.15625 -10.453125 C 0.0625 -10.410156 -0.0351562 -10.347656 -0.140625 -10.265625 L -0.375 -10.546875 C -0.195312 -10.691406 -0.00390625 -10.832031 0.203125 -10.96875 C 0.421875 -11.113281 0.65625 -11.238281 0.90625 -11.34375 C 1.15625 -11.445312 1.421875 -11.53125 1.703125 -11.59375 C 1.984375 -11.664062 2.285156 -11.703125 2.609375 -11.703125 C 3.054688 -11.703125 3.414062 -11.625 3.6875 -11.46875 C 3.96875 -11.320312 4.1875 -11.128906 4.34375 -10.890625 C 4.507812 -10.660156 4.625 -10.414062 4.6875 -10.15625 C 4.757812 -9.894531 4.8125 -9.660156 4.84375 -9.453125 C 4.976562 -8.316406 5.113281 -7.316406 5.25 -6.453125 C 5.382812 -5.585938 5.523438 -4.863281 5.671875 -4.28125 C 5.816406 -3.695312 5.976562 -3.253906 6.15625 -2.953125 C 6.332031 -2.660156 6.539062 -2.515625 6.78125 -2.515625 C 6.945312 -2.515625 7.101562 -2.582031 7.25 -2.71875 C 7.394531 -2.851562 7.535156 -3.039062 7.671875 -3.28125 C 7.804688 -3.519531 7.9375 -3.8125 8.0625 -4.15625 C 8.1875 -4.5 8.289062 -4.875 8.375 -5.28125 C 8.300781 -5.695312 8.238281 -6.109375 8.1875 -6.515625 C 8.132812 -6.921875 8.085938 -7.3125 8.046875 -7.6875 C 8.003906 -8.0625 7.960938 -8.410156 7.921875 -8.734375 C 7.890625 -9.054688 7.847656 -9.335938 7.796875 -9.578125 C 7.691406 -10.285156 7.757812 -10.816406 8 -11.171875 C 8.238281 -11.523438 8.726562 -11.703125 9.46875 -11.703125 C 9.789062 -11.703125 10.0625 -11.671875 10.28125 -11.609375 C 10.507812 -11.554688 10.695312 -11.453125 10.84375 -11.296875 C 10.988281 -11.148438 11.101562 -10.941406 11.1875 -10.671875 C 11.28125 -10.398438 11.351562 -10.0625 11.40625 -9.65625 C 11.550781 -8.53125 11.691406 -7.519531 11.828125 -6.625 C 11.960938 -5.738281 12.101562 -4.988281 12.25 -4.375 C 12.40625 -3.769531 12.570312 -3.304688 12.75 -2.984375 C 12.925781 -2.671875 13.132812 -2.515625 13.375 -2.515625 C 13.625 -2.515625 13.859375 -2.671875 14.078125 -2.984375 C 14.296875 -3.304688 14.484375 -3.722656 14.640625 -4.234375 C 14.804688 -4.753906 14.929688 -5.351562 15.015625 -6.03125 C 15.097656 -6.707031 15.140625 -7.40625 15.140625 -8.125 Z M 15.140625 -8.125 "/></g></g></g><g fill="#1025a1" fill-opacity="1"><g transform="translate(168.863955, 67.124998)"><g><path d="M 4.3125 -5.171875 C 4.3125 -4.929688 4.347656 -4.671875 4.421875 -4.390625 C 4.492188 -4.109375 4.597656 -3.820312 4.734375 -3.53125 C 4.867188 -3.25 5.035156 -2.976562 5.234375 -2.71875 C 5.429688 -2.457031 5.660156 -2.222656 5.921875 -2.015625 C 6.179688 -1.816406 6.46875 -1.65625 6.78125 -1.53125 C 7.101562 -1.414062 7.453125 -1.359375 7.828125 -1.359375 C 8.085938 -1.359375 8.328125 -1.390625 8.546875 -1.453125 C 8.773438 -1.515625 8.988281 -1.597656 9.1875 -1.703125 C 9.382812 -1.804688 9.570312 -1.925781 9.75 -2.0625 C 9.9375 -2.207031 10.117188 -2.359375 10.296875 -2.515625 L 10.578125 -2.25 C 10.398438 -2.007812 10.175781 -1.75 9.90625 -1.46875 C 9.632812 -1.195312 9.304688 -0.9375 8.921875 -0.6875 C 8.546875 -0.445312 8.101562 -0.242188 7.59375 -0.078125 C 7.082031 0.078125 6.5 0.15625 5.84375 0.15625 C 5.1875 0.15625 4.546875 0.0390625 3.921875 -0.1875 C 3.304688 -0.425781 2.757812 -0.78125 2.28125 -1.25 C 1.800781 -1.726562 1.414062 -2.320312 1.125 -3.03125 C 0.832031 -3.738281 0.6875 -4.566406 0.6875 -5.515625 C 0.6875 -6.203125 0.769531 -6.828125 0.9375 -7.390625 C 1.113281 -7.960938 1.347656 -8.476562 1.640625 -8.9375 C 1.941406 -9.394531 2.289062 -9.796875 2.6875 -10.140625 C 3.082031 -10.492188 3.5 -10.785156 3.9375 -11.015625 C 4.375 -11.242188 4.816406 -11.414062 5.265625 -11.53125 C 5.722656 -11.644531 6.160156 -11.703125 6.578125 -11.703125 C 7.140625 -11.703125 7.625 -11.640625 8.03125 -11.515625 C 8.445312 -11.398438 8.789062 -11.238281 9.0625 -11.03125 C 9.34375 -10.832031 9.550781 -10.597656 9.6875 -10.328125 C 9.820312 -10.066406 9.890625 -9.789062 9.890625 -9.5 C 9.890625 -9.144531 9.785156 -8.828125 9.578125 -8.546875 C 9.378906 -8.265625 9.109375 -8.015625 8.765625 -7.796875 Z M 6.578125 -7.46875 C 6.679688 -7.53125 6.765625 -7.585938 6.828125 -7.640625 C 6.890625 -7.691406 6.9375 -7.757812 6.96875 -7.84375 C 7.007812 -7.925781 7.039062 -8.023438 7.0625 -8.140625 C 7.082031 -8.253906 7.09375 -8.394531 7.09375 -8.5625 C 7.09375 -8.757812 7.070312 -8.972656 7.03125 -9.203125 C 6.988281 -9.429688 6.914062 -9.644531 6.8125 -9.84375 C 6.71875 -10.050781 6.59375 -10.21875 6.4375 -10.34375 C 6.289062 -10.476562 6.113281 -10.546875 5.90625 -10.546875 C 5.632812 -10.546875 5.398438 -10.460938 5.203125 -10.296875 C 5.015625 -10.140625 4.859375 -9.929688 4.734375 -9.671875 C 4.617188 -9.421875 4.523438 -9.132812 4.453125 -8.8125 C 4.378906 -8.488281 4.320312 -8.160156 4.28125 -7.828125 C 4.25 -7.492188 4.226562 -7.175781 4.21875 -6.875 C 4.207031 -6.570312 4.203125 -6.3125 4.203125 -6.09375 Z M 6.578125 -7.46875 "/></g></g></g><g fill="#1025a1" fill-opacity="1"><g transform="translate(179.578738, 67.124998)"><g><path d="M 7.765625 -5.609375 C 7.765625 -6.265625 7.726562 -6.878906 7.65625 -7.453125 C 7.59375 -8.035156 7.484375 -8.539062 7.328125 -8.96875 C 7.179688 -9.40625 6.988281 -9.75 6.75 -10 C 6.519531 -10.25 6.238281 -10.375 5.90625 -10.375 C 5.65625 -10.375 5.441406 -10.3125 5.265625 -10.1875 C 5.085938 -10.0625 4.941406 -9.921875 4.828125 -9.765625 C 4.710938 -9.609375 4.628906 -9.453125 4.578125 -9.296875 C 4.523438 -9.140625 4.5 -9.035156 4.5 -8.984375 L 4.5 -5.609375 C 4.5 -3.972656 4.632812 -2.78125 4.90625 -2.03125 C 5.1875 -1.289062 5.59375 -0.921875 6.125 -0.921875 C 6.6875 -0.921875 7.097656 -1.300781 7.359375 -2.0625 C 7.628906 -2.820312 7.765625 -4.003906 7.765625 -5.609375 Z M 1.03125 -15.5625 C 1.03125 -15.78125 0.976562 -15.96875 0.875 -16.125 C 0.78125 -16.289062 0.613281 -16.375 0.375 -16.375 C 0.25 -16.375 0.140625 -16.351562 0.046875 -16.3125 C -0.046875 -16.269531 -0.148438 -16.207031 -0.265625 -16.125 L -0.484375 -16.390625 C -0.304688 -16.535156 -0.113281 -16.675781 0.09375 -16.8125 C 0.3125 -16.957031 0.539062 -17.082031 0.78125 -17.1875 C 1.03125 -17.289062 1.296875 -17.375 1.578125 -17.4375 C 1.867188 -17.507812 2.171875 -17.546875 2.484375 -17.546875 C 2.921875 -17.546875 3.273438 -17.476562 3.546875 -17.34375 C 3.816406 -17.21875 4.019531 -17.054688 4.15625 -16.859375 C 4.289062 -16.671875 4.378906 -16.460938 4.421875 -16.234375 C 4.472656 -16.015625 4.5 -15.8125 4.5 -15.625 L 4.5 -10.59375 C 4.59375 -10.675781 4.707031 -10.78125 4.84375 -10.90625 C 4.988281 -11.03125 5.171875 -11.148438 5.390625 -11.265625 C 5.609375 -11.390625 5.867188 -11.492188 6.171875 -11.578125 C 6.472656 -11.660156 6.832031 -11.703125 7.25 -11.703125 C 7.726562 -11.703125 8.207031 -11.59375 8.6875 -11.375 C 9.175781 -11.15625 9.609375 -10.804688 9.984375 -10.328125 C 10.367188 -9.859375 10.679688 -9.25 10.921875 -8.5 C 11.160156 -7.757812 11.28125 -6.863281 11.28125 -5.8125 C 11.28125 -5 11.171875 -4.226562 10.953125 -3.5 C 10.734375 -2.769531 10.40625 -2.128906 9.96875 -1.578125 C 9.53125 -1.035156 8.984375 -0.601562 8.328125 -0.28125 C 7.679688 0.03125 6.925781 0.1875 6.0625 0.1875 C 5.113281 0.1875 4.316406 0.0351562 3.671875 -0.265625 C 3.035156 -0.578125 2.519531 -0.988281 2.125 -1.5 C 1.738281 -2.019531 1.457031 -2.617188 1.28125 -3.296875 C 1.113281 -3.984375 1.03125 -4.707031 1.03125 -5.46875 Z M 1.03125 -15.5625 "/></g></g></g></svg>