<svg xmlns="http://www.w3.org/2000/svg" xmlns:xlink="http://www.w3.org/1999/xlink" width="360" zoomAndPan="magnify" viewBox="0 0 270 119.999999" height="160" preserveAspectRatio="xMidYMid meet" version="1.0"><defs><g/><clipPath id="6923f55ce9"><path d="M 133.433594 106.125 L 135.03125 106.125 L 135.03125 119.480469 L 133.433594 119.480469 Z M 133.433594 106.125 " clip-rule="nonzero"/></clipPath><clipPath id="11c75b09dc"><path d="M 133.433594 0 L 135.03125 0 L 135.03125 12.832031 L 133.433594 12.832031 Z M 133.433594 0 " clip-rule="nonzero"/></clipPath><clipPath id="311970c149"><path d="M 0 58.566406 L 30.035156 58.566406 L 30.035156 60.007812 L 0 60.007812 Z M 0 58.566406 " clip-rule="nonzero"/></clipPath><clipPath id="8fded07b75"><path d="M 239.941406 58.566406 L 269.988281 58.566406 L 269.988281 60.007812 L 239.941406 60.007812 Z M 239.941406 58.566406 " clip-rule="nonzero"/></clipPath><clipPath id="a023e4a40e"><path d="M 66 98 L 75 98 L 75 111 L 66 111 Z M 66 98 " clip-rule="nonzero"/></clipPath><clipPath id="773a92f350"><path d="M 74.976562 98.996094 L 67.917969 110.332031 L 66.523438 109.464844 L 73.582031 98.128906 Z M 74.976562 98.996094 " clip-rule="nonzero"/></clipPath><clipPath id="21139aea98"><path d="M 193 7 L 202 7 L 202 20 L 193 20 Z M 193 7 " clip-rule="nonzero"/></clipPath><clipPath id="7295c90f03"><path d="M 201.832031 8.472656 L 194.773438 19.808594 L 193.378906 18.941406 L 200.4375 7.605469 Z M 201.832031 8.472656 " clip-rule="nonzero"/></clipPath><clipPath id="e239f9293d"><path d="M 16 20 L 50 20 L 50 42 L 16 42 Z M 16 20 " clip-rule="nonzero"/></clipPath><clipPath id="8ca04eb75d"><path d="M 49.171875 41.882812 L 16.578125 21.585938 L 17.339844 20.363281 L 49.929688 40.664062 Z M 49.171875 41.882812 " clip-rule="nonzero"/></clipPath><clipPath id="43b2882489"><path d="M 220 76 L 254 76 L 254 99 L 220 99 Z M 220 76 " clip-rule="nonzero"/></clipPath><clipPath id="2880a779f0"><path d="M 252.847656 98.265625 L 220.257812 77.964844 L 221.019531 76.746094 L 253.609375 97.042969 Z M 252.847656 98.265625 " clip-rule="nonzero"/></clipPath><clipPath id="5966df977d"><path d="M 13 75 L 47 75 L 47 96 L 13 96 Z M 13 75 " clip-rule="nonzero"/></clipPath><clipPath id="0d9d60d3eb"><path d="M 46.992188 76.835938 L 14.226562 95.207031 L 13.523438 93.953125 L 46.285156 75.578125 Z M 46.992188 76.835938 " clip-rule="nonzero"/></clipPath><clipPath id="b579a16cf3"><path d="M 222 23 L 257 23 L 257 44 L 222 44 Z M 222 23 " clip-rule="nonzero"/></clipPath><clipPath id="89a15ee2b2"><path d="M 256.285156 24.671875 L 223.519531 43.046875 L 222.816406 41.789062 L 255.578125 23.417969 Z M 256.285156 24.671875 " clip-rule="nonzero"/></clipPath><clipPath id="c07aadcac0"><path d="M 72 6 L 81 6 L 81 19 L 72 19 Z M 72 6 " clip-rule="nonzero"/></clipPath><clipPath id="144700ea40"><path d="M 79.496094 18.828125 L 72.964844 7.183594 L 74.394531 6.378906 L 80.925781 18.027344 Z M 79.496094 18.828125 " clip-rule="nonzero"/></clipPath><clipPath id="17ddfee3d9"><path d="M 190 99 L 199 99 L 199 112 L 190 112 Z M 190 99 " clip-rule="nonzero"/></clipPath><clipPath id="0f6c210661"><path d="M 196.859375 111.847656 L 190.328125 100.203125 L 191.757812 99.398438 L 198.289062 111.046875 Z M 196.859375 111.847656 " clip-rule="nonzero"/></clipPath></defs><rect x="-27" width="324" fill="#ffffff" y="-12" height="143.999998" fill-opacity="1"/><rect x="-27" width="324" fill="#ffffff" y="-12" height="143.999998" fill-opacity="1"/><g clip-path="url(#6923f55ce9)"><path fill="#008000" d="M 139.5625 106.125 L 139.5625 119.472656 L 129.960938 119.472656 L 129.960938 106.125 Z M 139.5625 106.125 " fill-opacity="1" fill-rule="nonzero"/></g><g clip-path="url(#11c75b09dc)"><path fill="#008000" d="M 139.5625 -0.519531 L 139.5625 12.828125 L 129.960938 12.828125 L 129.960938 -0.519531 Z M 139.5625 -0.519531 " fill-opacity="1" fill-rule="nonzero"/></g><g clip-path="url(#311970c149)"><path fill="#008000" d="M 30.035156 64.085938 L 0 64.085938 L 0 54.488281 L 30.035156 54.488281 Z M 30.035156 64.085938 " fill-opacity="1" fill-rule="nonzero"/></g><g clip-path="url(#8fded07b75)"><path fill="#008000" d="M 269.988281 64.085938 L 239.957031 64.085938 L 239.957031 54.488281 L 269.988281 54.488281 Z M 269.988281 64.085938 " fill-opacity="1" fill-rule="nonzero"/></g><g clip-path="url(#a023e4a40e)"><g clip-path="url(#773a92f350)"><path fill="#008000" d="M 78.925781 101.457031 L 71.871094 112.789062 L 63.722656 107.710938 L 70.777344 96.382812 Z M 78.925781 101.457031 " fill-opacity="1" fill-rule="nonzero"/></g></g><g clip-path="url(#21139aea98)"><g clip-path="url(#7295c90f03)"><path fill="#008000" d="M 205.78125 10.933594 L 198.726562 22.261719 L 190.578125 17.1875 L 197.636719 5.859375 Z M 205.78125 10.933594 " fill-opacity="1" fill-rule="nonzero"/></g></g><g clip-path="url(#e239f9293d)"><g clip-path="url(#8ca04eb75d)"><path fill="#008000" d="M 47.011719 45.347656 L 14.421875 25.050781 L 19.496094 16.902344 L 52.085938 37.199219 Z M 47.011719 45.347656 " fill-opacity="1" fill-rule="nonzero"/></g></g><g clip-path="url(#43b2882489)"><g clip-path="url(#2880a779f0)"><path fill="#008000" d="M 250.691406 101.726562 L 218.101562 81.429688 L 223.175781 73.28125 L 255.765625 93.582031 Z M 250.691406 101.726562 " fill-opacity="1" fill-rule="nonzero"/></g></g><g clip-path="url(#5966df977d)"><g clip-path="url(#0d9d60d3eb)"><path fill="#008000" d="M 48.984375 80.394531 L 16.214844 98.769531 L 11.523438 90.394531 L 44.292969 72.019531 Z M 48.984375 80.394531 " fill-opacity="1" fill-rule="nonzero"/></g></g><g clip-path="url(#b579a16cf3)"><g clip-path="url(#89a15ee2b2)"><path fill="#008000" d="M 258.277344 28.230469 L 225.511719 46.605469 L 220.816406 38.234375 L 253.585938 19.859375 Z M 258.277344 28.230469 " fill-opacity="1" fill-rule="nonzero"/></g></g><g clip-path="url(#c07aadcac0)"><g clip-path="url(#144700ea40)"><path fill="#008000" d="M 75.445312 21.101562 L 68.917969 9.457031 L 77.289062 4.765625 L 83.816406 16.40625 Z M 75.445312 21.101562 " fill-opacity="1" fill-rule="nonzero"/></g></g><g clip-path="url(#17ddfee3d9)"><g clip-path="url(#0f6c210661)"><path fill="#008000" d="M 192.808594 114.121094 L 186.277344 102.476562 L 194.652344 97.78125 L 201.179688 109.425781 Z M 192.808594 114.121094 " fill-opacity="1" fill-rule="nonzero"/></g></g><g fill="#1025a1" fill-opacity="1"><g transform="translate(86.332687, 67.218826)"><g><path d="M 6.96875 -16.765625 C 6.757812 -16.765625 6.5625 -16.71875 6.375 -16.625 C 6.1875 -16.539062 6.019531 -16.398438 5.875 -16.203125 C 5.738281 -16.003906 5.628906 -15.75 5.546875 -15.4375 C 5.460938 -15.125 5.421875 -14.753906 5.421875 -14.328125 L 5.421875 -11.546875 L 7.890625 -11.546875 L 7.890625 -10.734375 L 5.421875 -10.734375 L 5.421875 -1.84375 C 5.421875 -0.820312 5.285156 0.117188 5.015625 0.984375 C 4.753906 1.847656 4.351562 2.59375 3.8125 3.21875 C 3.269531 3.84375 2.59375 4.332031 1.78125 4.6875 C 0.96875 5.039062 0.0195312 5.21875 -1.0625 5.21875 C -1.445312 5.21875 -1.8125 5.1875 -2.15625 5.125 C -2.507812 5.0625 -2.820312 4.972656 -3.09375 4.859375 C -3.363281 4.742188 -3.578125 4.609375 -3.734375 4.453125 C -3.898438 4.304688 -3.984375 4.140625 -3.984375 3.953125 C -3.984375 3.816406 -3.960938 3.675781 -3.921875 3.53125 C -3.890625 3.394531 -3.835938 3.269531 -3.765625 3.15625 C -3.691406 3.039062 -3.597656 2.945312 -3.484375 2.875 C -3.378906 2.8125 -3.253906 2.78125 -3.109375 2.78125 C -3.023438 2.78125 -2.953125 2.816406 -2.890625 2.890625 C -2.828125 2.972656 -2.757812 3.078125 -2.6875 3.203125 C -2.625 3.328125 -2.546875 3.460938 -2.453125 3.609375 C -2.367188 3.753906 -2.257812 3.882812 -2.125 4 C -1.988281 4.125 -1.820312 4.226562 -1.625 4.3125 C -1.425781 4.394531 -1.1875 4.4375 -0.90625 4.4375 C -0.519531 4.4375 -0.179688 4.359375 0.109375 4.203125 C 0.398438 4.046875 0.648438 3.832031 0.859375 3.5625 C 1.078125 3.289062 1.253906 2.96875 1.390625 2.59375 C 1.535156 2.226562 1.648438 1.835938 1.734375 1.421875 C 1.816406 1.003906 1.875 0.5625 1.90625 0.09375 C 1.945312 -0.363281 1.96875 -0.820312 1.96875 -1.28125 L 1.96875 -10.734375 L -0.109375 -10.734375 L -0.109375 -11.546875 L 1.96875 -11.546875 L 1.96875 -12.859375 C 1.96875 -13.523438 2.046875 -14.101562 2.203125 -14.59375 C 2.367188 -15.082031 2.582031 -15.5 2.84375 -15.84375 C 3.113281 -16.195312 3.414062 -16.484375 3.75 -16.703125 C 4.09375 -16.921875 4.4375 -17.09375 4.78125 -17.21875 C 5.132812 -17.34375 5.472656 -17.425781 5.796875 -17.46875 C 6.128906 -17.519531 6.421875 -17.546875 6.671875 -17.546875 C 7.203125 -17.546875 7.675781 -17.503906 8.09375 -17.421875 C 8.507812 -17.347656 8.851562 -17.242188 9.125 -17.109375 C 9.40625 -16.984375 9.617188 -16.832031 9.765625 -16.65625 C 9.910156 -16.476562 9.984375 -16.300781 9.984375 -16.125 C 9.984375 -15.988281 9.960938 -15.847656 9.921875 -15.703125 C 9.878906 -15.566406 9.816406 -15.441406 9.734375 -15.328125 C 9.660156 -15.210938 9.566406 -15.117188 9.453125 -15.046875 C 9.347656 -14.972656 9.226562 -14.9375 9.09375 -14.9375 C 9.007812 -14.9375 8.929688 -14.984375 8.859375 -15.078125 C 8.796875 -15.171875 8.726562 -15.285156 8.65625 -15.421875 C 8.582031 -15.554688 8.5 -15.703125 8.40625 -15.859375 C 8.320312 -16.015625 8.210938 -16.160156 8.078125 -16.296875 C 7.941406 -16.429688 7.785156 -16.539062 7.609375 -16.625 C 7.429688 -16.71875 7.21875 -16.765625 6.96875 -16.765625 Z M 6.96875 -16.765625 "/></g></g></g><g fill="#1025a1" fill-opacity="1"><g transform="translate(93.867872, 67.218826)"><g><path d="M 0.6875 -5.78125 C 0.6875 -6.757812 0.828125 -7.617188 1.109375 -8.359375 C 1.398438 -9.097656 1.785156 -9.710938 2.265625 -10.203125 C 2.742188 -10.703125 3.296875 -11.078125 3.921875 -11.328125 C 4.554688 -11.578125 5.21875 -11.703125 5.90625 -11.703125 C 6.601562 -11.703125 7.265625 -11.585938 7.890625 -11.359375 C 8.523438 -11.128906 9.078125 -10.773438 9.546875 -10.296875 C 10.023438 -9.828125 10.40625 -9.226562 10.6875 -8.5 C 10.976562 -7.78125 11.125 -6.925781 11.125 -5.9375 C 11.125 -4.945312 10.976562 -4.070312 10.6875 -3.3125 C 10.40625 -2.550781 10.023438 -1.910156 9.546875 -1.390625 C 9.078125 -0.878906 8.523438 -0.488281 7.890625 -0.21875 C 7.265625 0.0507812 6.601562 0.1875 5.90625 0.1875 C 5.21875 0.1875 4.554688 0.0625 3.921875 -0.1875 C 3.296875 -0.445312 2.742188 -0.820312 2.265625 -1.3125 C 1.785156 -1.8125 1.398438 -2.429688 1.109375 -3.171875 C 0.828125 -3.921875 0.6875 -4.789062 0.6875 -5.78125 Z M 7.625 -5.890625 C 7.625 -6.484375 7.601562 -7.0625 7.5625 -7.625 C 7.519531 -8.1875 7.4375 -8.6875 7.3125 -9.125 C 7.195312 -9.5625 7.023438 -9.90625 6.796875 -10.15625 C 6.578125 -10.414062 6.28125 -10.546875 5.90625 -10.546875 C 5.539062 -10.546875 5.242188 -10.410156 5.015625 -10.140625 C 4.785156 -9.867188 4.609375 -9.507812 4.484375 -9.0625 C 4.367188 -8.613281 4.289062 -8.101562 4.25 -7.53125 C 4.21875 -6.957031 4.203125 -6.375 4.203125 -5.78125 C 4.203125 -5.175781 4.21875 -4.582031 4.25 -4 C 4.289062 -3.425781 4.367188 -2.914062 4.484375 -2.46875 C 4.609375 -2.019531 4.785156 -1.65625 5.015625 -1.375 C 5.242188 -1.101562 5.539062 -0.96875 5.90625 -0.96875 C 6.28125 -0.96875 6.578125 -1.109375 6.796875 -1.390625 C 7.023438 -1.679688 7.195312 -2.054688 7.3125 -2.515625 C 7.4375 -2.984375 7.519531 -3.507812 7.5625 -4.09375 C 7.601562 -4.6875 7.625 -5.285156 7.625 -5.890625 Z M 7.625 -5.890625 "/></g></g></g><g fill="#1025a1" fill-opacity="1"><g transform="translate(105.723069, 67.218826)"><g><path d="M 5 -9.328125 C 5.289062 -9.765625 5.597656 -10.160156 5.921875 -10.515625 C 6.054688 -10.660156 6.203125 -10.800781 6.359375 -10.9375 C 6.515625 -11.082031 6.675781 -11.210938 6.84375 -11.328125 C 7.019531 -11.441406 7.195312 -11.53125 7.375 -11.59375 C 7.550781 -11.664062 7.734375 -11.703125 7.921875 -11.703125 C 8.296875 -11.703125 8.59375 -11.585938 8.8125 -11.359375 C 9.03125 -11.128906 9.140625 -10.804688 9.140625 -10.390625 C 9.140625 -10.140625 9.117188 -9.894531 9.078125 -9.65625 C 9.035156 -9.414062 8.957031 -9.128906 8.84375 -8.796875 L 8.53125 -8.796875 C 8.476562 -9.023438 8.367188 -9.21875 8.203125 -9.375 C 8.046875 -9.53125 7.804688 -9.609375 7.484375 -9.609375 C 7.253906 -9.609375 7.023438 -9.5625 6.796875 -9.46875 C 6.578125 -9.382812 6.359375 -9.28125 6.140625 -9.15625 C 5.921875 -9.03125 5.71875 -8.890625 5.53125 -8.734375 C 5.34375 -8.585938 5.164062 -8.445312 5 -8.3125 L 5 -1 C 5 -0.894531 4.984375 -0.773438 4.953125 -0.640625 C 4.929688 -0.503906 4.859375 -0.375 4.734375 -0.25 C 4.617188 -0.132812 4.445312 -0.0351562 4.21875 0.046875 C 3.988281 0.140625 3.675781 0.1875 3.28125 0.1875 C 2.882812 0.1875 2.570312 0.140625 2.34375 0.046875 C 2.113281 -0.046875 1.9375 -0.15625 1.8125 -0.28125 C 1.695312 -0.414062 1.625 -0.550781 1.59375 -0.6875 C 1.5625 -0.820312 1.546875 -0.929688 1.546875 -1.015625 L 1.546875 -9.71875 C 1.546875 -9.9375 1.492188 -10.125 1.390625 -10.28125 C 1.285156 -10.445312 1.113281 -10.53125 0.875 -10.53125 C 0.75 -10.53125 0.640625 -10.503906 0.546875 -10.453125 C 0.460938 -10.410156 0.367188 -10.347656 0.265625 -10.265625 L 0.015625 -10.546875 C 0.191406 -10.691406 0.382812 -10.832031 0.59375 -10.96875 C 0.8125 -11.113281 1.046875 -11.238281 1.296875 -11.34375 C 1.546875 -11.445312 1.8125 -11.53125 2.09375 -11.59375 C 2.382812 -11.664062 2.6875 -11.703125 3 -11.703125 C 3.320312 -11.703125 3.597656 -11.660156 3.828125 -11.578125 C 4.054688 -11.492188 4.242188 -11.378906 4.390625 -11.234375 C 4.535156 -11.097656 4.648438 -10.941406 4.734375 -10.765625 C 4.816406 -10.597656 4.878906 -10.425781 4.921875 -10.25 C 4.960938 -10.070312 4.984375 -9.898438 4.984375 -9.734375 C 4.992188 -9.578125 5 -9.441406 5 -9.328125 Z M 5 -9.328125 "/></g></g></g><g fill="#1025a1" fill-opacity="1"><g transform="translate(114.916327, 67.218826)"><g><path d="M 11.046875 -1 C 11.046875 -0.894531 11.03125 -0.773438 11 -0.640625 C 10.96875 -0.503906 10.890625 -0.375 10.765625 -0.25 C 10.648438 -0.132812 10.476562 -0.0351562 10.25 0.046875 C 10.019531 0.140625 9.703125 0.1875 9.296875 0.1875 C 8.898438 0.1875 8.585938 0.140625 8.359375 0.046875 C 8.128906 -0.046875 7.957031 -0.15625 7.84375 -0.28125 C 7.726562 -0.414062 7.65625 -0.550781 7.625 -0.6875 C 7.59375 -0.820312 7.578125 -0.929688 7.578125 -1.015625 L 7.578125 -8.984375 C 7.578125 -9.085938 7.5625 -9.191406 7.53125 -9.296875 C 7.5 -9.410156 7.453125 -9.515625 7.390625 -9.609375 C 7.335938 -9.703125 7.265625 -9.773438 7.171875 -9.828125 C 7.078125 -9.878906 6.972656 -9.90625 6.859375 -9.90625 C 6.648438 -9.90625 6.445312 -9.847656 6.25 -9.734375 C 6.0625 -9.617188 5.878906 -9.484375 5.703125 -9.328125 C 5.535156 -9.179688 5.390625 -9.03125 5.265625 -8.875 C 5.140625 -8.726562 5.050781 -8.617188 5 -8.546875 L 5 -1 C 5 -0.894531 4.984375 -0.773438 4.953125 -0.640625 C 4.929688 -0.503906 4.859375 -0.375 4.734375 -0.25 C 4.617188 -0.132812 4.445312 -0.0351562 4.21875 0.046875 C 3.988281 0.140625 3.675781 0.1875 3.28125 0.1875 C 2.882812 0.1875 2.570312 0.140625 2.34375 0.046875 C 2.113281 -0.046875 1.9375 -0.15625 1.8125 -0.28125 C 1.695312 -0.414062 1.625 -0.550781 1.59375 -0.6875 C 1.5625 -0.820312 1.546875 -0.929688 1.546875 -1.015625 L 1.546875 -9.71875 C 1.546875 -9.9375 1.492188 -10.125 1.390625 -10.28125 C 1.285156 -10.445312 1.113281 -10.53125 0.875 -10.53125 C 0.75 -10.53125 0.640625 -10.503906 0.546875 -10.453125 C 0.460938 -10.410156 0.367188 -10.347656 0.265625 -10.265625 L 0.015625 -10.546875 C 0.191406 -10.691406 0.382812 -10.832031 0.59375 -10.96875 C 0.8125 -11.113281 1.046875 -11.238281 1.296875 -11.34375 C 1.546875 -11.445312 1.8125 -11.53125 2.09375 -11.59375 C 2.382812 -11.664062 2.6875 -11.703125 3 -11.703125 C 3.488281 -11.703125 3.867188 -11.617188 4.140625 -11.453125 C 4.410156 -11.296875 4.609375 -11.101562 4.734375 -10.875 C 4.859375 -10.65625 4.929688 -10.421875 4.953125 -10.171875 C 4.984375 -9.929688 5 -9.726562 5 -9.5625 C 5.351562 -9.957031 5.734375 -10.316406 6.140625 -10.640625 C 6.304688 -10.773438 6.488281 -10.90625 6.6875 -11.03125 C 6.882812 -11.15625 7.085938 -11.269531 7.296875 -11.375 C 7.515625 -11.476562 7.734375 -11.554688 7.953125 -11.609375 C 8.179688 -11.671875 8.410156 -11.703125 8.640625 -11.703125 C 9.078125 -11.703125 9.445312 -11.625 9.75 -11.46875 C 10.0625 -11.3125 10.3125 -11.117188 10.5 -10.890625 C 10.6875 -10.671875 10.820312 -10.4375 10.90625 -10.1875 C 11 -9.945312 11.046875 -9.738281 11.046875 -9.5625 C 11.398438 -9.957031 11.773438 -10.316406 12.171875 -10.640625 C 12.335938 -10.773438 12.519531 -10.90625 12.71875 -11.03125 C 12.914062 -11.15625 13.117188 -11.269531 13.328125 -11.375 C 13.546875 -11.476562 13.765625 -11.554688 13.984375 -11.609375 C 14.210938 -11.671875 14.4375 -11.703125 14.65625 -11.703125 C 15.09375 -11.703125 15.460938 -11.617188 15.765625 -11.453125 C 16.078125 -11.296875 16.328125 -11.085938 16.515625 -10.828125 C 16.703125 -10.566406 16.835938 -10.269531 16.921875 -9.9375 C 17.015625 -9.601562 17.0625 -9.269531 17.0625 -8.9375 L 17.0625 -1.96875 C 17.0625 -1.894531 17.0625 -1.816406 17.0625 -1.734375 C 17.070312 -1.660156 17.09375 -1.585938 17.125 -1.515625 C 17.15625 -1.441406 17.203125 -1.382812 17.265625 -1.34375 C 17.328125 -1.300781 17.410156 -1.28125 17.515625 -1.28125 C 17.660156 -1.28125 17.789062 -1.328125 17.90625 -1.421875 C 18.019531 -1.523438 18.125 -1.628906 18.21875 -1.734375 L 18.5 -1.5 C 18.382812 -1.34375 18.238281 -1.164062 18.0625 -0.96875 C 17.894531 -0.78125 17.691406 -0.597656 17.453125 -0.421875 C 17.222656 -0.253906 16.953125 -0.113281 16.640625 0 C 16.328125 0.125 15.972656 0.1875 15.578125 0.1875 C 15.253906 0.1875 14.96875 0.140625 14.71875 0.046875 C 14.476562 -0.0351562 14.269531 -0.148438 14.09375 -0.296875 C 13.925781 -0.441406 13.800781 -0.613281 13.71875 -0.8125 C 13.632812 -1.007812 13.59375 -1.222656 13.59375 -1.453125 L 13.59375 -8.984375 C 13.59375 -9.085938 13.578125 -9.191406 13.546875 -9.296875 C 13.523438 -9.410156 13.484375 -9.515625 13.421875 -9.609375 C 13.367188 -9.703125 13.296875 -9.773438 13.203125 -9.828125 C 13.109375 -9.878906 13.003906 -9.90625 12.890625 -9.90625 C 12.679688 -9.90625 12.476562 -9.847656 12.28125 -9.734375 C 12.082031 -9.617188 11.898438 -9.484375 11.734375 -9.328125 C 11.566406 -9.179688 11.421875 -9.03125 11.296875 -8.875 C 11.179688 -8.726562 11.097656 -8.617188 11.046875 -8.546875 Z M 11.046875 -1 "/></g></g></g><g fill="#1025a1" fill-opacity="1"><g transform="translate(133.561726, 67.218826)"><g><path d="M 6.484375 -5.84375 C 6.484375 -6.03125 6.421875 -6.171875 6.296875 -6.265625 C 6.179688 -6.367188 6.03125 -6.421875 5.84375 -6.421875 C 5.582031 -6.421875 5.332031 -6.359375 5.09375 -6.234375 C 4.851562 -6.117188 4.640625 -5.941406 4.453125 -5.703125 C 4.273438 -5.472656 4.132812 -5.1875 4.03125 -4.84375 C 3.925781 -4.5 3.875 -4.101562 3.875 -3.65625 C 3.875 -3.21875 3.90625 -2.851562 3.96875 -2.5625 C 4.039062 -2.28125 4.128906 -2.054688 4.234375 -1.890625 C 4.335938 -1.722656 4.460938 -1.601562 4.609375 -1.53125 C 4.753906 -1.46875 4.90625 -1.4375 5.0625 -1.4375 C 5.257812 -1.4375 5.441406 -1.484375 5.609375 -1.578125 C 5.785156 -1.679688 5.9375 -1.8125 6.0625 -1.96875 C 6.195312 -2.125 6.300781 -2.300781 6.375 -2.5 C 6.445312 -2.695312 6.484375 -2.894531 6.484375 -3.09375 Z M 4.6875 -10.78125 C 4.4375 -10.78125 4.203125 -10.75 3.984375 -10.6875 C 3.765625 -10.625 3.578125 -10.546875 3.421875 -10.453125 C 3.265625 -10.367188 3.140625 -10.269531 3.046875 -10.15625 C 2.953125 -10.050781 2.90625 -9.953125 2.90625 -9.859375 C 2.90625 -9.742188 2.960938 -9.660156 3.078125 -9.609375 C 3.203125 -9.566406 3.332031 -9.507812 3.46875 -9.4375 C 3.613281 -9.375 3.742188 -9.285156 3.859375 -9.171875 C 3.972656 -9.054688 4.03125 -8.878906 4.03125 -8.640625 C 4.03125 -8.484375 4 -8.335938 3.9375 -8.203125 C 3.875 -8.066406 3.785156 -7.945312 3.671875 -7.84375 C 3.566406 -7.75 3.441406 -7.671875 3.296875 -7.609375 C 3.148438 -7.554688 3 -7.53125 2.84375 -7.53125 C 2.414062 -7.53125 2.070312 -7.671875 1.8125 -7.953125 C 1.5625 -8.242188 1.4375 -8.625 1.4375 -9.09375 C 1.4375 -9.550781 1.554688 -9.941406 1.796875 -10.265625 C 2.035156 -10.597656 2.347656 -10.867188 2.734375 -11.078125 C 3.117188 -11.296875 3.554688 -11.453125 4.046875 -11.546875 C 4.535156 -11.648438 5.023438 -11.703125 5.515625 -11.703125 C 6.097656 -11.703125 6.65625 -11.640625 7.1875 -11.515625 C 7.726562 -11.390625 8.203125 -11.1875 8.609375 -10.90625 C 9.015625 -10.625 9.335938 -10.269531 9.578125 -9.84375 C 9.828125 -9.414062 9.953125 -8.894531 9.953125 -8.28125 L 9.953125 -1.921875 C 9.953125 -1.847656 9.957031 -1.769531 9.96875 -1.6875 C 9.976562 -1.601562 9.992188 -1.523438 10.015625 -1.453125 C 10.046875 -1.390625 10.09375 -1.335938 10.15625 -1.296875 C 10.21875 -1.253906 10.304688 -1.234375 10.421875 -1.234375 C 10.554688 -1.234375 10.679688 -1.28125 10.796875 -1.375 C 10.910156 -1.476562 11.015625 -1.582031 11.109375 -1.6875 L 11.390625 -1.453125 C 11.273438 -1.296875 11.140625 -1.125 10.984375 -0.9375 C 10.828125 -0.75 10.632812 -0.570312 10.40625 -0.40625 C 10.175781 -0.238281 9.910156 -0.0976562 9.609375 0.015625 C 9.316406 0.128906 8.976562 0.1875 8.59375 0.1875 C 8.113281 0.1875 7.691406 0.046875 7.328125 -0.234375 C 6.960938 -0.523438 6.722656 -0.960938 6.609375 -1.546875 C 6.367188 -1.222656 6.117188 -0.953125 5.859375 -0.734375 C 5.597656 -0.515625 5.332031 -0.335938 5.0625 -0.203125 C 4.789062 -0.0664062 4.515625 0.03125 4.234375 0.09375 C 3.960938 0.15625 3.691406 0.1875 3.421875 0.1875 C 3.054688 0.1875 2.703125 0.128906 2.359375 0.015625 C 2.023438 -0.0976562 1.722656 -0.273438 1.453125 -0.515625 C 1.191406 -0.765625 0.976562 -1.082031 0.8125 -1.46875 C 0.65625 -1.863281 0.578125 -2.34375 0.578125 -2.90625 C 0.578125 -3.59375 0.710938 -4.15625 0.984375 -4.59375 C 1.253906 -5.03125 1.609375 -5.394531 2.046875 -5.6875 C 2.484375 -5.988281 2.984375 -6.242188 3.546875 -6.453125 C 4.109375 -6.660156 4.679688 -6.878906 5.265625 -7.109375 C 5.703125 -7.285156 6.019531 -7.546875 6.21875 -7.890625 C 6.414062 -8.234375 6.515625 -8.582031 6.515625 -8.9375 C 6.515625 -9.5 6.347656 -9.945312 6.015625 -10.28125 C 5.691406 -10.613281 5.25 -10.78125 4.6875 -10.78125 Z M 4.6875 -10.78125 "/></g></g></g><g fill="#1025a1" fill-opacity="1"><g transform="translate(145.089818, 67.218826)"><g><path d="M 5.0625 -10.734375 L 5.0625 -2.40625 C 5.0625 -2 5.132812 -1.71875 5.28125 -1.5625 C 5.4375 -1.414062 5.644531 -1.34375 5.90625 -1.34375 C 6.113281 -1.34375 6.296875 -1.398438 6.453125 -1.515625 C 6.609375 -1.628906 6.742188 -1.753906 6.859375 -1.890625 C 6.992188 -2.046875 7.109375 -2.234375 7.203125 -2.453125 L 7.5625 -2.296875 C 7.445312 -2.046875 7.3125 -1.78125 7.15625 -1.5 C 7 -1.21875 6.789062 -0.953125 6.53125 -0.703125 C 6.28125 -0.460938 5.960938 -0.257812 5.578125 -0.09375 C 5.191406 0.0703125 4.703125 0.15625 4.109375 0.15625 C 3.785156 0.15625 3.46875 0.101562 3.15625 0 C 2.851562 -0.09375 2.582031 -0.242188 2.34375 -0.453125 C 2.113281 -0.660156 1.925781 -0.921875 1.78125 -1.234375 C 1.632812 -1.554688 1.5625 -1.9375 1.5625 -2.375 L 1.5625 -10.734375 L 0.296875 -10.734375 L 0.296875 -11.546875 C 0.515625 -11.546875 0.8125 -11.597656 1.1875 -11.703125 C 1.5625 -11.816406 1.945312 -12 2.34375 -12.25 C 2.738281 -12.507812 3.101562 -12.851562 3.4375 -13.28125 C 3.78125 -13.707031 4.019531 -14.238281 4.15625 -14.875 L 5.0625 -14.875 L 5.0625 -11.546875 L 6.90625 -11.546875 C 7.5 -11.546875 7.796875 -11.644531 7.796875 -11.84375 C 7.796875 -11.925781 7.757812 -11.976562 7.6875 -12 C 7.613281 -12.03125 7.53125 -12.066406 7.4375 -12.109375 C 7.34375 -12.148438 7.253906 -12.207031 7.171875 -12.28125 C 7.097656 -12.351562 7.0625 -12.476562 7.0625 -12.65625 C 7.0625 -12.863281 7.128906 -13.023438 7.265625 -13.140625 C 7.398438 -13.265625 7.570312 -13.328125 7.78125 -13.328125 C 7.914062 -13.328125 8.03125 -13.296875 8.125 -13.234375 C 8.226562 -13.179688 8.3125 -13.109375 8.375 -13.015625 C 8.445312 -12.921875 8.5 -12.8125 8.53125 -12.6875 C 8.570312 -12.570312 8.59375 -12.457031 8.59375 -12.34375 C 8.59375 -11.851562 8.453125 -11.460938 8.171875 -11.171875 C 7.890625 -10.878906 7.4375 -10.734375 6.8125 -10.734375 Z M 5.0625 -10.734375 "/></g></g></g><g fill="#1025a1" fill-opacity="1"><g transform="translate(152.895707, 67.218826)"><g><path d="M 5 -1.015625 C 5 -0.921875 4.984375 -0.800781 4.953125 -0.65625 C 4.921875 -0.519531 4.84375 -0.390625 4.71875 -0.265625 C 4.59375 -0.140625 4.410156 -0.0351562 4.171875 0.046875 C 3.941406 0.140625 3.628906 0.1875 3.234375 0.1875 C 2.835938 0.1875 2.523438 0.140625 2.296875 0.046875 C 2.078125 -0.046875 1.910156 -0.15625 1.796875 -0.28125 C 1.679688 -0.414062 1.609375 -0.550781 1.578125 -0.6875 C 1.554688 -0.820312 1.546875 -0.929688 1.546875 -1.015625 L 1.546875 -9.71875 C 1.546875 -9.9375 1.492188 -10.125 1.390625 -10.28125 C 1.285156 -10.445312 1.113281 -10.53125 0.875 -10.53125 C 0.75 -10.53125 0.640625 -10.503906 0.546875 -10.453125 C 0.460938 -10.410156 0.367188 -10.347656 0.265625 -10.265625 L 0.015625 -10.546875 C 0.191406 -10.691406 0.382812 -10.832031 0.59375 -10.96875 C 0.8125 -11.113281 1.046875 -11.238281 1.296875 -11.34375 C 1.546875 -11.445312 1.8125 -11.53125 2.09375 -11.59375 C 2.382812 -11.664062 2.6875 -11.703125 3 -11.703125 C 3.488281 -11.703125 3.867188 -11.632812 4.140625 -11.5 C 4.410156 -11.375 4.609375 -11.210938 4.734375 -11.015625 C 4.859375 -10.828125 4.929688 -10.625 4.953125 -10.40625 C 4.984375 -10.1875 5 -9.992188 5 -9.828125 Z M 1.1875 -14.28125 C 1.1875 -14.488281 1.234375 -14.6875 1.328125 -14.875 C 1.429688 -15.070312 1.566406 -15.238281 1.734375 -15.375 C 1.898438 -15.519531 2.09375 -15.632812 2.3125 -15.71875 C 2.539062 -15.800781 2.785156 -15.84375 3.046875 -15.84375 C 3.296875 -15.84375 3.53125 -15.800781 3.75 -15.71875 C 3.976562 -15.632812 4.175781 -15.519531 4.34375 -15.375 C 4.507812 -15.238281 4.640625 -15.070312 4.734375 -14.875 C 4.828125 -14.6875 4.875 -14.488281 4.875 -14.28125 C 4.875 -14.0625 4.828125 -13.859375 4.734375 -13.671875 C 4.640625 -13.484375 4.507812 -13.316406 4.34375 -13.171875 C 4.175781 -13.035156 3.976562 -12.925781 3.75 -12.84375 C 3.53125 -12.757812 3.296875 -12.71875 3.046875 -12.71875 C 2.785156 -12.71875 2.539062 -12.757812 2.3125 -12.84375 C 2.09375 -12.925781 1.898438 -13.035156 1.734375 -13.171875 C 1.566406 -13.316406 1.429688 -13.484375 1.328125 -13.671875 C 1.234375 -13.859375 1.1875 -14.0625 1.1875 -14.28125 Z M 1.1875 -14.28125 "/></g></g></g><g fill="#1025a1" fill-opacity="1"><g transform="translate(159.359347, 67.218826)"><g><path d="M 0.6875 -5.78125 C 0.6875 -6.757812 0.828125 -7.617188 1.109375 -8.359375 C 1.398438 -9.097656 1.785156 -9.710938 2.265625 -10.203125 C 2.742188 -10.703125 3.296875 -11.078125 3.921875 -11.328125 C 4.554688 -11.578125 5.21875 -11.703125 5.90625 -11.703125 C 6.601562 -11.703125 7.265625 -11.585938 7.890625 -11.359375 C 8.523438 -11.128906 9.078125 -10.773438 9.546875 -10.296875 C 10.023438 -9.828125 10.40625 -9.226562 10.6875 -8.5 C 10.976562 -7.78125 11.125 -6.925781 11.125 -5.9375 C 11.125 -4.945312 10.976562 -4.070312 10.6875 -3.3125 C 10.40625 -2.550781 10.023438 -1.910156 9.546875 -1.390625 C 9.078125 -0.878906 8.523438 -0.488281 7.890625 -0.21875 C 7.265625 0.0507812 6.601562 0.1875 5.90625 0.1875 C 5.21875 0.1875 4.554688 0.0625 3.921875 -0.1875 C 3.296875 -0.445312 2.742188 -0.820312 2.265625 -1.3125 C 1.785156 -1.8125 1.398438 -2.429688 1.109375 -3.171875 C 0.828125 -3.921875 0.6875 -4.789062 0.6875 -5.78125 Z M 7.625 -5.890625 C 7.625 -6.484375 7.601562 -7.0625 7.5625 -7.625 C 7.519531 -8.1875 7.4375 -8.6875 7.3125 -9.125 C 7.195312 -9.5625 7.023438 -9.90625 6.796875 -10.15625 C 6.578125 -10.414062 6.28125 -10.546875 5.90625 -10.546875 C 5.539062 -10.546875 5.242188 -10.410156 5.015625 -10.140625 C 4.785156 -9.867188 4.609375 -9.507812 4.484375 -9.0625 C 4.367188 -8.613281 4.289062 -8.101562 4.25 -7.53125 C 4.21875 -6.957031 4.203125 -6.375 4.203125 -5.78125 C 4.203125 -5.175781 4.21875 -4.582031 4.25 -4 C 4.289062 -3.425781 4.367188 -2.914062 4.484375 -2.46875 C 4.609375 -2.019531 4.785156 -1.65625 5.015625 -1.375 C 5.242188 -1.101562 5.539062 -0.96875 5.90625 -0.96875 C 6.28125 -0.96875 6.578125 -1.109375 6.796875 -1.390625 C 7.023438 -1.679688 7.195312 -2.054688 7.3125 -2.515625 C 7.4375 -2.984375 7.519531 -3.507812 7.5625 -4.09375 C 7.601562 -4.6875 7.625 -5.285156 7.625 -5.890625 Z M 7.625 -5.890625 "/></g></g></g><g fill="#1025a1" fill-opacity="1"><g transform="translate(171.214542, 67.218826)"><g><path d="M 8.046875 -5.609375 C 8.046875 -6.554688 8 -7.3125 7.90625 -7.875 C 7.820312 -8.445312 7.707031 -8.878906 7.5625 -9.171875 C 7.425781 -9.472656 7.269531 -9.671875 7.09375 -9.765625 C 6.914062 -9.859375 6.738281 -9.90625 6.5625 -9.90625 C 6.34375 -9.90625 6.148438 -9.847656 5.984375 -9.734375 C 5.816406 -9.617188 5.671875 -9.484375 5.546875 -9.328125 C 5.421875 -9.179688 5.3125 -9.03125 5.21875 -8.875 C 5.132812 -8.726562 5.0625 -8.617188 5 -8.546875 L 5 -1.015625 C 5 -0.921875 4.984375 -0.800781 4.953125 -0.65625 C 4.929688 -0.519531 4.859375 -0.390625 4.734375 -0.265625 C 4.617188 -0.140625 4.445312 -0.0351562 4.21875 0.046875 C 3.988281 0.140625 3.675781 0.1875 3.28125 0.1875 C 2.882812 0.1875 2.570312 0.140625 2.34375 0.046875 C 2.113281 -0.046875 1.9375 -0.15625 1.8125 -0.28125 C 1.695312 -0.414062 1.625 -0.550781 1.59375 -0.6875 C 1.5625 -0.820312 1.546875 -0.929688 1.546875 -1.015625 L 1.546875 -9.71875 C 1.546875 -9.9375 1.492188 -10.125 1.390625 -10.28125 C 1.285156 -10.445312 1.113281 -10.53125 0.875 -10.53125 C 0.75 -10.53125 0.640625 -10.503906 0.546875 -10.453125 C 0.460938 -10.410156 0.367188 -10.347656 0.265625 -10.265625 L 0.015625 -10.546875 C 0.191406 -10.691406 0.382812 -10.832031 0.59375 -10.96875 C 0.8125 -11.113281 1.046875 -11.238281 1.296875 -11.34375 C 1.546875 -11.445312 1.8125 -11.53125 2.09375 -11.59375 C 2.382812 -11.664062 2.6875 -11.703125 3 -11.703125 C 3.488281 -11.703125 3.867188 -11.617188 4.140625 -11.453125 C 4.410156 -11.296875 4.609375 -11.101562 4.734375 -10.875 C 4.859375 -10.65625 4.929688 -10.421875 4.953125 -10.171875 C 4.984375 -9.929688 5 -9.726562 5 -9.5625 C 5.28125 -9.957031 5.597656 -10.316406 5.953125 -10.640625 C 6.097656 -10.773438 6.257812 -10.90625 6.4375 -11.03125 C 6.613281 -11.15625 6.800781 -11.269531 7 -11.375 C 7.195312 -11.476562 7.40625 -11.554688 7.625 -11.609375 C 7.851562 -11.671875 8.082031 -11.703125 8.3125 -11.703125 C 8.820312 -11.703125 9.273438 -11.601562 9.671875 -11.40625 C 10.066406 -11.21875 10.398438 -10.894531 10.671875 -10.4375 C 10.941406 -9.976562 11.144531 -9.367188 11.28125 -8.609375 C 11.425781 -7.847656 11.5 -6.910156 11.5 -5.796875 C 11.5 -4.703125 11.398438 -3.753906 11.203125 -2.953125 C 11.015625 -2.148438 10.757812 -1.46875 10.4375 -0.90625 C 10.125 -0.34375 9.765625 0.113281 9.359375 0.46875 C 8.960938 0.832031 8.5625 1.113281 8.15625 1.3125 C 7.757812 1.519531 7.375 1.660156 7 1.734375 C 6.625 1.816406 6.300781 1.863281 6.03125 1.875 L 5.90625 1.40625 C 6.132812 1.351562 6.34375 1.269531 6.53125 1.15625 C 6.726562 1.050781 6.90625 0.890625 7.0625 0.671875 C 7.21875 0.453125 7.351562 0.175781 7.46875 -0.15625 C 7.59375 -0.5 7.695312 -0.921875 7.78125 -1.421875 C 7.875 -1.921875 7.941406 -2.515625 7.984375 -3.203125 C 8.023438 -3.890625 8.046875 -4.691406 8.046875 -5.609375 Z M 8.046875 -5.609375 "/></g></g></g></svg>