<svg xmlns="http://www.w3.org/2000/svg" xmlns:xlink="http://www.w3.org/1999/xlink" width="360" zoomAndPan="magnify" viewBox="0 0 270 119.999999" height="160" preserveAspectRatio="xMidYMid meet" version="1.0"><defs><g/><clipPath id="731961f9b6"><path d="M 133.433594 106.125 L 135.03125 106.125 L 135.03125 119.480469 L 133.433594 119.480469 Z M 133.433594 106.125 " clip-rule="nonzero"/></clipPath><clipPath id="ff1e65a655"><path d="M 133.433594 0 L 135.03125 0 L 135.03125 12.832031 L 133.433594 12.832031 Z M 133.433594 0 " clip-rule="nonzero"/></clipPath><clipPath id="e42c2ddaed"><path d="M 0 58.566406 L 30.035156 58.566406 L 30.035156 60.007812 L 0 60.007812 Z M 0 58.566406 " clip-rule="nonzero"/></clipPath><clipPath id="171dd3bdf2"><path d="M 239.941406 58.566406 L 269.988281 58.566406 L 269.988281 60.007812 L 239.941406 60.007812 Z M 239.941406 58.566406 " clip-rule="nonzero"/></clipPath><clipPath id="5bc1e6d998"><path d="M 66 98 L 75 98 L 75 111 L 66 111 Z M 66 98 " clip-rule="nonzero"/></clipPath><clipPath id="3eee3e31a2"><path d="M 74.976562 98.996094 L 67.917969 110.332031 L 66.523438 109.464844 L 73.582031 98.128906 Z M 74.976562 98.996094 " clip-rule="nonzero"/></clipPath><clipPath id="d69f9bc305"><path d="M 193 7 L 202 7 L 202 20 L 193 20 Z M 193 7 " clip-rule="nonzero"/></clipPath><clipPath id="9717a51723"><path d="M 201.832031 8.472656 L 194.773438 19.808594 L 193.378906 18.941406 L 200.4375 7.605469 Z M 201.832031 8.472656 " clip-rule="nonzero"/></clipPath><clipPath id="b072ef98f6"><path d="M 16 20 L 50 20 L 50 42 L 16 42 Z M 16 20 " clip-rule="nonzero"/></clipPath><clipPath id="ae34555f38"><path d="M 49.171875 41.882812 L 16.578125 21.585938 L 17.339844 20.363281 L 49.929688 40.664062 Z M 49.171875 41.882812 " clip-rule="nonzero"/></clipPath><clipPath id="690c28a47c"><path d="M 220 76 L 254 76 L 254 99 L 220 99 Z M 220 76 " clip-rule="nonzero"/></clipPath><clipPath id="002a7464be"><path d="M 252.847656 98.265625 L 220.257812 77.964844 L 221.019531 76.746094 L 253.609375 97.042969 Z M 252.847656 98.265625 " clip-rule="nonzero"/></clipPath><clipPath id="d3f820de30"><path d="M 13 75 L 47 75 L 47 96 L 13 96 Z M 13 75 " clip-rule="nonzero"/></clipPath><clipPath id="8ceabe253b"><path d="M 46.992188 76.835938 L 14.226562 95.207031 L 13.523438 93.953125 L 46.285156 75.578125 Z M 46.992188 76.835938 " clip-rule="nonzero"/></clipPath><clipPath id="a5f0710c0a"><path d="M 222 23 L 257 23 L 257 44 L 222 44 Z M 222 23 " clip-rule="nonzero"/></clipPath><clipPath id="4fbdd95e3b"><path d="M 256.285156 24.671875 L 223.519531 43.046875 L 222.816406 41.789062 L 255.578125 23.417969 Z M 256.285156 24.671875 " clip-rule="nonzero"/></clipPath><clipPath id="d1d43c532d"><path d="M 72 6 L 81 6 L 81 19 L 72 19 Z M 72 6 " clip-rule="nonzero"/></clipPath><clipPath id="fe8abd1e07"><path d="M 79.496094 18.828125 L 72.964844 7.183594 L 74.394531 6.378906 L 80.925781 18.027344 Z M 79.496094 18.828125 " clip-rule="nonzero"/></clipPath><clipPath id="cad43c5432"><path d="M 190 99 L 199 99 L 199 112 L 190 112 Z M 190 99 " clip-rule="nonzero"/></clipPath><clipPath id="747fee6956"><path d="M 196.859375 111.847656 L 190.328125 100.203125 L 191.757812 99.398438 L 198.289062 111.046875 Z M 196.859375 111.847656 " clip-rule="nonzero"/></clipPath></defs><rect x="-27" width="324" fill="#ffffff" y="-12" height="143.999998" fill-opacity="1"/><rect x="-27" width="324" fill="#ffffff" y="-12" height="143.999998" fill-opacity="1"/><g clip-path="url(#731961f9b6)"><path fill="#008000" d="M 139.5625 106.125 L 139.5625 119.472656 L 129.960938 119.472656 L 129.960938 106.125 Z M 139.5625 106.125 " fill-opacity="1" fill-rule="nonzero"/></g><g clip-path="url(#ff1e65a655)"><path fill="#008000" d="M 139.5625 -0.519531 L 139.5625 12.828125 L 129.960938 12.828125 L 129.960938 -0.519531 Z M 139.5625 -0.519531 " fill-opacity="1" fill-rule="nonzero"/></g><g clip-path="url(#e42c2ddaed)"><path fill="#008000" d="M 30.035156 64.085938 L 0 64.085938 L 0 54.488281 L 30.035156 54.488281 Z M 30.035156 64.085938 " fill-opacity="1" fill-rule="nonzero"/></g><g clip-path="url(#171dd3bdf2)"><path fill="#008000" d="M 269.988281 64.085938 L 239.957031 64.085938 L 239.957031 54.488281 L 269.988281 54.488281 Z M 269.988281 64.085938 " fill-opacity="1" fill-rule="nonzero"/></g><g clip-path="url(#5bc1e6d998)"><g clip-path="url(#3eee3e31a2)"><path fill="#008000" d="M 78.925781 101.457031 L 71.871094 112.789062 L 63.722656 107.710938 L 70.777344 96.382812 Z M 78.925781 101.457031 " fill-opacity="1" fill-rule="nonzero"/></g></g><g clip-path="url(#d69f9bc305)"><g clip-path="url(#9717a51723)"><path fill="#008000" d="M 205.78125 10.933594 L 198.726562 22.261719 L 190.578125 17.1875 L 197.636719 5.859375 Z M 205.78125 10.933594 " fill-opacity="1" fill-rule="nonzero"/></g></g><g clip-path="url(#b072ef98f6)"><g clip-path="url(#ae34555f38)"><path fill="#008000" d="M 47.011719 45.347656 L 14.421875 25.050781 L 19.496094 16.902344 L 52.085938 37.199219 Z M 47.011719 45.347656 " fill-opacity="1" fill-rule="nonzero"/></g></g><g clip-path="url(#690c28a47c)"><g clip-path="url(#002a7464be)"><path fill="#008000" d="M 250.691406 101.726562 L 218.101562 81.429688 L 223.175781 73.28125 L 255.765625 93.582031 Z M 250.691406 101.726562 " fill-opacity="1" fill-rule="nonzero"/></g></g><g clip-path="url(#d3f820de30)"><g clip-path="url(#8ceabe253b)"><path fill="#008000" d="M 48.984375 80.394531 L 16.214844 98.769531 L 11.523438 90.394531 L 44.292969 72.019531 Z M 48.984375 80.394531 " fill-opacity="1" fill-rule="nonzero"/></g></g><g clip-path="url(#a5f0710c0a)"><g clip-path="url(#4fbdd95e3b)"><path fill="#008000" d="M 258.277344 28.230469 L 225.511719 46.605469 L 220.816406 38.234375 L 253.585938 19.859375 Z M 258.277344 28.230469 " fill-opacity="1" fill-rule="nonzero"/></g></g><g clip-path="url(#d1d43c532d)"><g clip-path="url(#fe8abd1e07)"><path fill="#008000" d="M 75.445312 21.101562 L 68.917969 9.457031 L 77.289062 4.765625 L 83.816406 16.40625 Z M 75.445312 21.101562 " fill-opacity="1" fill-rule="nonzero"/></g></g><g clip-path="url(#cad43c5432)"><g clip-path="url(#747fee6956)"><path fill="#008000" d="M 192.808594 114.121094 L 186.277344 102.476562 L 194.652344 97.78125 L 201.179688 109.425781 Z M 192.808594 114.121094 " fill-opacity="1" fill-rule="nonzero"/></g></g><g fill="#1025a1" fill-opacity="1"><g transform="translate(50.791279, 67.218797)"><g><path d="M 7.671875 -6.125 C 7.671875 -6.207031 7.671875 -6.375 7.671875 -6.625 C 7.671875 -6.875 7.660156 -7.160156 7.640625 -7.484375 C 7.628906 -7.816406 7.601562 -8.164062 7.5625 -8.53125 C 7.53125 -8.90625 7.472656 -9.25 7.390625 -9.5625 C 7.203125 -9.789062 7 -10 6.78125 -10.1875 C 6.5625 -10.375 6.28125 -10.46875 5.9375 -10.46875 C 5.34375 -10.46875 4.910156 -10.082031 4.640625 -9.3125 C 4.367188 -8.539062 4.234375 -7.351562 4.234375 -5.75 C 4.234375 -5.039062 4.265625 -4.394531 4.328125 -3.8125 C 4.390625 -3.226562 4.484375 -2.722656 4.609375 -2.296875 C 4.742188 -1.878906 4.914062 -1.550781 5.125 -1.3125 C 5.332031 -1.082031 5.578125 -0.96875 5.859375 -0.96875 C 7.066406 -0.96875 7.671875 -2.6875 7.671875 -6.125 Z M 7.53125 -11.078125 C 7.382812 -11.835938 7.179688 -12.539062 6.921875 -13.1875 C 6.671875 -13.832031 6.367188 -14.390625 6.015625 -14.859375 C 5.660156 -15.335938 5.253906 -15.710938 4.796875 -15.984375 C 4.335938 -16.253906 3.847656 -16.390625 3.328125 -16.390625 C 3.023438 -16.390625 2.75 -16.351562 2.5 -16.28125 C 2.257812 -16.207031 2.046875 -16.117188 1.859375 -16.015625 C 1.679688 -15.910156 1.535156 -15.8125 1.421875 -15.71875 C 1.304688 -15.625 1.222656 -15.554688 1.171875 -15.515625 L 0.875 -15.90625 C 1.0625 -16.144531 1.28125 -16.363281 1.53125 -16.5625 C 1.789062 -16.769531 2.078125 -16.941406 2.390625 -17.078125 C 2.703125 -17.222656 3.023438 -17.335938 3.359375 -17.421875 C 3.703125 -17.503906 4.046875 -17.546875 4.390625 -17.546875 C 5.503906 -17.546875 6.476562 -17.300781 7.3125 -16.8125 C 8.15625 -16.332031 8.859375 -15.648438 9.421875 -14.765625 C 9.984375 -13.878906 10.40625 -12.804688 10.6875 -11.546875 C 10.976562 -10.285156 11.125 -8.890625 11.125 -7.359375 C 11.125 -6.117188 11 -5.03125 10.75 -4.09375 C 10.5 -3.15625 10.140625 -2.367188 9.671875 -1.734375 C 9.203125 -1.097656 8.632812 -0.617188 7.96875 -0.296875 C 7.3125 0.0234375 6.566406 0.1875 5.734375 0.1875 C 5.148438 0.1875 4.554688 0.0820312 3.953125 -0.125 C 3.359375 -0.332031 2.816406 -0.671875 2.328125 -1.140625 C 1.847656 -1.609375 1.453125 -2.21875 1.140625 -2.96875 C 0.835938 -3.726562 0.6875 -4.65625 0.6875 -5.75 C 0.6875 -6.695312 0.816406 -7.535156 1.078125 -8.265625 C 1.347656 -9.003906 1.707031 -9.628906 2.15625 -10.140625 C 2.613281 -10.648438 3.140625 -11.035156 3.734375 -11.296875 C 4.328125 -11.566406 4.953125 -11.703125 5.609375 -11.703125 C 5.867188 -11.703125 6.097656 -11.679688 6.296875 -11.640625 C 6.503906 -11.597656 6.679688 -11.546875 6.828125 -11.484375 C 6.984375 -11.429688 7.113281 -11.367188 7.21875 -11.296875 C 7.332031 -11.222656 7.4375 -11.148438 7.53125 -11.078125 Z M 7.53125 -11.078125 "/></g></g></g><g fill="#1025a1" fill-opacity="1"><g transform="translate(62.691593, 67.218797)"><g><path d="M 5 -1.015625 C 5 -0.921875 4.984375 -0.800781 4.953125 -0.65625 C 4.921875 -0.519531 4.84375 -0.390625 4.71875 -0.265625 C 4.59375 -0.140625 4.410156 -0.0351562 4.171875 0.046875 C 3.941406 0.140625 3.628906 0.1875 3.234375 0.1875 C 2.835938 0.1875 2.523438 0.140625 2.296875 0.046875 C 2.078125 -0.046875 1.910156 -0.15625 1.796875 -0.28125 C 1.679688 -0.414062 1.609375 -0.550781 1.578125 -0.6875 C 1.554688 -0.820312 1.546875 -0.929688 1.546875 -1.015625 L 1.546875 -9.71875 C 1.546875 -9.9375 1.492188 -10.125 1.390625 -10.28125 C 1.285156 -10.445312 1.113281 -10.53125 0.875 -10.53125 C 0.75 -10.53125 0.640625 -10.503906 0.546875 -10.453125 C 0.460938 -10.410156 0.367188 -10.347656 0.265625 -10.265625 L 0.015625 -10.546875 C 0.191406 -10.691406 0.382812 -10.832031 0.59375 -10.96875 C 0.8125 -11.113281 1.046875 -11.238281 1.296875 -11.34375 C 1.546875 -11.445312 1.8125 -11.53125 2.09375 -11.59375 C 2.382812 -11.664062 2.6875 -11.703125 3 -11.703125 C 3.488281 -11.703125 3.867188 -11.632812 4.140625 -11.5 C 4.410156 -11.375 4.609375 -11.210938 4.734375 -11.015625 C 4.859375 -10.828125 4.929688 -10.625 4.953125 -10.40625 C 4.984375 -10.1875 5 -9.992188 5 -9.828125 Z M 1.1875 -14.28125 C 1.1875 -14.488281 1.234375 -14.6875 1.328125 -14.875 C 1.429688 -15.070312 1.566406 -15.238281 1.734375 -15.375 C 1.898438 -15.519531 2.09375 -15.632812 2.3125 -15.71875 C 2.539062 -15.800781 2.785156 -15.84375 3.046875 -15.84375 C 3.296875 -15.84375 3.53125 -15.800781 3.75 -15.71875 C 3.976562 -15.632812 4.175781 -15.519531 4.34375 -15.375 C 4.507812 -15.238281 4.640625 -15.070312 4.734375 -14.875 C 4.828125 -14.6875 4.875 -14.488281 4.875 -14.28125 C 4.875 -14.0625 4.828125 -13.859375 4.734375 -13.671875 C 4.640625 -13.484375 4.507812 -13.316406 4.34375 -13.171875 C 4.175781 -13.035156 3.976562 -12.925781 3.75 -12.84375 C 3.53125 -12.757812 3.296875 -12.71875 3.046875 -12.71875 C 2.785156 -12.71875 2.539062 -12.757812 2.3125 -12.84375 C 2.09375 -12.925781 1.898438 -13.035156 1.734375 -13.171875 C 1.566406 -13.316406 1.429688 -13.484375 1.328125 -13.671875 C 1.234375 -13.859375 1.1875 -14.0625 1.1875 -14.28125 Z M 1.1875 -14.28125 "/></g></g></g><g fill="#1025a1" fill-opacity="1"><g transform="translate(69.155234, 67.218797)"><g><path d="M 0.921875 -7.09375 C 0.921875 -7.863281 1.050781 -8.535156 1.3125 -9.109375 C 1.582031 -9.679688 1.941406 -10.160156 2.390625 -10.546875 C 2.847656 -10.929688 3.375 -11.21875 3.96875 -11.40625 C 4.5625 -11.601562 5.1875 -11.703125 5.84375 -11.703125 C 6.5 -11.703125 7.117188 -11.613281 7.703125 -11.4375 C 8.285156 -11.269531 8.800781 -11.003906 9.25 -10.640625 C 9.394531 -10.859375 9.515625 -11.085938 9.609375 -11.328125 C 9.703125 -11.566406 9.75 -11.804688 9.75 -12.046875 C 9.75 -12.367188 9.660156 -12.625 9.484375 -12.8125 C 9.316406 -13 9.101562 -13.09375 8.84375 -13.09375 L 8.84375 -13.421875 C 9.007812 -13.472656 9.15625 -13.519531 9.28125 -13.5625 C 9.40625 -13.601562 9.519531 -13.632812 9.625 -13.65625 C 9.726562 -13.675781 9.832031 -13.691406 9.9375 -13.703125 C 10.050781 -13.710938 10.171875 -13.71875 10.296875 -13.71875 C 10.648438 -13.71875 10.921875 -13.609375 11.109375 -13.390625 C 11.296875 -13.171875 11.390625 -12.875 11.390625 -12.5 C 11.390625 -12.269531 11.335938 -12.039062 11.234375 -11.8125 C 11.128906 -11.59375 10.992188 -11.378906 10.828125 -11.171875 C 10.671875 -10.972656 10.5 -10.785156 10.3125 -10.609375 C 10.125 -10.429688 9.941406 -10.273438 9.765625 -10.140625 C 10.078125 -9.773438 10.316406 -9.351562 10.484375 -8.875 C 10.660156 -8.394531 10.75 -7.847656 10.75 -7.234375 C 10.75 -6.453125 10.613281 -5.765625 10.34375 -5.171875 C 10.082031 -4.578125 9.726562 -4.078125 9.28125 -3.671875 C 8.832031 -3.265625 8.3125 -2.957031 7.71875 -2.75 C 7.125 -2.550781 6.5 -2.453125 5.84375 -2.453125 C 5.457031 -2.453125 5.078125 -2.484375 4.703125 -2.546875 C 4.335938 -2.617188 3.992188 -2.71875 3.671875 -2.84375 C 3.554688 -2.75 3.453125 -2.632812 3.359375 -2.5 C 3.273438 -2.363281 3.234375 -2.210938 3.234375 -2.046875 C 3.234375 -1.773438 3.351562 -1.570312 3.59375 -1.4375 C 3.832031 -1.300781 4.148438 -1.203125 4.546875 -1.140625 C 4.953125 -1.078125 5.40625 -1.035156 5.90625 -1.015625 C 6.414062 -1.003906 6.929688 -0.984375 7.453125 -0.953125 C 7.984375 -0.921875 8.5 -0.859375 9 -0.765625 C 9.507812 -0.671875 9.960938 -0.515625 10.359375 -0.296875 C 10.753906 -0.0859375 11.070312 0.195312 11.3125 0.5625 C 11.5625 0.9375 11.6875 1.414062 11.6875 2 C 11.6875 2.4375 11.59375 2.820312 11.40625 3.15625 C 11.226562 3.5 10.988281 3.800781 10.6875 4.0625 C 10.382812 4.320312 10.03125 4.539062 9.625 4.71875 C 9.21875 4.90625 8.789062 5.054688 8.34375 5.171875 C 7.894531 5.296875 7.441406 5.382812 6.984375 5.4375 C 6.523438 5.488281 6.082031 5.515625 5.65625 5.515625 C 4.894531 5.515625 4.207031 5.472656 3.59375 5.390625 C 2.976562 5.316406 2.457031 5.195312 2.03125 5.03125 C 1.601562 4.863281 1.269531 4.644531 1.03125 4.375 C 0.800781 4.113281 0.6875 3.800781 0.6875 3.4375 C 0.6875 3.175781 0.742188 2.929688 0.859375 2.703125 C 0.984375 2.484375 1.144531 2.28125 1.34375 2.09375 C 1.539062 1.914062 1.765625 1.753906 2.015625 1.609375 C 2.265625 1.460938 2.519531 1.320312 2.78125 1.1875 C 2.394531 1.03125 2.078125 0.789062 1.828125 0.46875 C 1.578125 0.15625 1.453125 -0.265625 1.453125 -0.796875 C 1.453125 -1.066406 1.5 -1.320312 1.59375 -1.5625 C 1.695312 -1.800781 1.820312 -2.019531 1.96875 -2.21875 C 2.125 -2.414062 2.296875 -2.59375 2.484375 -2.75 C 2.671875 -2.914062 2.847656 -3.054688 3.015625 -3.171875 C 2.710938 -3.347656 2.429688 -3.566406 2.171875 -3.828125 C 1.910156 -4.085938 1.6875 -4.378906 1.5 -4.703125 C 1.320312 -5.035156 1.179688 -5.398438 1.078125 -5.796875 C 0.972656 -6.191406 0.921875 -6.625 0.921875 -7.09375 Z M 7.359375 -7.1875 C 7.359375 -7.625 7.335938 -8.046875 7.296875 -8.453125 C 7.253906 -8.867188 7.175781 -9.238281 7.0625 -9.5625 C 6.945312 -9.882812 6.789062 -10.144531 6.59375 -10.34375 C 6.394531 -10.539062 6.144531 -10.640625 5.84375 -10.640625 C 5.53125 -10.640625 5.273438 -10.535156 5.078125 -10.328125 C 4.890625 -10.128906 4.738281 -9.859375 4.625 -9.515625 C 4.507812 -9.179688 4.425781 -8.800781 4.375 -8.375 C 4.332031 -7.957031 4.3125 -7.53125 4.3125 -7.09375 C 4.3125 -6.644531 4.332031 -6.207031 4.375 -5.78125 C 4.425781 -5.351562 4.507812 -4.96875 4.625 -4.625 C 4.738281 -4.289062 4.890625 -4.019531 5.078125 -3.8125 C 5.273438 -3.601562 5.53125 -3.5 5.84375 -3.5 C 6.144531 -3.5 6.394531 -3.609375 6.59375 -3.828125 C 6.789062 -4.046875 6.945312 -4.328125 7.0625 -4.671875 C 7.175781 -5.023438 7.253906 -5.421875 7.296875 -5.859375 C 7.335938 -6.296875 7.359375 -6.738281 7.359375 -7.1875 Z M 9.078125 2.90625 C 9.078125 2.664062 8.984375 2.46875 8.796875 2.3125 C 8.609375 2.164062 8.359375 2.039062 8.046875 1.9375 C 7.742188 1.84375 7.398438 1.769531 7.015625 1.71875 C 6.628906 1.675781 6.238281 1.640625 5.84375 1.609375 C 5.445312 1.585938 5.054688 1.566406 4.671875 1.546875 C 4.296875 1.523438 3.972656 1.492188 3.703125 1.453125 C 3.546875 1.566406 3.390625 1.6875 3.234375 1.8125 C 3.085938 1.945312 2.957031 2.085938 2.84375 2.234375 C 2.738281 2.378906 2.648438 2.53125 2.578125 2.6875 C 2.515625 2.851562 2.484375 3.019531 2.484375 3.1875 C 2.484375 3.476562 2.566406 3.71875 2.734375 3.90625 C 2.898438 4.09375 3.125 4.242188 3.40625 4.359375 C 3.6875 4.472656 4.015625 4.550781 4.390625 4.59375 C 4.765625 4.644531 5.160156 4.671875 5.578125 4.671875 C 6.117188 4.671875 6.609375 4.625 7.046875 4.53125 C 7.484375 4.4375 7.851562 4.304688 8.15625 4.140625 C 8.457031 3.984375 8.6875 3.796875 8.84375 3.578125 C 9 3.367188 9.078125 3.144531 9.078125 2.90625 Z M 9.078125 2.90625 "/></g></g></g><g fill="#1025a1" fill-opacity="1"><g transform="translate(80.954035, 67.218797)"><g><path d="M 5 -1.015625 C 5 -0.921875 4.984375 -0.800781 4.953125 -0.65625 C 4.921875 -0.519531 4.84375 -0.390625 4.71875 -0.265625 C 4.59375 -0.140625 4.410156 -0.0351562 4.171875 0.046875 C 3.941406 0.140625 3.628906 0.1875 3.234375 0.1875 C 2.835938 0.1875 2.523438 0.140625 2.296875 0.046875 C 2.078125 -0.046875 1.910156 -0.15625 1.796875 -0.28125 C 1.679688 -0.414062 1.609375 -0.550781 1.578125 -0.6875 C 1.554688 -0.820312 1.546875 -0.929688 1.546875 -1.015625 L 1.546875 -9.71875 C 1.546875 -9.9375 1.492188 -10.125 1.390625 -10.28125 C 1.285156 -10.445312 1.113281 -10.53125 0.875 -10.53125 C 0.75 -10.53125 0.640625 -10.503906 0.546875 -10.453125 C 0.460938 -10.410156 0.367188 -10.347656 0.265625 -10.265625 L 0.015625 -10.546875 C 0.191406 -10.691406 0.382812 -10.832031 0.59375 -10.96875 C 0.8125 -11.113281 1.046875 -11.238281 1.296875 -11.34375 C 1.546875 -11.445312 1.8125 -11.53125 2.09375 -11.59375 C 2.382812 -11.664062 2.6875 -11.703125 3 -11.703125 C 3.488281 -11.703125 3.867188 -11.632812 4.140625 -11.5 C 4.410156 -11.375 4.609375 -11.210938 4.734375 -11.015625 C 4.859375 -10.828125 4.929688 -10.625 4.953125 -10.40625 C 4.984375 -10.1875 5 -9.992188 5 -9.828125 Z M 1.1875 -14.28125 C 1.1875 -14.488281 1.234375 -14.6875 1.328125 -14.875 C 1.429688 -15.070312 1.566406 -15.238281 1.734375 -15.375 C 1.898438 -15.519531 2.09375 -15.632812 2.3125 -15.71875 C 2.539062 -15.800781 2.785156 -15.84375 3.046875 -15.84375 C 3.296875 -15.84375 3.53125 -15.800781 3.75 -15.71875 C 3.976562 -15.632812 4.175781 -15.519531 4.34375 -15.375 C 4.507812 -15.238281 4.640625 -15.070312 4.734375 -14.875 C 4.828125 -14.6875 4.875 -14.488281 4.875 -14.28125 C 4.875 -14.0625 4.828125 -13.859375 4.734375 -13.671875 C 4.640625 -13.484375 4.507812 -13.316406 4.34375 -13.171875 C 4.175781 -13.035156 3.976562 -12.925781 3.75 -12.84375 C 3.53125 -12.757812 3.296875 -12.71875 3.046875 -12.71875 C 2.785156 -12.71875 2.539062 -12.757812 2.3125 -12.84375 C 2.09375 -12.925781 1.898438 -13.035156 1.734375 -13.171875 C 1.566406 -13.316406 1.429688 -13.484375 1.328125 -13.671875 C 1.234375 -13.859375 1.1875 -14.0625 1.1875 -14.28125 Z M 1.1875 -14.28125 "/></g></g></g><g fill="#1025a1" fill-opacity="1"><g transform="translate(87.417675, 67.218797)"><g><path d="M 5.0625 -10.734375 L 5.0625 -2.40625 C 5.0625 -2 5.132812 -1.71875 5.28125 -1.5625 C 5.4375 -1.414062 5.644531 -1.34375 5.90625 -1.34375 C 6.113281 -1.34375 6.296875 -1.398438 6.453125 -1.515625 C 6.609375 -1.628906 6.742188 -1.753906 6.859375 -1.890625 C 6.992188 -2.046875 7.109375 -2.234375 7.203125 -2.453125 L 7.5625 -2.296875 C 7.445312 -2.046875 7.3125 -1.78125 7.15625 -1.5 C 7 -1.21875 6.789062 -0.953125 6.53125 -0.703125 C 6.28125 -0.460938 5.960938 -0.257812 5.578125 -0.09375 C 5.191406 0.0703125 4.703125 0.15625 4.109375 0.15625 C 3.785156 0.15625 3.46875 0.101562 3.15625 0 C 2.851562 -0.09375 2.582031 -0.242188 2.34375 -0.453125 C 2.113281 -0.660156 1.925781 -0.921875 1.78125 -1.234375 C 1.632812 -1.554688 1.5625 -1.9375 1.5625 -2.375 L 1.5625 -10.734375 L 0.296875 -10.734375 L 0.296875 -11.546875 C 0.515625 -11.546875 0.8125 -11.597656 1.1875 -11.703125 C 1.5625 -11.816406 1.945312 -12 2.34375 -12.25 C 2.738281 -12.507812 3.101562 -12.851562 3.4375 -13.28125 C 3.78125 -13.707031 4.019531 -14.238281 4.15625 -14.875 L 5.0625 -14.875 L 5.0625 -11.546875 L 6.90625 -11.546875 C 7.5 -11.546875 7.796875 -11.644531 7.796875 -11.84375 C 7.796875 -11.925781 7.757812 -11.976562 7.6875 -12 C 7.613281 -12.03125 7.53125 -12.066406 7.4375 -12.109375 C 7.34375 -12.148438 7.253906 -12.207031 7.171875 -12.28125 C 7.097656 -12.351562 7.0625 -12.476562 7.0625 -12.65625 C 7.0625 -12.863281 7.128906 -13.023438 7.265625 -13.140625 C 7.398438 -13.265625 7.570312 -13.328125 7.78125 -13.328125 C 7.914062 -13.328125 8.03125 -13.296875 8.125 -13.234375 C 8.226562 -13.179688 8.3125 -13.109375 8.375 -13.015625 C 8.445312 -12.921875 8.5 -12.8125 8.53125 -12.6875 C 8.570312 -12.570312 8.59375 -12.457031 8.59375 -12.34375 C 8.59375 -11.851562 8.453125 -11.460938 8.171875 -11.171875 C 7.890625 -10.878906 7.4375 -10.734375 6.8125 -10.734375 Z M 5.0625 -10.734375 "/></g></g></g><g fill="#1025a1" fill-opacity="1"><g transform="translate(95.223564, 67.218797)"><g><path d="M 6.484375 -5.84375 C 6.484375 -6.03125 6.421875 -6.171875 6.296875 -6.265625 C 6.179688 -6.367188 6.03125 -6.421875 5.84375 -6.421875 C 5.582031 -6.421875 5.332031 -6.359375 5.09375 -6.234375 C 4.851562 -6.117188 4.640625 -5.941406 4.453125 -5.703125 C 4.273438 -5.472656 4.132812 -5.1875 4.03125 -4.84375 C 3.925781 -4.5 3.875 -4.101562 3.875 -3.65625 C 3.875 -3.21875 3.90625 -2.851562 3.96875 -2.5625 C 4.039062 -2.28125 4.128906 -2.054688 4.234375 -1.890625 C 4.335938 -1.722656 4.460938 -1.601562 4.609375 -1.53125 C 4.753906 -1.46875 4.90625 -1.4375 5.0625 -1.4375 C 5.257812 -1.4375 5.441406 -1.484375 5.609375 -1.578125 C 5.785156 -1.679688 5.9375 -1.8125 6.0625 -1.96875 C 6.195312 -2.125 6.300781 -2.300781 6.375 -2.5 C 6.445312 -2.695312 6.484375 -2.894531 6.484375 -3.09375 Z M 4.6875 -10.78125 C 4.4375 -10.78125 4.203125 -10.75 3.984375 -10.6875 C 3.765625 -10.625 3.578125 -10.546875 3.421875 -10.453125 C 3.265625 -10.367188 3.140625 -10.269531 3.046875 -10.15625 C 2.953125 -10.050781 2.90625 -9.953125 2.90625 -9.859375 C 2.90625 -9.742188 2.960938 -9.660156 3.078125 -9.609375 C 3.203125 -9.566406 3.332031 -9.507812 3.46875 -9.4375 C 3.613281 -9.375 3.742188 -9.285156 3.859375 -9.171875 C 3.972656 -9.054688 4.03125 -8.878906 4.03125 -8.640625 C 4.03125 -8.484375 4 -8.335938 3.9375 -8.203125 C 3.875 -8.066406 3.785156 -7.945312 3.671875 -7.84375 C 3.566406 -7.75 3.441406 -7.671875 3.296875 -7.609375 C 3.148438 -7.554688 3 -7.53125 2.84375 -7.53125 C 2.414062 -7.53125 2.070312 -7.671875 1.8125 -7.953125 C 1.5625 -8.242188 1.4375 -8.625 1.4375 -9.09375 C 1.4375 -9.550781 1.554688 -9.941406 1.796875 -10.265625 C 2.035156 -10.597656 2.347656 -10.867188 2.734375 -11.078125 C 3.117188 -11.296875 3.554688 -11.453125 4.046875 -11.546875 C 4.535156 -11.648438 5.023438 -11.703125 5.515625 -11.703125 C 6.097656 -11.703125 6.65625 -11.640625 7.1875 -11.515625 C 7.726562 -11.390625 8.203125 -11.1875 8.609375 -10.90625 C 9.015625 -10.625 9.335938 -10.269531 9.578125 -9.84375 C 9.828125 -9.414062 9.953125 -8.894531 9.953125 -8.28125 L 9.953125 -1.921875 C 9.953125 -1.847656 9.957031 -1.769531 9.96875 -1.6875 C 9.976562 -1.601562 9.992188 -1.523438 10.015625 -1.453125 C 10.046875 -1.390625 10.09375 -1.335938 10.15625 -1.296875 C 10.21875 -1.253906 10.304688 -1.234375 10.421875 -1.234375 C 10.554688 -1.234375 10.679688 -1.28125 10.796875 -1.375 C 10.910156 -1.476562 11.015625 -1.582031 11.109375 -1.6875 L 11.390625 -1.453125 C 11.273438 -1.296875 11.140625 -1.125 10.984375 -0.9375 C 10.828125 -0.75 10.632812 -0.570312 10.40625 -0.40625 C 10.175781 -0.238281 9.910156 -0.0976562 9.609375 0.015625 C 9.316406 0.128906 8.976562 0.1875 8.59375 0.1875 C 8.113281 0.1875 7.691406 0.046875 7.328125 -0.234375 C 6.960938 -0.523438 6.722656 -0.960938 6.609375 -1.546875 C 6.367188 -1.222656 6.117188 -0.953125 5.859375 -0.734375 C 5.597656 -0.515625 5.332031 -0.335938 5.0625 -0.203125 C 4.789062 -0.0664062 4.515625 0.03125 4.234375 0.09375 C 3.960938 0.15625 3.691406 0.1875 3.421875 0.1875 C 3.054688 0.1875 2.703125 0.128906 2.359375 0.015625 C 2.023438 -0.0976562 1.722656 -0.273438 1.453125 -0.515625 C 1.191406 -0.765625 0.976562 -1.082031 0.8125 -1.46875 C 0.65625 -1.863281 0.578125 -2.34375 0.578125 -2.90625 C 0.578125 -3.59375 0.710938 -4.15625 0.984375 -4.59375 C 1.253906 -5.03125 1.609375 -5.394531 2.046875 -5.6875 C 2.484375 -5.988281 2.984375 -6.242188 3.546875 -6.453125 C 4.109375 -6.660156 4.679688 -6.878906 5.265625 -7.109375 C 5.703125 -7.285156 6.019531 -7.546875 6.21875 -7.890625 C 6.414062 -8.234375 6.515625 -8.582031 6.515625 -8.9375 C 6.515625 -9.5 6.347656 -9.945312 6.015625 -10.28125 C 5.691406 -10.613281 5.25 -10.78125 4.6875 -10.78125 Z M 4.6875 -10.78125 "/></g></g></g><g fill="#1025a1" fill-opacity="1"><g transform="translate(106.751656, 67.218797)"><g><path d="M 4.890625 -1 C 4.890625 -0.894531 4.875 -0.773438 4.84375 -0.640625 C 4.8125 -0.503906 4.734375 -0.375 4.609375 -0.25 C 4.484375 -0.132812 4.300781 -0.0351562 4.0625 0.046875 C 3.820312 0.140625 3.503906 0.1875 3.109375 0.1875 C 2.710938 0.1875 2.398438 0.140625 2.171875 0.046875 C 1.953125 -0.046875 1.785156 -0.15625 1.671875 -0.28125 C 1.566406 -0.414062 1.5 -0.550781 1.46875 -0.6875 C 1.445312 -0.820312 1.4375 -0.929688 1.4375 -1.015625 L 1.4375 -15.5625 C 1.4375 -15.78125 1.382812 -15.96875 1.28125 -16.125 C 1.175781 -16.289062 1.003906 -16.375 0.765625 -16.375 C 0.640625 -16.375 0.53125 -16.351562 0.4375 -16.3125 C 0.34375 -16.269531 0.242188 -16.207031 0.140625 -16.125 L -0.09375 -16.390625 C 0.0820312 -16.535156 0.273438 -16.675781 0.484375 -16.8125 C 0.691406 -16.957031 0.921875 -17.082031 1.171875 -17.1875 C 1.429688 -17.289062 1.703125 -17.375 1.984375 -17.4375 C 2.265625 -17.507812 2.566406 -17.546875 2.890625 -17.546875 C 3.378906 -17.546875 3.757812 -17.476562 4.03125 -17.34375 C 4.300781 -17.21875 4.5 -17.054688 4.625 -16.859375 C 4.75 -16.671875 4.820312 -16.46875 4.84375 -16.25 C 4.875 -16.039062 4.890625 -15.851562 4.890625 -15.6875 Z M 4.890625 -1 "/></g></g></g><g fill="#1025a1" fill-opacity="1"><g transform="translate(113.102502, 67.218797)"><g/></g></g><g fill="#1025a1" fill-opacity="1"><g transform="translate(118.325407, 67.218797)"><g><path d="M 11.046875 -1 C 11.046875 -0.894531 11.03125 -0.773438 11 -0.640625 C 10.96875 -0.503906 10.890625 -0.375 10.765625 -0.25 C 10.648438 -0.132812 10.476562 -0.0351562 10.25 0.046875 C 10.019531 0.140625 9.703125 0.1875 9.296875 0.1875 C 8.898438 0.1875 8.585938 0.140625 8.359375 0.046875 C 8.128906 -0.046875 7.957031 -0.15625 7.84375 -0.28125 C 7.726562 -0.414062 7.65625 -0.550781 7.625 -0.6875 C 7.59375 -0.820312 7.578125 -0.929688 7.578125 -1.015625 L 7.578125 -8.984375 C 7.578125 -9.085938 7.5625 -9.191406 7.53125 -9.296875 C 7.5 -9.410156 7.453125 -9.515625 7.390625 -9.609375 C 7.335938 -9.703125 7.265625 -9.773438 7.171875 -9.828125 C 7.078125 -9.878906 6.972656 -9.90625 6.859375 -9.90625 C 6.648438 -9.90625 6.445312 -9.847656 6.25 -9.734375 C 6.0625 -9.617188 5.878906 -9.484375 5.703125 -9.328125 C 5.535156 -9.179688 5.390625 -9.03125 5.265625 -8.875 C 5.140625 -8.726562 5.050781 -8.617188 5 -8.546875 L 5 -1 C 5 -0.894531 4.984375 -0.773438 4.953125 -0.640625 C 4.929688 -0.503906 4.859375 -0.375 4.734375 -0.25 C 4.617188 -0.132812 4.445312 -0.0351562 4.21875 0.046875 C 3.988281 0.140625 3.675781 0.1875 3.28125 0.1875 C 2.882812 0.1875 2.570312 0.140625 2.34375 0.046875 C 2.113281 -0.046875 1.9375 -0.15625 1.8125 -0.28125 C 1.695312 -0.414062 1.625 -0.550781 1.59375 -0.6875 C 1.5625 -0.820312 1.546875 -0.929688 1.546875 -1.015625 L 1.546875 -9.71875 C 1.546875 -9.9375 1.492188 -10.125 1.390625 -10.28125 C 1.285156 -10.445312 1.113281 -10.53125 0.875 -10.53125 C 0.75 -10.53125 0.640625 -10.503906 0.546875 -10.453125 C 0.460938 -10.410156 0.367188 -10.347656 0.265625 -10.265625 L 0.015625 -10.546875 C 0.191406 -10.691406 0.382812 -10.832031 0.59375 -10.96875 C 0.8125 -11.113281 1.046875 -11.238281 1.296875 -11.34375 C 1.546875 -11.445312 1.8125 -11.53125 2.09375 -11.59375 C 2.382812 -11.664062 2.6875 -11.703125 3 -11.703125 C 3.488281 -11.703125 3.867188 -11.617188 4.140625 -11.453125 C 4.410156 -11.296875 4.609375 -11.101562 4.734375 -10.875 C 4.859375 -10.65625 4.929688 -10.421875 4.953125 -10.171875 C 4.984375 -9.929688 5 -9.726562 5 -9.5625 C 5.351562 -9.957031 5.734375 -10.316406 6.140625 -10.640625 C 6.304688 -10.773438 6.488281 -10.90625 6.6875 -11.03125 C 6.882812 -11.15625 7.085938 -11.269531 7.296875 -11.375 C 7.515625 -11.476562 7.734375 -11.554688 7.953125 -11.609375 C 8.179688 -11.671875 8.410156 -11.703125 8.640625 -11.703125 C 9.078125 -11.703125 9.445312 -11.625 9.75 -11.46875 C 10.0625 -11.3125 10.3125 -11.117188 10.5 -10.890625 C 10.6875 -10.671875 10.820312 -10.4375 10.90625 -10.1875 C 11 -9.945312 11.046875 -9.738281 11.046875 -9.5625 C 11.398438 -9.957031 11.773438 -10.316406 12.171875 -10.640625 C 12.335938 -10.773438 12.519531 -10.90625 12.71875 -11.03125 C 12.914062 -11.15625 13.117188 -11.269531 13.328125 -11.375 C 13.546875 -11.476562 13.765625 -11.554688 13.984375 -11.609375 C 14.210938 -11.671875 14.4375 -11.703125 14.65625 -11.703125 C 15.09375 -11.703125 15.460938 -11.617188 15.765625 -11.453125 C 16.078125 -11.296875 16.328125 -11.085938 16.515625 -10.828125 C 16.703125 -10.566406 16.835938 -10.269531 16.921875 -9.9375 C 17.015625 -9.601562 17.0625 -9.269531 17.0625 -8.9375 L 17.0625 -1.96875 C 17.0625 -1.894531 17.0625 -1.816406 17.0625 -1.734375 C 17.070312 -1.660156 17.09375 -1.585938 17.125 -1.515625 C 17.15625 -1.441406 17.203125 -1.382812 17.265625 -1.34375 C 17.328125 -1.300781 17.410156 -1.28125 17.515625 -1.28125 C 17.660156 -1.28125 17.789062 -1.328125 17.90625 -1.421875 C 18.019531 -1.523438 18.125 -1.628906 18.21875 -1.734375 L 18.5 -1.5 C 18.382812 -1.34375 18.238281 -1.164062 18.0625 -0.96875 C 17.894531 -0.78125 17.691406 -0.597656 17.453125 -0.421875 C 17.222656 -0.253906 16.953125 -0.113281 16.640625 0 C 16.328125 0.125 15.972656 0.1875 15.578125 0.1875 C 15.253906 0.1875 14.96875 0.140625 14.71875 0.046875 C 14.476562 -0.0351562 14.269531 -0.148438 14.09375 -0.296875 C 13.925781 -0.441406 13.800781 -0.613281 13.71875 -0.8125 C 13.632812 -1.007812 13.59375 -1.222656 13.59375 -1.453125 L 13.59375 -8.984375 C 13.59375 -9.085938 13.578125 -9.191406 13.546875 -9.296875 C 13.523438 -9.410156 13.484375 -9.515625 13.421875 -9.609375 C 13.367188 -9.703125 13.296875 -9.773438 13.203125 -9.828125 C 13.109375 -9.878906 13.003906 -9.90625 12.890625 -9.90625 C 12.679688 -9.90625 12.476562 -9.847656 12.28125 -9.734375 C 12.082031 -9.617188 11.898438 -9.484375 11.734375 -9.328125 C 11.566406 -9.179688 11.421875 -9.03125 11.296875 -8.875 C 11.179688 -8.726562 11.097656 -8.617188 11.046875 -8.546875 Z M 11.046875 -1 "/></g></g></g><g fill="#1025a1" fill-opacity="1"><g transform="translate(136.970805, 67.218797)"><g><path d="M 6.484375 -5.84375 C 6.484375 -6.03125 6.421875 -6.171875 6.296875 -6.265625 C 6.179688 -6.367188 6.03125 -6.421875 5.84375 -6.421875 C 5.582031 -6.421875 5.332031 -6.359375 5.09375 -6.234375 C 4.851562 -6.117188 4.640625 -5.941406 4.453125 -5.703125 C 4.273438 -5.472656 4.132812 -5.1875 4.03125 -4.84375 C 3.925781 -4.5 3.875 -4.101562 3.875 -3.65625 C 3.875 -3.21875 3.90625 -2.851562 3.96875 -2.5625 C 4.039062 -2.28125 4.128906 -2.054688 4.234375 -1.890625 C 4.335938 -1.722656 4.460938 -1.601562 4.609375 -1.53125 C 4.753906 -1.46875 4.90625 -1.4375 5.0625 -1.4375 C 5.257812 -1.4375 5.441406 -1.484375 5.609375 -1.578125 C 5.785156 -1.679688 5.9375 -1.8125 6.0625 -1.96875 C 6.195312 -2.125 6.300781 -2.300781 6.375 -2.5 C 6.445312 -2.695312 6.484375 -2.894531 6.484375 -3.09375 Z M 4.6875 -10.78125 C 4.4375 -10.78125 4.203125 -10.75 3.984375 -10.6875 C 3.765625 -10.625 3.578125 -10.546875 3.421875 -10.453125 C 3.265625 -10.367188 3.140625 -10.269531 3.046875 -10.15625 C 2.953125 -10.050781 2.90625 -9.953125 2.90625 -9.859375 C 2.90625 -9.742188 2.960938 -9.660156 3.078125 -9.609375 C 3.203125 -9.566406 3.332031 -9.507812 3.46875 -9.4375 C 3.613281 -9.375 3.742188 -9.285156 3.859375 -9.171875 C 3.972656 -9.054688 4.03125 -8.878906 4.03125 -8.640625 C 4.03125 -8.484375 4 -8.335938 3.9375 -8.203125 C 3.875 -8.066406 3.785156 -7.945312 3.671875 -7.84375 C 3.566406 -7.75 3.441406 -7.671875 3.296875 -7.609375 C 3.148438 -7.554688 3 -7.53125 2.84375 -7.53125 C 2.414062 -7.53125 2.070312 -7.671875 1.8125 -7.953125 C 1.5625 -8.242188 1.4375 -8.625 1.4375 -9.09375 C 1.4375 -9.550781 1.554688 -9.941406 1.796875 -10.265625 C 2.035156 -10.597656 2.347656 -10.867188 2.734375 -11.078125 C 3.117188 -11.296875 3.554688 -11.453125 4.046875 -11.546875 C 4.535156 -11.648438 5.023438 -11.703125 5.515625 -11.703125 C 6.097656 -11.703125 6.65625 -11.640625 7.1875 -11.515625 C 7.726562 -11.390625 8.203125 -11.1875 8.609375 -10.90625 C 9.015625 -10.625 9.335938 -10.269531 9.578125 -9.84375 C 9.828125 -9.414062 9.953125 -8.894531 9.953125 -8.28125 L 9.953125 -1.921875 C 9.953125 -1.847656 9.957031 -1.769531 9.96875 -1.6875 C 9.976562 -1.601562 9.992188 -1.523438 10.015625 -1.453125 C 10.046875 -1.390625 10.09375 -1.335938 10.15625 -1.296875 C 10.21875 -1.253906 10.304688 -1.234375 10.421875 -1.234375 C 10.554688 -1.234375 10.679688 -1.28125 10.796875 -1.375 C 10.910156 -1.476562 11.015625 -1.582031 11.109375 -1.6875 L 11.390625 -1.453125 C 11.273438 -1.296875 11.140625 -1.125 10.984375 -0.9375 C 10.828125 -0.75 10.632812 -0.570312 10.40625 -0.40625 C 10.175781 -0.238281 9.910156 -0.0976562 9.609375 0.015625 C 9.316406 0.128906 8.976562 0.1875 8.59375 0.1875 C 8.113281 0.1875 7.691406 0.046875 7.328125 -0.234375 C 6.960938 -0.523438 6.722656 -0.960938 6.609375 -1.546875 C 6.367188 -1.222656 6.117188 -0.953125 5.859375 -0.734375 C 5.597656 -0.515625 5.332031 -0.335938 5.0625 -0.203125 C 4.789062 -0.0664062 4.515625 0.03125 4.234375 0.09375 C 3.960938 0.15625 3.691406 0.1875 3.421875 0.1875 C 3.054688 0.1875 2.703125 0.128906 2.359375 0.015625 C 2.023438 -0.0976562 1.722656 -0.273438 1.453125 -0.515625 C 1.191406 -0.765625 0.976562 -1.082031 0.8125 -1.46875 C 0.65625 -1.863281 0.578125 -2.34375 0.578125 -2.90625 C 0.578125 -3.59375 0.710938 -4.15625 0.984375 -4.59375 C 1.253906 -5.03125 1.609375 -5.394531 2.046875 -5.6875 C 2.484375 -5.988281 2.984375 -6.242188 3.546875 -6.453125 C 4.109375 -6.660156 4.679688 -6.878906 5.265625 -7.109375 C 5.703125 -7.285156 6.019531 -7.546875 6.21875 -7.890625 C 6.414062 -8.234375 6.515625 -8.582031 6.515625 -8.9375 C 6.515625 -9.5 6.347656 -9.945312 6.015625 -10.28125 C 5.691406 -10.613281 5.25 -10.78125 4.6875 -10.78125 Z M 4.6875 -10.78125 "/></g></g></g><g fill="#1025a1" fill-opacity="1"><g transform="translate(148.498903, 67.218797)"><g><path d="M 5 -9.328125 C 5.289062 -9.765625 5.597656 -10.160156 5.921875 -10.515625 C 6.054688 -10.660156 6.203125 -10.800781 6.359375 -10.9375 C 6.515625 -11.082031 6.675781 -11.210938 6.84375 -11.328125 C 7.019531 -11.441406 7.195312 -11.53125 7.375 -11.59375 C 7.550781 -11.664062 7.734375 -11.703125 7.921875 -11.703125 C 8.296875 -11.703125 8.59375 -11.585938 8.8125 -11.359375 C 9.03125 -11.128906 9.140625 -10.804688 9.140625 -10.390625 C 9.140625 -10.140625 9.117188 -9.894531 9.078125 -9.65625 C 9.035156 -9.414062 8.957031 -9.128906 8.84375 -8.796875 L 8.53125 -8.796875 C 8.476562 -9.023438 8.367188 -9.21875 8.203125 -9.375 C 8.046875 -9.53125 7.804688 -9.609375 7.484375 -9.609375 C 7.253906 -9.609375 7.023438 -9.5625 6.796875 -9.46875 C 6.578125 -9.382812 6.359375 -9.28125 6.140625 -9.15625 C 5.921875 -9.03125 5.71875 -8.890625 5.53125 -8.734375 C 5.34375 -8.585938 5.164062 -8.445312 5 -8.3125 L 5 -1 C 5 -0.894531 4.984375 -0.773438 4.953125 -0.640625 C 4.929688 -0.503906 4.859375 -0.375 4.734375 -0.25 C 4.617188 -0.132812 4.445312 -0.0351562 4.21875 0.046875 C 3.988281 0.140625 3.675781 0.1875 3.28125 0.1875 C 2.882812 0.1875 2.570312 0.140625 2.34375 0.046875 C 2.113281 -0.046875 1.9375 -0.15625 1.8125 -0.28125 C 1.695312 -0.414062 1.625 -0.550781 1.59375 -0.6875 C 1.5625 -0.820312 1.546875 -0.929688 1.546875 -1.015625 L 1.546875 -9.71875 C 1.546875 -9.9375 1.492188 -10.125 1.390625 -10.28125 C 1.285156 -10.445312 1.113281 -10.53125 0.875 -10.53125 C 0.75 -10.53125 0.640625 -10.503906 0.546875 -10.453125 C 0.460938 -10.410156 0.367188 -10.347656 0.265625 -10.265625 L 0.015625 -10.546875 C 0.191406 -10.691406 0.382812 -10.832031 0.59375 -10.96875 C 0.8125 -11.113281 1.046875 -11.238281 1.296875 -11.34375 C 1.546875 -11.445312 1.8125 -11.53125 2.09375 -11.59375 C 2.382812 -11.664062 2.6875 -11.703125 3 -11.703125 C 3.320312 -11.703125 3.597656 -11.660156 3.828125 -11.578125 C 4.054688 -11.492188 4.242188 -11.378906 4.390625 -11.234375 C 4.535156 -11.097656 4.648438 -10.941406 4.734375 -10.765625 C 4.816406 -10.597656 4.878906 -10.425781 4.921875 -10.25 C 4.960938 -10.070312 4.984375 -9.898438 4.984375 -9.734375 C 4.992188 -9.578125 5 -9.441406 5 -9.328125 Z M 5 -9.328125 "/></g></g></g><g fill="#1025a1" fill-opacity="1"><g transform="translate(157.692159, 67.218797)"><g><path d="M 4.890625 -8.640625 C 5.148438 -8.992188 5.429688 -9.351562 5.734375 -9.71875 C 6.035156 -10.082031 6.359375 -10.410156 6.703125 -10.703125 C 7.054688 -10.992188 7.4375 -11.234375 7.84375 -11.421875 C 8.25 -11.609375 8.691406 -11.703125 9.171875 -11.703125 C 9.597656 -11.703125 9.953125 -11.617188 10.234375 -11.453125 C 10.523438 -11.285156 10.757812 -11.082031 10.9375 -10.84375 C 11.113281 -10.601562 11.234375 -10.351562 11.296875 -10.09375 C 11.367188 -9.84375 11.40625 -9.628906 11.40625 -9.453125 C 11.40625 -9.117188 11.363281 -8.769531 11.28125 -8.40625 C 11.195312 -8.050781 11.050781 -7.695312 10.84375 -7.34375 C 10.632812 -7 10.359375 -6.664062 10.015625 -6.34375 C 9.671875 -6.019531 9.234375 -5.722656 8.703125 -5.453125 C 9.410156 -3.953125 10.097656 -2.660156 10.765625 -1.578125 C 11.429688 -0.503906 12.078125 0.378906 12.703125 1.078125 C 13.328125 1.773438 13.921875 2.285156 14.484375 2.609375 C 15.054688 2.941406 15.601562 3.109375 16.125 3.109375 C 16.21875 3.109375 16.304688 3.097656 16.390625 3.078125 C 16.484375 3.054688 16.566406 3.03125 16.640625 3 C 16.722656 2.96875 16.8125 2.929688 16.90625 2.890625 L 17.125 3.28125 C 16.914062 3.394531 16.707031 3.5 16.5 3.59375 C 16.289062 3.695312 16.050781 3.785156 15.78125 3.859375 C 15.507812 3.941406 15.195312 4.003906 14.84375 4.046875 C 14.488281 4.085938 14.066406 4.109375 13.578125 4.109375 C 13.128906 4.109375 12.6875 4.054688 12.25 3.953125 C 11.820312 3.847656 11.390625 3.660156 10.953125 3.390625 C 10.523438 3.117188 10.085938 2.757812 9.640625 2.3125 C 9.191406 1.863281 8.734375 1.289062 8.265625 0.59375 C 7.796875 -0.09375 7.3125 -0.910156 6.8125 -1.859375 C 6.3125 -2.816406 5.796875 -3.9375 5.265625 -5.21875 C 5.984375 -5.75 6.550781 -6.242188 6.96875 -6.703125 C 7.382812 -7.160156 7.695312 -7.570312 7.90625 -7.9375 C 8.113281 -8.300781 8.242188 -8.625 8.296875 -8.90625 C 8.347656 -9.195312 8.375 -9.445312 8.375 -9.65625 C 8.375 -9.6875 8.367188 -9.734375 8.359375 -9.796875 C 8.359375 -9.867188 8.335938 -9.9375 8.296875 -10 C 8.253906 -10.070312 8.191406 -10.132812 8.109375 -10.1875 C 8.035156 -10.238281 7.925781 -10.265625 7.78125 -10.265625 C 7.5 -10.265625 7.210938 -10.144531 6.921875 -9.90625 C 6.640625 -9.675781 6.367188 -9.382812 6.109375 -9.03125 C 5.859375 -8.6875 5.625 -8.3125 5.40625 -7.90625 C 5.195312 -7.507812 5.023438 -7.144531 4.890625 -6.8125 L 4.890625 -1 C 4.890625 -0.894531 4.875 -0.773438 4.84375 -0.640625 C 4.8125 -0.503906 4.734375 -0.375 4.609375 -0.25 C 4.484375 -0.132812 4.300781 -0.0351562 4.0625 0.046875 C 3.820312 0.140625 3.503906 0.1875 3.109375 0.1875 C 2.710938 0.1875 2.398438 0.140625 2.171875 0.046875 C 1.953125 -0.046875 1.785156 -0.15625 1.671875 -0.28125 C 1.566406 -0.414062 1.5 -0.550781 1.46875 -0.6875 C 1.445312 -0.820312 1.4375 -0.929688 1.4375 -1.015625 L 1.4375 -15.5625 C 1.4375 -15.78125 1.382812 -15.96875 1.28125 -16.125 C 1.175781 -16.289062 1.003906 -16.375 0.765625 -16.375 C 0.640625 -16.375 0.53125 -16.351562 0.4375 -16.3125 C 0.34375 -16.269531 0.242188 -16.207031 0.140625 -16.125 L -0.09375 -16.390625 C 0.0820312 -16.535156 0.273438 -16.675781 0.484375 -16.8125 C 0.691406 -16.957031 0.921875 -17.082031 1.171875 -17.1875 C 1.429688 -17.289062 1.703125 -17.375 1.984375 -17.4375 C 2.265625 -17.507812 2.566406 -17.546875 2.890625 -17.546875 C 3.378906 -17.546875 3.757812 -17.476562 4.03125 -17.34375 C 4.300781 -17.21875 4.5 -17.054688 4.625 -16.859375 C 4.75 -16.671875 4.820312 -16.46875 4.84375 -16.25 C 4.875 -16.039062 4.890625 -15.851562 4.890625 -15.6875 Z M 4.890625 -8.640625 "/></g></g></g><g fill="#1025a1" fill-opacity="1"><g transform="translate(169.975972, 67.218797)"><g><path d="M 4.3125 -5.171875 C 4.3125 -4.929688 4.347656 -4.671875 4.421875 -4.390625 C 4.492188 -4.109375 4.597656 -3.820312 4.734375 -3.53125 C 4.867188 -3.25 5.035156 -2.976562 5.234375 -2.71875 C 5.429688 -2.457031 5.660156 -2.222656 5.921875 -2.015625 C 6.179688 -1.816406 6.46875 -1.65625 6.78125 -1.53125 C 7.101562 -1.414062 7.453125 -1.359375 7.828125 -1.359375 C 8.085938 -1.359375 8.328125 -1.390625 8.546875 -1.453125 C 8.773438 -1.515625 8.988281 -1.597656 9.1875 -1.703125 C 9.382812 -1.804688 9.570312 -1.925781 9.75 -2.0625 C 9.9375 -2.207031 10.117188 -2.359375 10.296875 -2.515625 L 10.578125 -2.25 C 10.398438 -2.007812 10.175781 -1.75 9.90625 -1.46875 C 9.632812 -1.195312 9.304688 -0.9375 8.921875 -0.6875 C 8.546875 -0.445312 8.101562 -0.242188 7.59375 -0.078125 C 7.082031 0.078125 6.5 0.15625 5.84375 0.15625 C 5.1875 0.15625 4.546875 0.0390625 3.921875 -0.1875 C 3.304688 -0.425781 2.757812 -0.78125 2.28125 -1.25 C 1.800781 -1.726562 1.414062 -2.320312 1.125 -3.03125 C 0.832031 -3.738281 0.6875 -4.566406 0.6875 -5.515625 C 0.6875 -6.203125 0.769531 -6.828125 0.9375 -7.390625 C 1.113281 -7.960938 1.347656 -8.476562 1.640625 -8.9375 C 1.941406 -9.394531 2.289062 -9.796875 2.6875 -10.140625 C 3.082031 -10.492188 3.5 -10.785156 3.9375 -11.015625 C 4.375 -11.242188 4.816406 -11.414062 5.265625 -11.53125 C 5.722656 -11.644531 6.160156 -11.703125 6.578125 -11.703125 C 7.140625 -11.703125 7.625 -11.640625 8.03125 -11.515625 C 8.445312 -11.398438 8.789062 -11.238281 9.0625 -11.03125 C 9.34375 -10.832031 9.550781 -10.597656 9.6875 -10.328125 C 9.820312 -10.066406 9.890625 -9.789062 9.890625 -9.5 C 9.890625 -9.144531 9.785156 -8.828125 9.578125 -8.546875 C 9.378906 -8.265625 9.109375 -8.015625 8.765625 -7.796875 Z M 6.578125 -7.46875 C 6.679688 -7.53125 6.765625 -7.585938 6.828125 -7.640625 C 6.890625 -7.691406 6.9375 -7.757812 6.96875 -7.84375 C 7.007812 -7.925781 7.039062 -8.023438 7.0625 -8.140625 C 7.082031 -8.253906 7.09375 -8.394531 7.09375 -8.5625 C 7.09375 -8.757812 7.070312 -8.972656 7.03125 -9.203125 C 6.988281 -9.429688 6.914062 -9.644531 6.8125 -9.84375 C 6.71875 -10.050781 6.59375 -10.21875 6.4375 -10.34375 C 6.289062 -10.476562 6.113281 -10.546875 5.90625 -10.546875 C 5.632812 -10.546875 5.398438 -10.460938 5.203125 -10.296875 C 5.015625 -10.140625 4.859375 -9.929688 4.734375 -9.671875 C 4.617188 -9.421875 4.523438 -9.132812 4.453125 -8.8125 C 4.378906 -8.488281 4.320312 -8.160156 4.28125 -7.828125 C 4.25 -7.492188 4.226562 -7.175781 4.21875 -6.875 C 4.207031 -6.570312 4.203125 -6.3125 4.203125 -6.09375 Z M 6.578125 -7.46875 "/></g></g></g><g fill="#1025a1" fill-opacity="1"><g transform="translate(180.691948, 67.218797)"><g><path d="M 5.0625 -10.734375 L 5.0625 -2.40625 C 5.0625 -2 5.132812 -1.71875 5.28125 -1.5625 C 5.4375 -1.414062 5.644531 -1.34375 5.90625 -1.34375 C 6.113281 -1.34375 6.296875 -1.398438 6.453125 -1.515625 C 6.609375 -1.628906 6.742188 -1.753906 6.859375 -1.890625 C 6.992188 -2.046875 7.109375 -2.234375 7.203125 -2.453125 L 7.5625 -2.296875 C 7.445312 -2.046875 7.3125 -1.78125 7.15625 -1.5 C 7 -1.21875 6.789062 -0.953125 6.53125 -0.703125 C 6.28125 -0.460938 5.960938 -0.257812 5.578125 -0.09375 C 5.191406 0.0703125 4.703125 0.15625 4.109375 0.15625 C 3.785156 0.15625 3.46875 0.101562 3.15625 0 C 2.851562 -0.09375 2.582031 -0.242188 2.34375 -0.453125 C 2.113281 -0.660156 1.925781 -0.921875 1.78125 -1.234375 C 1.632812 -1.554688 1.5625 -1.9375 1.5625 -2.375 L 1.5625 -10.734375 L 0.296875 -10.734375 L 0.296875 -11.546875 C 0.515625 -11.546875 0.8125 -11.597656 1.1875 -11.703125 C 1.5625 -11.816406 1.945312 -12 2.34375 -12.25 C 2.738281 -12.507812 3.101562 -12.851562 3.4375 -13.28125 C 3.78125 -13.707031 4.019531 -14.238281 4.15625 -14.875 L 5.0625 -14.875 L 5.0625 -11.546875 L 6.90625 -11.546875 C 7.5 -11.546875 7.796875 -11.644531 7.796875 -11.84375 C 7.796875 -11.925781 7.757812 -11.976562 7.6875 -12 C 7.613281 -12.03125 7.53125 -12.066406 7.4375 -12.109375 C 7.34375 -12.148438 7.253906 -12.207031 7.171875 -12.28125 C 7.097656 -12.351562 7.0625 -12.476562 7.0625 -12.65625 C 7.0625 -12.863281 7.128906 -13.023438 7.265625 -13.140625 C 7.398438 -13.265625 7.570312 -13.328125 7.78125 -13.328125 C 7.914062 -13.328125 8.03125 -13.296875 8.125 -13.234375 C 8.226562 -13.179688 8.3125 -13.109375 8.375 -13.015625 C 8.445312 -12.921875 8.5 -12.8125 8.53125 -12.6875 C 8.570312 -12.570312 8.59375 -12.457031 8.59375 -12.34375 C 8.59375 -11.851562 8.453125 -11.460938 8.171875 -11.171875 C 7.890625 -10.878906 7.4375 -10.734375 6.8125 -10.734375 Z M 5.0625 -10.734375 "/></g></g></g><g fill="#1025a1" fill-opacity="1"><g transform="translate(188.497837, 67.218797)"><g><path d="M 5 -1.015625 C 5 -0.921875 4.984375 -0.800781 4.953125 -0.65625 C 4.921875 -0.519531 4.84375 -0.390625 4.71875 -0.265625 C 4.59375 -0.140625 4.410156 -0.0351562 4.171875 0.046875 C 3.941406 0.140625 3.628906 0.1875 3.234375 0.1875 C 2.835938 0.1875 2.523438 0.140625 2.296875 0.046875 C 2.078125 -0.046875 1.910156 -0.15625 1.796875 -0.28125 C 1.679688 -0.414062 1.609375 -0.550781 1.578125 -0.6875 C 1.554688 -0.820312 1.546875 -0.929688 1.546875 -1.015625 L 1.546875 -9.71875 C 1.546875 -9.9375 1.492188 -10.125 1.390625 -10.28125 C 1.285156 -10.445312 1.113281 -10.53125 0.875 -10.53125 C 0.75 -10.53125 0.640625 -10.503906 0.546875 -10.453125 C 0.460938 -10.410156 0.367188 -10.347656 0.265625 -10.265625 L 0.015625 -10.546875 C 0.191406 -10.691406 0.382812 -10.832031 0.59375 -10.96875 C 0.8125 -11.113281 1.046875 -11.238281 1.296875 -11.34375 C 1.546875 -11.445312 1.8125 -11.53125 2.09375 -11.59375 C 2.382812 -11.664062 2.6875 -11.703125 3 -11.703125 C 3.488281 -11.703125 3.867188 -11.632812 4.140625 -11.5 C 4.410156 -11.375 4.609375 -11.210938 4.734375 -11.015625 C 4.859375 -10.828125 4.929688 -10.625 4.953125 -10.40625 C 4.984375 -10.1875 5 -9.992188 5 -9.828125 Z M 1.1875 -14.28125 C 1.1875 -14.488281 1.234375 -14.6875 1.328125 -14.875 C 1.429688 -15.070312 1.566406 -15.238281 1.734375 -15.375 C 1.898438 -15.519531 2.09375 -15.632812 2.3125 -15.71875 C 2.539062 -15.800781 2.785156 -15.84375 3.046875 -15.84375 C 3.296875 -15.84375 3.53125 -15.800781 3.75 -15.71875 C 3.976562 -15.632812 4.175781 -15.519531 4.34375 -15.375 C 4.507812 -15.238281 4.640625 -15.070312 4.734375 -14.875 C 4.828125 -14.6875 4.875 -14.488281 4.875 -14.28125 C 4.875 -14.0625 4.828125 -13.859375 4.734375 -13.671875 C 4.640625 -13.484375 4.507812 -13.316406 4.34375 -13.171875 C 4.175781 -13.035156 3.976562 -12.925781 3.75 -12.84375 C 3.53125 -12.757812 3.296875 -12.71875 3.046875 -12.71875 C 2.785156 -12.71875 2.539062 -12.757812 2.3125 -12.84375 C 2.09375 -12.925781 1.898438 -13.035156 1.734375 -13.171875 C 1.566406 -13.316406 1.429688 -13.484375 1.328125 -13.671875 C 1.234375 -13.859375 1.1875 -14.0625 1.1875 -14.28125 Z M 1.1875 -14.28125 "/></g></g></g><g fill="#1025a1" fill-opacity="1"><g transform="translate(194.961476, 67.218797)"><g><path d="M 8.046875 -5.609375 C 8.046875 -6.554688 8 -7.3125 7.90625 -7.875 C 7.820312 -8.445312 7.707031 -8.878906 7.5625 -9.171875 C 7.425781 -9.472656 7.269531 -9.671875 7.09375 -9.765625 C 6.914062 -9.859375 6.738281 -9.90625 6.5625 -9.90625 C 6.34375 -9.90625 6.148438 -9.847656 5.984375 -9.734375 C 5.816406 -9.617188 5.671875 -9.484375 5.546875 -9.328125 C 5.421875 -9.179688 5.3125 -9.03125 5.21875 -8.875 C 5.132812 -8.726562 5.0625 -8.617188 5 -8.546875 L 5 -1.015625 C 5 -0.921875 4.984375 -0.800781 4.953125 -0.65625 C 4.929688 -0.519531 4.859375 -0.390625 4.734375 -0.265625 C 4.617188 -0.140625 4.445312 -0.0351562 4.21875 0.046875 C 3.988281 0.140625 3.675781 0.1875 3.28125 0.1875 C 2.882812 0.1875 2.570312 0.140625 2.34375 0.046875 C 2.113281 -0.046875 1.9375 -0.15625 1.8125 -0.28125 C 1.695312 -0.414062 1.625 -0.550781 1.59375 -0.6875 C 1.5625 -0.820312 1.546875 -0.929688 1.546875 -1.015625 L 1.546875 -9.71875 C 1.546875 -9.9375 1.492188 -10.125 1.390625 -10.28125 C 1.285156 -10.445312 1.113281 -10.53125 0.875 -10.53125 C 0.75 -10.53125 0.640625 -10.503906 0.546875 -10.453125 C 0.460938 -10.410156 0.367188 -10.347656 0.265625 -10.265625 L 0.015625 -10.546875 C 0.191406 -10.691406 0.382812 -10.832031 0.59375 -10.96875 C 0.8125 -11.113281 1.046875 -11.238281 1.296875 -11.34375 C 1.546875 -11.445312 1.8125 -11.53125 2.09375 -11.59375 C 2.382812 -11.664062 2.6875 -11.703125 3 -11.703125 C 3.488281 -11.703125 3.867188 -11.617188 4.140625 -11.453125 C 4.410156 -11.296875 4.609375 -11.101562 4.734375 -10.875 C 4.859375 -10.65625 4.929688 -10.421875 4.953125 -10.171875 C 4.984375 -9.929688 5 -9.726562 5 -9.5625 C 5.28125 -9.957031 5.597656 -10.316406 5.953125 -10.640625 C 6.097656 -10.773438 6.257812 -10.90625 6.4375 -11.03125 C 6.613281 -11.15625 6.800781 -11.269531 7 -11.375 C 7.195312 -11.476562 7.40625 -11.554688 7.625 -11.609375 C 7.851562 -11.671875 8.082031 -11.703125 8.3125 -11.703125 C 8.820312 -11.703125 9.273438 -11.601562 9.671875 -11.40625 C 10.066406 -11.21875 10.398438 -10.894531 10.671875 -10.4375 C 10.941406 -9.976562 11.144531 -9.367188 11.28125 -8.609375 C 11.425781 -7.847656 11.5 -6.910156 11.5 -5.796875 C 11.5 -4.703125 11.398438 -3.753906 11.203125 -2.953125 C 11.015625 -2.148438 10.757812 -1.46875 10.4375 -0.90625 C 10.125 -0.34375 9.765625 0.113281 9.359375 0.46875 C 8.960938 0.832031 8.5625 1.113281 8.15625 1.3125 C 7.757812 1.519531 7.375 1.660156 7 1.734375 C 6.625 1.816406 6.300781 1.863281 6.03125 1.875 L 5.90625 1.40625 C 6.132812 1.351562 6.34375 1.269531 6.53125 1.15625 C 6.726562 1.050781 6.90625 0.890625 7.0625 0.671875 C 7.21875 0.453125 7.351562 0.175781 7.46875 -0.15625 C 7.59375 -0.5 7.695312 -0.921875 7.78125 -1.421875 C 7.875 -1.921875 7.941406 -2.515625 7.984375 -3.203125 C 8.023438 -3.890625 8.046875 -4.691406 8.046875 -5.609375 Z M 8.046875 -5.609375 "/></g></g></g><g fill="#1025a1" fill-opacity="1"><g transform="translate(207.41448, 67.218797)"><g><path d="M 0.921875 -7.09375 C 0.921875 -7.863281 1.050781 -8.535156 1.3125 -9.109375 C 1.582031 -9.679688 1.941406 -10.160156 2.390625 -10.546875 C 2.847656 -10.929688 3.375 -11.21875 3.96875 -11.40625 C 4.5625 -11.601562 5.1875 -11.703125 5.84375 -11.703125 C 6.5 -11.703125 7.117188 -11.613281 7.703125 -11.4375 C 8.285156 -11.269531 8.800781 -11.003906 9.25 -10.640625 C 9.394531 -10.859375 9.515625 -11.085938 9.609375 -11.328125 C 9.703125 -11.566406 9.75 -11.804688 9.75 -12.046875 C 9.75 -12.367188 9.660156 -12.625 9.484375 -12.8125 C 9.316406 -13 9.101562 -13.09375 8.84375 -13.09375 L 8.84375 -13.421875 C 9.007812 -13.472656 9.15625 -13.519531 9.28125 -13.5625 C 9.40625 -13.601562 9.519531 -13.632812 9.625 -13.65625 C 9.726562 -13.675781 9.832031 -13.691406 9.9375 -13.703125 C 10.050781 -13.710938 10.171875 -13.71875 10.296875 -13.71875 C 10.648438 -13.71875 10.921875 -13.609375 11.109375 -13.390625 C 11.296875 -13.171875 11.390625 -12.875 11.390625 -12.5 C 11.390625 -12.269531 11.335938 -12.039062 11.234375 -11.8125 C 11.128906 -11.59375 10.992188 -11.378906 10.828125 -11.171875 C 10.671875 -10.972656 10.5 -10.785156 10.3125 -10.609375 C 10.125 -10.429688 9.941406 -10.273438 9.765625 -10.140625 C 10.078125 -9.773438 10.316406 -9.351562 10.484375 -8.875 C 10.660156 -8.394531 10.75 -7.847656 10.75 -7.234375 C 10.75 -6.453125 10.613281 -5.765625 10.34375 -5.171875 C 10.082031 -4.578125 9.726562 -4.078125 9.28125 -3.671875 C 8.832031 -3.265625 8.3125 -2.957031 7.71875 -2.75 C 7.125 -2.550781 6.5 -2.453125 5.84375 -2.453125 C 5.457031 -2.453125 5.078125 -2.484375 4.703125 -2.546875 C 4.335938 -2.617188 3.992188 -2.71875 3.671875 -2.84375 C 3.554688 -2.75 3.453125 -2.632812 3.359375 -2.5 C 3.273438 -2.363281 3.234375 -2.210938 3.234375 -2.046875 C 3.234375 -1.773438 3.351562 -1.570312 3.59375 -1.4375 C 3.832031 -1.300781 4.148438 -1.203125 4.546875 -1.140625 C 4.953125 -1.078125 5.40625 -1.035156 5.90625 -1.015625 C 6.414062 -1.003906 6.929688 -0.984375 7.453125 -0.953125 C 7.984375 -0.921875 8.5 -0.859375 9 -0.765625 C 9.507812 -0.671875 9.960938 -0.515625 10.359375 -0.296875 C 10.753906 -0.0859375 11.070312 0.195312 11.3125 0.5625 C 11.5625 0.9375 11.6875 1.414062 11.6875 2 C 11.6875 2.4375 11.59375 2.820312 11.40625 3.15625 C 11.226562 3.5 10.988281 3.800781 10.6875 4.0625 C 10.382812 4.320312 10.03125 4.539062 9.625 4.71875 C 9.21875 4.90625 8.789062 5.054688 8.34375 5.171875 C 7.894531 5.296875 7.441406 5.382812 6.984375 5.4375 C 6.523438 5.488281 6.082031 5.515625 5.65625 5.515625 C 4.894531 5.515625 4.207031 5.472656 3.59375 5.390625 C 2.976562 5.316406 2.457031 5.195312 2.03125 5.03125 C 1.601562 4.863281 1.269531 4.644531 1.03125 4.375 C 0.800781 4.113281 0.6875 3.800781 0.6875 3.4375 C 0.6875 3.175781 0.742188 2.929688 0.859375 2.703125 C 0.984375 2.484375 1.144531 2.28125 1.34375 2.09375 C 1.539062 1.914062 1.765625 1.753906 2.015625 1.609375 C 2.265625 1.460938 2.519531 1.320312 2.78125 1.1875 C 2.394531 1.03125 2.078125 0.789062 1.828125 0.46875 C 1.578125 0.15625 1.453125 -0.265625 1.453125 -0.796875 C 1.453125 -1.066406 1.5 -1.320312 1.59375 -1.5625 C 1.695312 -1.800781 1.820312 -2.019531 1.96875 -2.21875 C 2.125 -2.414062 2.296875 -2.59375 2.484375 -2.75 C 2.671875 -2.914062 2.847656 -3.054688 3.015625 -3.171875 C 2.710938 -3.347656 2.429688 -3.566406 2.171875 -3.828125 C 1.910156 -4.085938 1.6875 -4.378906 1.5 -4.703125 C 1.320312 -5.035156 1.179688 -5.398438 1.078125 -5.796875 C 0.972656 -6.191406 0.921875 -6.625 0.921875 -7.09375 Z M 7.359375 -7.1875 C 7.359375 -7.625 7.335938 -8.046875 7.296875 -8.453125 C 7.253906 -8.867188 7.175781 -9.238281 7.0625 -9.5625 C 6.945312 -9.882812 6.789062 -10.144531 6.59375 -10.34375 C 6.394531 -10.539062 6.144531 -10.640625 5.84375 -10.640625 C 5.53125 -10.640625 5.273438 -10.535156 5.078125 -10.328125 C 4.890625 -10.128906 4.738281 -9.859375 4.625 -9.515625 C 4.507812 -9.179688 4.425781 -8.800781 4.375 -8.375 C 4.332031 -7.957031 4.3125 -7.53125 4.3125 -7.09375 C 4.3125 -6.644531 4.332031 -6.207031 4.375 -5.78125 C 4.425781 -5.351562 4.507812 -4.96875 4.625 -4.625 C 4.738281 -4.289062 4.890625 -4.019531 5.078125 -3.8125 C 5.273438 -3.601562 5.53125 -3.5 5.84375 -3.5 C 6.144531 -3.5 6.394531 -3.609375 6.59375 -3.828125 C 6.789062 -4.046875 6.945312 -4.328125 7.0625 -4.671875 C 7.175781 -5.023438 7.253906 -5.421875 7.296875 -5.859375 C 7.335938 -6.296875 7.359375 -6.738281 7.359375 -7.1875 Z M 9.078125 2.90625 C 9.078125 2.664062 8.984375 2.46875 8.796875 2.3125 C 8.609375 2.164062 8.359375 2.039062 8.046875 1.9375 C 7.742188 1.84375 7.398438 1.769531 7.015625 1.71875 C 6.628906 1.675781 6.238281 1.640625 5.84375 1.609375 C 5.445312 1.585938 5.054688 1.566406 4.671875 1.546875 C 4.296875 1.523438 3.972656 1.492188 3.703125 1.453125 C 3.546875 1.566406 3.390625 1.6875 3.234375 1.8125 C 3.085938 1.945312 2.957031 2.085938 2.84375 2.234375 C 2.738281 2.378906 2.648438 2.53125 2.578125 2.6875 C 2.515625 2.851562 2.484375 3.019531 2.484375 3.1875 C 2.484375 3.476562 2.566406 3.71875 2.734375 3.90625 C 2.898438 4.09375 3.125 4.242188 3.40625 4.359375 C 3.6875 4.472656 4.015625 4.550781 4.390625 4.59375 C 4.765625 4.644531 5.160156 4.671875 5.578125 4.671875 C 6.117188 4.671875 6.609375 4.625 7.046875 4.53125 C 7.484375 4.4375 7.851562 4.304688 8.15625 4.140625 C 8.457031 3.984375 8.6875 3.796875 8.84375 3.578125 C 9 3.367188 9.078125 3.144531 9.078125 2.90625 Z M 9.078125 2.90625 "/></g></g></g></svg>