<svg xmlns="http://www.w3.org/2000/svg" xmlns:xlink="http://www.w3.org/1999/xlink" width="360" zoomAndPan="magnify" viewBox="0 0 270 119.999999" height="160" preserveAspectRatio="xMidYMid meet" version="1.0"><defs><g/><clipPath id="156c75e234"><path d="M 133.433594 106.125 L 135.03125 106.125 L 135.03125 119.480469 L 133.433594 119.480469 Z M 133.433594 106.125 " clip-rule="nonzero"/></clipPath><clipPath id="1da558ece1"><path d="M 133.433594 0 L 135.03125 0 L 135.03125 12.832031 L 133.433594 12.832031 Z M 133.433594 0 " clip-rule="nonzero"/></clipPath><clipPath id="8c648570f3"><path d="M 0 58.566406 L 30.035156 58.566406 L 30.035156 60.007812 L 0 60.007812 Z M 0 58.566406 " clip-rule="nonzero"/></clipPath><clipPath id="5ceb2d868e"><path d="M 239.941406 58.566406 L 269.988281 58.566406 L 269.988281 60.007812 L 239.941406 60.007812 Z M 239.941406 58.566406 " clip-rule="nonzero"/></clipPath><clipPath id="93b3f7b81d"><path d="M 66 98 L 75 98 L 75 111 L 66 111 Z M 66 98 " clip-rule="nonzero"/></clipPath><clipPath id="1889ef30f0"><path d="M 74.976562 98.996094 L 67.917969 110.332031 L 66.523438 109.464844 L 73.582031 98.128906 Z M 74.976562 98.996094 " clip-rule="nonzero"/></clipPath><clipPath id="ea95d713b3"><path d="M 193 7 L 202 7 L 202 20 L 193 20 Z M 193 7 " clip-rule="nonzero"/></clipPath><clipPath id="5d16b8fc7b"><path d="M 201.832031 8.472656 L 194.773438 19.808594 L 193.378906 18.941406 L 200.4375 7.605469 Z M 201.832031 8.472656 " clip-rule="nonzero"/></clipPath><clipPath id="b6f8bda998"><path d="M 16 20 L 50 20 L 50 42 L 16 42 Z M 16 20 " clip-rule="nonzero"/></clipPath><clipPath id="ce09e028d3"><path d="M 49.171875 41.882812 L 16.578125 21.585938 L 17.339844 20.363281 L 49.929688 40.664062 Z M 49.171875 41.882812 " clip-rule="nonzero"/></clipPath><clipPath id="9c5cc72e3f"><path d="M 220 76 L 254 76 L 254 99 L 220 99 Z M 220 76 " clip-rule="nonzero"/></clipPath><clipPath id="ceb6800b4a"><path d="M 252.847656 98.265625 L 220.257812 77.964844 L 221.019531 76.746094 L 253.609375 97.042969 Z M 252.847656 98.265625 " clip-rule="nonzero"/></clipPath><clipPath id="fa21ab0c99"><path d="M 13 75 L 47 75 L 47 96 L 13 96 Z M 13 75 " clip-rule="nonzero"/></clipPath><clipPath id="2de37f771d"><path d="M 46.992188 76.835938 L 14.226562 95.207031 L 13.523438 93.953125 L 46.285156 75.578125 Z M 46.992188 76.835938 " clip-rule="nonzero"/></clipPath><clipPath id="1736d23d50"><path d="M 222 23 L 257 23 L 257 44 L 222 44 Z M 222 23 " clip-rule="nonzero"/></clipPath><clipPath id="1f5ee7adeb"><path d="M 256.285156 24.671875 L 223.519531 43.046875 L 222.816406 41.789062 L 255.578125 23.417969 Z M 256.285156 24.671875 " clip-rule="nonzero"/></clipPath><clipPath id="dc27e11328"><path d="M 72 6 L 81 6 L 81 19 L 72 19 Z M 72 6 " clip-rule="nonzero"/></clipPath><clipPath id="d728917216"><path d="M 79.496094 18.828125 L 72.964844 7.183594 L 74.394531 6.378906 L 80.925781 18.027344 Z M 79.496094 18.828125 " clip-rule="nonzero"/></clipPath><clipPath id="859040d884"><path d="M 190 99 L 199 99 L 199 112 L 190 112 Z M 190 99 " clip-rule="nonzero"/></clipPath><clipPath id="f31b546051"><path d="M 196.859375 111.847656 L 190.328125 100.203125 L 191.757812 99.398438 L 198.289062 111.046875 Z M 196.859375 111.847656 " clip-rule="nonzero"/></clipPath></defs><rect x="-27" width="324" fill="#ffffff" y="-12" height="143.999998" fill-opacity="1"/><rect x="-27" width="324" fill="#ffffff" y="-12" height="143.999998" fill-opacity="1"/><g clip-path="url(#156c75e234)"><path fill="#008000" d="M 139.5625 106.125 L 139.5625 119.472656 L 129.960938 119.472656 L 129.960938 106.125 Z M 139.5625 106.125 " fill-opacity="1" fill-rule="nonzero"/></g><g clip-path="url(#1da558ece1)"><path fill="#008000" d="M 139.5625 -0.519531 L 139.5625 12.828125 L 129.960938 12.828125 L 129.960938 -0.519531 Z M 139.5625 -0.519531 " fill-opacity="1" fill-rule="nonzero"/></g><g clip-path="url(#8c648570f3)"><path fill="#008000" d="M 30.035156 64.085938 L 0 64.085938 L 0 54.488281 L 30.035156 54.488281 Z M 30.035156 64.085938 " fill-opacity="1" fill-rule="nonzero"/></g><g clip-path="url(#5ceb2d868e)"><path fill="#008000" d="M 269.988281 64.085938 L 239.957031 64.085938 L 239.957031 54.488281 L 269.988281 54.488281 Z M 269.988281 64.085938 " fill-opacity="1" fill-rule="nonzero"/></g><g clip-path="url(#93b3f7b81d)"><g clip-path="url(#1889ef30f0)"><path fill="#008000" d="M 78.925781 101.457031 L 71.871094 112.789062 L 63.722656 107.710938 L 70.777344 96.382812 Z M 78.925781 101.457031 " fill-opacity="1" fill-rule="nonzero"/></g></g><g clip-path="url(#ea95d713b3)"><g clip-path="url(#5d16b8fc7b)"><path fill="#008000" d="M 205.78125 10.933594 L 198.726562 22.261719 L 190.578125 17.1875 L 197.636719 5.859375 Z M 205.78125 10.933594 " fill-opacity="1" fill-rule="nonzero"/></g></g><g clip-path="url(#b6f8bda998)"><g clip-path="url(#ce09e028d3)"><path fill="#008000" d="M 47.011719 45.347656 L 14.421875 25.050781 L 19.496094 16.902344 L 52.085938 37.199219 Z M 47.011719 45.347656 " fill-opacity="1" fill-rule="nonzero"/></g></g><g clip-path="url(#9c5cc72e3f)"><g clip-path="url(#ceb6800b4a)"><path fill="#008000" d="M 250.691406 101.726562 L 218.101562 81.429688 L 223.175781 73.28125 L 255.765625 93.582031 Z M 250.691406 101.726562 " fill-opacity="1" fill-rule="nonzero"/></g></g><g clip-path="url(#fa21ab0c99)"><g clip-path="url(#2de37f771d)"><path fill="#008000" d="M 48.984375 80.394531 L 16.214844 98.769531 L 11.523438 90.394531 L 44.292969 72.019531 Z M 48.984375 80.394531 " fill-opacity="1" fill-rule="nonzero"/></g></g><g clip-path="url(#1736d23d50)"><g clip-path="url(#1f5ee7adeb)"><path fill="#008000" d="M 258.277344 28.230469 L 225.511719 46.605469 L 220.816406 38.234375 L 253.585938 19.859375 Z M 258.277344 28.230469 " fill-opacity="1" fill-rule="nonzero"/></g></g><g clip-path="url(#dc27e11328)"><g clip-path="url(#d728917216)"><path fill="#008000" d="M 75.445312 21.101562 L 68.917969 9.457031 L 77.289062 4.765625 L 83.816406 16.40625 Z M 75.445312 21.101562 " fill-opacity="1" fill-rule="nonzero"/></g></g><g clip-path="url(#859040d884)"><g clip-path="url(#f31b546051)"><path fill="#008000" d="M 192.808594 114.121094 L 186.277344 102.476562 L 194.652344 97.78125 L 201.179688 109.425781 Z M 192.808594 114.121094 " fill-opacity="1" fill-rule="nonzero"/></g></g><g fill="#1025a1" fill-opacity="1"><g transform="translate(69.481255, 67.218797)"><g><path d="M 8.5625 -7.796875 C 8.332031 -7.796875 8.140625 -7.832031 7.984375 -7.90625 C 7.828125 -7.976562 7.695312 -8.070312 7.59375 -8.1875 C 7.5 -8.3125 7.425781 -8.445312 7.375 -8.59375 C 7.332031 -8.738281 7.3125 -8.894531 7.3125 -9.0625 C 7.3125 -9.257812 7.320312 -9.453125 7.34375 -9.640625 C 7.375 -9.828125 7.378906 -9.992188 7.359375 -10.140625 C 7.347656 -10.296875 7.289062 -10.414062 7.1875 -10.5 C 7.09375 -10.59375 6.921875 -10.640625 6.671875 -10.640625 C 6.410156 -10.640625 6.132812 -10.5625 5.84375 -10.40625 C 5.550781 -10.257812 5.28125 -10.023438 5.03125 -9.703125 C 4.789062 -9.378906 4.59375 -8.960938 4.4375 -8.453125 C 4.28125 -7.953125 4.203125 -7.34375 4.203125 -6.625 C 4.203125 -5.84375 4.273438 -5.125 4.421875 -4.46875 C 4.566406 -3.820312 4.785156 -3.269531 5.078125 -2.8125 C 5.378906 -2.351562 5.742188 -1.992188 6.171875 -1.734375 C 6.609375 -1.484375 7.125 -1.359375 7.71875 -1.359375 C 7.976562 -1.359375 8.222656 -1.390625 8.453125 -1.453125 C 8.691406 -1.515625 8.914062 -1.597656 9.125 -1.703125 C 9.34375 -1.804688 9.546875 -1.925781 9.734375 -2.0625 C 9.929688 -2.207031 10.117188 -2.359375 10.296875 -2.515625 L 10.578125 -2.25 C 10.398438 -2.007812 10.175781 -1.75 9.90625 -1.46875 C 9.632812 -1.195312 9.304688 -0.9375 8.921875 -0.6875 C 8.546875 -0.445312 8.101562 -0.242188 7.59375 -0.078125 C 7.082031 0.078125 6.5 0.15625 5.84375 0.15625 C 5.1875 0.15625 4.546875 0.03125 3.921875 -0.21875 C 3.304688 -0.46875 2.757812 -0.832031 2.28125 -1.3125 C 1.800781 -1.800781 1.414062 -2.390625 1.125 -3.078125 C 0.832031 -3.765625 0.6875 -4.546875 0.6875 -5.421875 C 0.6875 -6.109375 0.769531 -6.738281 0.9375 -7.3125 C 1.113281 -7.882812 1.347656 -8.40625 1.640625 -8.875 C 1.941406 -9.34375 2.289062 -9.753906 2.6875 -10.109375 C 3.082031 -10.460938 3.5 -10.753906 3.9375 -10.984375 C 4.375 -11.222656 4.816406 -11.398438 5.265625 -11.515625 C 5.722656 -11.640625 6.160156 -11.703125 6.578125 -11.703125 C 7.140625 -11.703125 7.625 -11.640625 8.03125 -11.515625 C 8.445312 -11.390625 8.789062 -11.21875 9.0625 -11 C 9.34375 -10.789062 9.550781 -10.546875 9.6875 -10.265625 C 9.820312 -9.992188 9.890625 -9.710938 9.890625 -9.421875 C 9.890625 -9.203125 9.859375 -8.992188 9.796875 -8.796875 C 9.742188 -8.597656 9.660156 -8.425781 9.546875 -8.28125 C 9.441406 -8.132812 9.304688 -8.015625 9.140625 -7.921875 C 8.972656 -7.835938 8.78125 -7.796875 8.5625 -7.796875 Z M 8.5625 -7.796875 "/></g></g></g><g fill="#1025a1" fill-opacity="1"><g transform="translate(80.197232, 67.218797)"><g><path d="M 10.390625 -9.9375 C 10.390625 -8.5625 10.253906 -7.234375 9.984375 -5.953125 C 9.722656 -4.671875 9.359375 -3.46875 8.890625 -2.34375 C 8.421875 -1.21875 7.863281 -0.191406 7.21875 0.734375 C 6.570312 1.660156 5.867188 2.453125 5.109375 3.109375 C 4.347656 3.773438 3.546875 4.289062 2.703125 4.65625 C 1.859375 5.03125 1.003906 5.21875 0.140625 5.21875 C -0.523438 5.21875 -1.035156 5.109375 -1.390625 4.890625 C -1.753906 4.671875 -1.9375 4.367188 -1.9375 3.984375 C -1.9375 3.847656 -1.910156 3.710938 -1.859375 3.578125 C -1.816406 3.441406 -1.757812 3.320312 -1.6875 3.21875 C -1.613281 3.113281 -1.523438 3.023438 -1.421875 2.953125 C -1.316406 2.890625 -1.203125 2.859375 -1.078125 2.859375 C -0.941406 2.859375 -0.828125 2.929688 -0.734375 3.078125 C -0.640625 3.222656 -0.535156 3.378906 -0.421875 3.546875 C -0.316406 3.710938 -0.1875 3.867188 -0.03125 4.015625 C 0.113281 4.160156 0.316406 4.234375 0.578125 4.234375 C 0.910156 4.234375 1.257812 4.171875 1.625 4.046875 C 2 3.929688 2.367188 3.765625 2.734375 3.546875 C 3.109375 3.328125 3.484375 3.0625 3.859375 2.75 C 4.234375 2.445312 4.601562 2.101562 4.96875 1.71875 C 4.75 0.957031 4.503906 0.128906 4.234375 -0.765625 C 3.960938 -1.671875 3.671875 -2.578125 3.359375 -3.484375 C 3.054688 -4.390625 2.742188 -5.265625 2.421875 -6.109375 C 2.109375 -6.960938 1.796875 -7.710938 1.484375 -8.359375 C 1.179688 -9.015625 0.890625 -9.539062 0.609375 -9.9375 C 0.328125 -10.332031 0.078125 -10.53125 -0.140625 -10.53125 C -0.273438 -10.53125 -0.382812 -10.503906 -0.46875 -10.453125 C -0.550781 -10.410156 -0.644531 -10.347656 -0.75 -10.265625 L -0.96875 -10.546875 C -0.820312 -10.679688 -0.664062 -10.816406 -0.5 -10.953125 C -0.332031 -11.085938 -0.140625 -11.207031 0.078125 -11.3125 C 0.304688 -11.425781 0.570312 -11.519531 0.875 -11.59375 C 1.175781 -11.664062 1.539062 -11.703125 1.96875 -11.703125 C 2.425781 -11.703125 2.847656 -11.597656 3.234375 -11.390625 C 3.628906 -11.179688 3.988281 -10.800781 4.3125 -10.25 C 4.550781 -9.832031 4.796875 -9.332031 5.046875 -8.75 C 5.296875 -8.175781 5.546875 -7.53125 5.796875 -6.8125 C 6.054688 -6.101562 6.316406 -5.332031 6.578125 -4.5 C 6.835938 -3.675781 7.097656 -2.804688 7.359375 -1.890625 C 7.828125 -2.867188 8.203125 -3.90625 8.484375 -5 C 8.773438 -6.09375 8.921875 -7.21875 8.921875 -8.375 C 8.921875 -8.789062 8.894531 -9.144531 8.84375 -9.4375 C 8.789062 -9.726562 8.726562 -9.976562 8.65625 -10.1875 C 8.59375 -10.394531 8.535156 -10.570312 8.484375 -10.71875 C 8.429688 -10.863281 8.40625 -10.992188 8.40625 -11.109375 C 8.40625 -11.222656 8.445312 -11.316406 8.53125 -11.390625 C 8.625 -11.472656 8.734375 -11.535156 8.859375 -11.578125 C 8.992188 -11.617188 9.125 -11.648438 9.25 -11.671875 C 9.382812 -11.691406 9.492188 -11.703125 9.578125 -11.703125 C 9.785156 -11.703125 9.941406 -11.660156 10.046875 -11.578125 C 10.160156 -11.492188 10.242188 -11.375 10.296875 -11.21875 C 10.347656 -11.070312 10.375 -10.890625 10.375 -10.671875 C 10.382812 -10.453125 10.390625 -10.207031 10.390625 -9.9375 Z M 10.390625 -9.9375 "/></g></g></g><g fill="#1025a1" fill-opacity="1"><g transform="translate(91.307988, 67.218797)"><g><path d="M 7.765625 -5.609375 C 7.765625 -6.265625 7.726562 -6.878906 7.65625 -7.453125 C 7.59375 -8.035156 7.484375 -8.539062 7.328125 -8.96875 C 7.179688 -9.40625 6.988281 -9.75 6.75 -10 C 6.519531 -10.25 6.238281 -10.375 5.90625 -10.375 C 5.65625 -10.375 5.441406 -10.3125 5.265625 -10.1875 C 5.085938 -10.0625 4.941406 -9.921875 4.828125 -9.765625 C 4.710938 -9.609375 4.628906 -9.453125 4.578125 -9.296875 C 4.523438 -9.140625 4.5 -9.035156 4.5 -8.984375 L 4.5 -5.609375 C 4.5 -3.972656 4.632812 -2.78125 4.90625 -2.03125 C 5.1875 -1.289062 5.59375 -0.921875 6.125 -0.921875 C 6.6875 -0.921875 7.097656 -1.300781 7.359375 -2.0625 C 7.628906 -2.820312 7.765625 -4.003906 7.765625 -5.609375 Z M 1.03125 -15.5625 C 1.03125 -15.78125 0.976562 -15.96875 0.875 -16.125 C 0.78125 -16.289062 0.613281 -16.375 0.375 -16.375 C 0.25 -16.375 0.140625 -16.351562 0.046875 -16.3125 C -0.046875 -16.269531 -0.148438 -16.207031 -0.265625 -16.125 L -0.484375 -16.390625 C -0.304688 -16.535156 -0.113281 -16.675781 0.09375 -16.8125 C 0.3125 -16.957031 0.539062 -17.082031 0.78125 -17.1875 C 1.03125 -17.289062 1.296875 -17.375 1.578125 -17.4375 C 1.867188 -17.507812 2.171875 -17.546875 2.484375 -17.546875 C 2.921875 -17.546875 3.273438 -17.476562 3.546875 -17.34375 C 3.816406 -17.21875 4.019531 -17.054688 4.15625 -16.859375 C 4.289062 -16.671875 4.378906 -16.460938 4.421875 -16.234375 C 4.472656 -16.015625 4.5 -15.8125 4.5 -15.625 L 4.5 -10.59375 C 4.59375 -10.675781 4.707031 -10.78125 4.84375 -10.90625 C 4.988281 -11.03125 5.171875 -11.148438 5.390625 -11.265625 C 5.609375 -11.390625 5.867188 -11.492188 6.171875 -11.578125 C 6.472656 -11.660156 6.832031 -11.703125 7.25 -11.703125 C 7.726562 -11.703125 8.207031 -11.59375 8.6875 -11.375 C 9.175781 -11.15625 9.609375 -10.804688 9.984375 -10.328125 C 10.367188 -9.859375 10.679688 -9.25 10.921875 -8.5 C 11.160156 -7.757812 11.28125 -6.863281 11.28125 -5.8125 C 11.28125 -5 11.171875 -4.226562 10.953125 -3.5 C 10.734375 -2.769531 10.40625 -2.128906 9.96875 -1.578125 C 9.53125 -1.035156 8.984375 -0.601562 8.328125 -0.28125 C 7.679688 0.03125 6.925781 0.1875 6.0625 0.1875 C 5.113281 0.1875 4.316406 0.0351562 3.671875 -0.265625 C 3.035156 -0.578125 2.519531 -0.988281 2.125 -1.5 C 1.738281 -2.019531 1.457031 -2.617188 1.28125 -3.296875 C 1.113281 -3.984375 1.03125 -4.707031 1.03125 -5.46875 Z M 1.03125 -15.5625 "/></g></g></g><g fill="#1025a1" fill-opacity="1"><g transform="translate(103.388774, 67.218797)"><g><path d="M 4.3125 -5.171875 C 4.3125 -4.929688 4.347656 -4.671875 4.421875 -4.390625 C 4.492188 -4.109375 4.597656 -3.820312 4.734375 -3.53125 C 4.867188 -3.25 5.035156 -2.976562 5.234375 -2.71875 C 5.429688 -2.457031 5.660156 -2.222656 5.921875 -2.015625 C 6.179688 -1.816406 6.46875 -1.65625 6.78125 -1.53125 C 7.101562 -1.414062 7.453125 -1.359375 7.828125 -1.359375 C 8.085938 -1.359375 8.328125 -1.390625 8.546875 -1.453125 C 8.773438 -1.515625 8.988281 -1.597656 9.1875 -1.703125 C 9.382812 -1.804688 9.570312 -1.925781 9.75 -2.0625 C 9.9375 -2.207031 10.117188 -2.359375 10.296875 -2.515625 L 10.578125 -2.25 C 10.398438 -2.007812 10.175781 -1.75 9.90625 -1.46875 C 9.632812 -1.195312 9.304688 -0.9375 8.921875 -0.6875 C 8.546875 -0.445312 8.101562 -0.242188 7.59375 -0.078125 C 7.082031 0.078125 6.5 0.15625 5.84375 0.15625 C 5.1875 0.15625 4.546875 0.0390625 3.921875 -0.1875 C 3.304688 -0.425781 2.757812 -0.78125 2.28125 -1.25 C 1.800781 -1.726562 1.414062 -2.320312 1.125 -3.03125 C 0.832031 -3.738281 0.6875 -4.566406 0.6875 -5.515625 C 0.6875 -6.203125 0.769531 -6.828125 0.9375 -7.390625 C 1.113281 -7.960938 1.347656 -8.476562 1.640625 -8.9375 C 1.941406 -9.394531 2.289062 -9.796875 2.6875 -10.140625 C 3.082031 -10.492188 3.5 -10.785156 3.9375 -11.015625 C 4.375 -11.242188 4.816406 -11.414062 5.265625 -11.53125 C 5.722656 -11.644531 6.160156 -11.703125 6.578125 -11.703125 C 7.140625 -11.703125 7.625 -11.640625 8.03125 -11.515625 C 8.445312 -11.398438 8.789062 -11.238281 9.0625 -11.03125 C 9.34375 -10.832031 9.550781 -10.597656 9.6875 -10.328125 C 9.820312 -10.066406 9.890625 -9.789062 9.890625 -9.5 C 9.890625 -9.144531 9.785156 -8.828125 9.578125 -8.546875 C 9.378906 -8.265625 9.109375 -8.015625 8.765625 -7.796875 Z M 6.578125 -7.46875 C 6.679688 -7.53125 6.765625 -7.585938 6.828125 -7.640625 C 6.890625 -7.691406 6.9375 -7.757812 6.96875 -7.84375 C 7.007812 -7.925781 7.039062 -8.023438 7.0625 -8.140625 C 7.082031 -8.253906 7.09375 -8.394531 7.09375 -8.5625 C 7.09375 -8.757812 7.070312 -8.972656 7.03125 -9.203125 C 6.988281 -9.429688 6.914062 -9.644531 6.8125 -9.84375 C 6.71875 -10.050781 6.59375 -10.21875 6.4375 -10.34375 C 6.289062 -10.476562 6.113281 -10.546875 5.90625 -10.546875 C 5.632812 -10.546875 5.398438 -10.460938 5.203125 -10.296875 C 5.015625 -10.140625 4.859375 -9.929688 4.734375 -9.671875 C 4.617188 -9.421875 4.523438 -9.132812 4.453125 -8.8125 C 4.378906 -8.488281 4.320312 -8.160156 4.28125 -7.828125 C 4.25 -7.492188 4.226562 -7.175781 4.21875 -6.875 C 4.207031 -6.570312 4.203125 -6.3125 4.203125 -6.09375 Z M 6.578125 -7.46875 "/></g></g></g><g fill="#1025a1" fill-opacity="1"><g transform="translate(114.10475, 67.218797)"><g><path d="M 5 -9.328125 C 5.289062 -9.765625 5.597656 -10.160156 5.921875 -10.515625 C 6.054688 -10.660156 6.203125 -10.800781 6.359375 -10.9375 C 6.515625 -11.082031 6.675781 -11.210938 6.84375 -11.328125 C 7.019531 -11.441406 7.195312 -11.53125 7.375 -11.59375 C 7.550781 -11.664062 7.734375 -11.703125 7.921875 -11.703125 C 8.296875 -11.703125 8.59375 -11.585938 8.8125 -11.359375 C 9.03125 -11.128906 9.140625 -10.804688 9.140625 -10.390625 C 9.140625 -10.140625 9.117188 -9.894531 9.078125 -9.65625 C 9.035156 -9.414062 8.957031 -9.128906 8.84375 -8.796875 L 8.53125 -8.796875 C 8.476562 -9.023438 8.367188 -9.21875 8.203125 -9.375 C 8.046875 -9.53125 7.804688 -9.609375 7.484375 -9.609375 C 7.253906 -9.609375 7.023438 -9.5625 6.796875 -9.46875 C 6.578125 -9.382812 6.359375 -9.28125 6.140625 -9.15625 C 5.921875 -9.03125 5.71875 -8.890625 5.53125 -8.734375 C 5.34375 -8.585938 5.164062 -8.445312 5 -8.3125 L 5 -1 C 5 -0.894531 4.984375 -0.773438 4.953125 -0.640625 C 4.929688 -0.503906 4.859375 -0.375 4.734375 -0.25 C 4.617188 -0.132812 4.445312 -0.0351562 4.21875 0.046875 C 3.988281 0.140625 3.675781 0.1875 3.28125 0.1875 C 2.882812 0.1875 2.570312 0.140625 2.34375 0.046875 C 2.113281 -0.046875 1.9375 -0.15625 1.8125 -0.28125 C 1.695312 -0.414062 1.625 -0.550781 1.59375 -0.6875 C 1.5625 -0.820312 1.546875 -0.929688 1.546875 -1.015625 L 1.546875 -9.71875 C 1.546875 -9.9375 1.492188 -10.125 1.390625 -10.28125 C 1.285156 -10.445312 1.113281 -10.53125 0.875 -10.53125 C 0.75 -10.53125 0.640625 -10.503906 0.546875 -10.453125 C 0.460938 -10.410156 0.367188 -10.347656 0.265625 -10.265625 L 0.015625 -10.546875 C 0.191406 -10.691406 0.382812 -10.832031 0.59375 -10.96875 C 0.8125 -11.113281 1.046875 -11.238281 1.296875 -11.34375 C 1.546875 -11.445312 1.8125 -11.53125 2.09375 -11.59375 C 2.382812 -11.664062 2.6875 -11.703125 3 -11.703125 C 3.320312 -11.703125 3.597656 -11.660156 3.828125 -11.578125 C 4.054688 -11.492188 4.242188 -11.378906 4.390625 -11.234375 C 4.535156 -11.097656 4.648438 -10.941406 4.734375 -10.765625 C 4.816406 -10.597656 4.878906 -10.425781 4.921875 -10.25 C 4.960938 -10.070312 4.984375 -9.898438 4.984375 -9.734375 C 4.992188 -9.578125 5 -9.441406 5 -9.328125 Z M 5 -9.328125 "/></g></g></g><g fill="#1025a1" fill-opacity="1"><g transform="translate(123.298005, 67.218797)"><g><path d="M 5.03125 -10.796875 C 4.851562 -10.796875 4.6875 -10.773438 4.53125 -10.734375 C 4.382812 -10.691406 4.25 -10.617188 4.125 -10.515625 C 4.007812 -10.410156 3.914062 -10.28125 3.84375 -10.125 C 3.78125 -9.976562 3.75 -9.796875 3.75 -9.578125 C 3.75 -9.285156 3.851562 -8.992188 4.0625 -8.703125 C 4.28125 -8.421875 4.546875 -8.125 4.859375 -7.8125 C 5.179688 -7.5 5.53125 -7.175781 5.90625 -6.84375 C 6.28125 -6.507812 6.625 -6.15625 6.9375 -5.78125 C 7.257812 -5.40625 7.523438 -5.003906 7.734375 -4.578125 C 7.953125 -4.160156 8.0625 -3.710938 8.0625 -3.234375 C 8.0625 -2.691406 7.96875 -2.207031 7.78125 -1.78125 C 7.601562 -1.363281 7.34375 -1.007812 7 -0.71875 C 6.65625 -0.425781 6.238281 -0.203125 5.75 -0.046875 C 5.269531 0.109375 4.734375 0.1875 4.140625 0.1875 C 3.617188 0.1875 3.144531 0.113281 2.71875 -0.03125 C 2.300781 -0.1875 1.925781 -0.367188 1.59375 -0.578125 C 1.269531 -0.796875 0.992188 -1.023438 0.765625 -1.265625 C 0.535156 -1.503906 0.351562 -1.722656 0.21875 -1.921875 L 0.625 -2.203125 C 0.71875 -2.085938 0.835938 -1.960938 0.984375 -1.828125 C 1.140625 -1.703125 1.304688 -1.582031 1.484375 -1.46875 C 1.671875 -1.351562 1.867188 -1.257812 2.078125 -1.1875 C 2.296875 -1.113281 2.515625 -1.078125 2.734375 -1.078125 C 3.273438 -1.078125 3.71875 -1.207031 4.0625 -1.46875 C 4.40625 -1.726562 4.578125 -2.113281 4.578125 -2.625 C 4.578125 -2.914062 4.484375 -3.210938 4.296875 -3.515625 C 4.109375 -3.816406 3.867188 -4.128906 3.578125 -4.453125 C 3.296875 -4.773438 2.988281 -5.109375 2.65625 -5.453125 C 2.332031 -5.796875 2.023438 -6.148438 1.734375 -6.515625 C 1.453125 -6.890625 1.21875 -7.269531 1.03125 -7.65625 C 0.84375 -8.050781 0.75 -8.460938 0.75 -8.890625 C 0.75 -9.359375 0.84375 -9.769531 1.03125 -10.125 C 1.21875 -10.476562 1.472656 -10.769531 1.796875 -11 C 2.117188 -11.238281 2.484375 -11.414062 2.890625 -11.53125 C 3.296875 -11.644531 3.71875 -11.703125 4.15625 -11.703125 C 4.664062 -11.703125 5.125 -11.65625 5.53125 -11.5625 C 5.945312 -11.476562 6.300781 -11.34375 6.59375 -11.15625 C 6.894531 -10.96875 7.125 -10.734375 7.28125 -10.453125 C 7.445312 -10.179688 7.53125 -9.863281 7.53125 -9.5 C 7.53125 -9.207031 7.4375 -8.957031 7.25 -8.75 C 7.0625 -8.539062 6.800781 -8.4375 6.46875 -8.4375 C 6.132812 -8.4375 5.882812 -8.503906 5.71875 -8.640625 C 5.550781 -8.785156 5.46875 -8.976562 5.46875 -9.21875 C 5.46875 -9.375 5.503906 -9.492188 5.578125 -9.578125 C 5.660156 -9.671875 5.75 -9.742188 5.84375 -9.796875 C 5.945312 -9.859375 6.035156 -9.910156 6.109375 -9.953125 C 6.191406 -9.992188 6.234375 -10.046875 6.234375 -10.109375 C 6.234375 -10.328125 6.117188 -10.492188 5.890625 -10.609375 C 5.671875 -10.734375 5.382812 -10.796875 5.03125 -10.796875 Z M 5.03125 -10.796875 "/></g></g></g><g fill="#1025a1" fill-opacity="1"><g transform="translate(132.073923, 67.218797)"><g><path d="M 4.3125 -5.171875 C 4.3125 -4.929688 4.347656 -4.671875 4.421875 -4.390625 C 4.492188 -4.109375 4.597656 -3.820312 4.734375 -3.53125 C 4.867188 -3.25 5.035156 -2.976562 5.234375 -2.71875 C 5.429688 -2.457031 5.660156 -2.222656 5.921875 -2.015625 C 6.179688 -1.816406 6.46875 -1.65625 6.78125 -1.53125 C 7.101562 -1.414062 7.453125 -1.359375 7.828125 -1.359375 C 8.085938 -1.359375 8.328125 -1.390625 8.546875 -1.453125 C 8.773438 -1.515625 8.988281 -1.597656 9.1875 -1.703125 C 9.382812 -1.804688 9.570312 -1.925781 9.75 -2.0625 C 9.9375 -2.207031 10.117188 -2.359375 10.296875 -2.515625 L 10.578125 -2.25 C 10.398438 -2.007812 10.175781 -1.75 9.90625 -1.46875 C 9.632812 -1.195312 9.304688 -0.9375 8.921875 -0.6875 C 8.546875 -0.445312 8.101562 -0.242188 7.59375 -0.078125 C 7.082031 0.078125 6.5 0.15625 5.84375 0.15625 C 5.1875 0.15625 4.546875 0.0390625 3.921875 -0.1875 C 3.304688 -0.425781 2.757812 -0.78125 2.28125 -1.25 C 1.800781 -1.726562 1.414062 -2.320312 1.125 -3.03125 C 0.832031 -3.738281 0.6875 -4.566406 0.6875 -5.515625 C 0.6875 -6.203125 0.769531 -6.828125 0.9375 -7.390625 C 1.113281 -7.960938 1.347656 -8.476562 1.640625 -8.9375 C 1.941406 -9.394531 2.289062 -9.796875 2.6875 -10.140625 C 3.082031 -10.492188 3.5 -10.785156 3.9375 -11.015625 C 4.375 -11.242188 4.816406 -11.414062 5.265625 -11.53125 C 5.722656 -11.644531 6.160156 -11.703125 6.578125 -11.703125 C 7.140625 -11.703125 7.625 -11.640625 8.03125 -11.515625 C 8.445312 -11.398438 8.789062 -11.238281 9.0625 -11.03125 C 9.34375 -10.832031 9.550781 -10.597656 9.6875 -10.328125 C 9.820312 -10.066406 9.890625 -9.789062 9.890625 -9.5 C 9.890625 -9.144531 9.785156 -8.828125 9.578125 -8.546875 C 9.378906 -8.265625 9.109375 -8.015625 8.765625 -7.796875 Z M 6.578125 -7.46875 C 6.679688 -7.53125 6.765625 -7.585938 6.828125 -7.640625 C 6.890625 -7.691406 6.9375 -7.757812 6.96875 -7.84375 C 7.007812 -7.925781 7.039062 -8.023438 7.0625 -8.140625 C 7.082031 -8.253906 7.09375 -8.394531 7.09375 -8.5625 C 7.09375 -8.757812 7.070312 -8.972656 7.03125 -9.203125 C 6.988281 -9.429688 6.914062 -9.644531 6.8125 -9.84375 C 6.71875 -10.050781 6.59375 -10.21875 6.4375 -10.34375 C 6.289062 -10.476562 6.113281 -10.546875 5.90625 -10.546875 C 5.632812 -10.546875 5.398438 -10.460938 5.203125 -10.296875 C 5.015625 -10.140625 4.859375 -9.929688 4.734375 -9.671875 C 4.617188 -9.421875 4.523438 -9.132812 4.453125 -8.8125 C 4.378906 -8.488281 4.320312 -8.160156 4.28125 -7.828125 C 4.25 -7.492188 4.226562 -7.175781 4.21875 -6.875 C 4.207031 -6.570312 4.203125 -6.3125 4.203125 -6.09375 Z M 4.34375 -13.15625 L 7.40625 -16.125 C 7.53125 -16.238281 7.664062 -16.332031 7.8125 -16.40625 C 7.957031 -16.476562 8.101562 -16.515625 8.25 -16.515625 C 8.382812 -16.515625 8.507812 -16.476562 8.625 -16.40625 C 8.75 -16.34375 8.851562 -16.257812 8.9375 -16.15625 C 9.03125 -16.050781 9.101562 -15.929688 9.15625 -15.796875 C 9.207031 -15.671875 9.234375 -15.539062 9.234375 -15.40625 C 9.234375 -15.207031 9.164062 -15.035156 9.03125 -14.890625 C 8.90625 -14.742188 8.75 -14.628906 8.5625 -14.546875 L 4.5625 -12.84375 Z M 4.34375 -13.15625 "/></g></g></g><g fill="#1025a1" fill-opacity="1"><g transform="translate(142.789899, 67.218797)"><g><path d="M 8.5625 -7.796875 C 8.332031 -7.796875 8.140625 -7.832031 7.984375 -7.90625 C 7.828125 -7.976562 7.695312 -8.070312 7.59375 -8.1875 C 7.5 -8.3125 7.425781 -8.445312 7.375 -8.59375 C 7.332031 -8.738281 7.3125 -8.894531 7.3125 -9.0625 C 7.3125 -9.257812 7.320312 -9.453125 7.34375 -9.640625 C 7.375 -9.828125 7.378906 -9.992188 7.359375 -10.140625 C 7.347656 -10.296875 7.289062 -10.414062 7.1875 -10.5 C 7.09375 -10.59375 6.921875 -10.640625 6.671875 -10.640625 C 6.410156 -10.640625 6.132812 -10.5625 5.84375 -10.40625 C 5.550781 -10.257812 5.28125 -10.023438 5.03125 -9.703125 C 4.789062 -9.378906 4.59375 -8.960938 4.4375 -8.453125 C 4.28125 -7.953125 4.203125 -7.34375 4.203125 -6.625 C 4.203125 -5.84375 4.273438 -5.125 4.421875 -4.46875 C 4.566406 -3.820312 4.785156 -3.269531 5.078125 -2.8125 C 5.378906 -2.351562 5.742188 -1.992188 6.171875 -1.734375 C 6.609375 -1.484375 7.125 -1.359375 7.71875 -1.359375 C 7.976562 -1.359375 8.222656 -1.390625 8.453125 -1.453125 C 8.691406 -1.515625 8.914062 -1.597656 9.125 -1.703125 C 9.34375 -1.804688 9.546875 -1.925781 9.734375 -2.0625 C 9.929688 -2.207031 10.117188 -2.359375 10.296875 -2.515625 L 10.578125 -2.25 C 10.398438 -2.007812 10.175781 -1.75 9.90625 -1.46875 C 9.632812 -1.195312 9.304688 -0.9375 8.921875 -0.6875 C 8.546875 -0.445312 8.101562 -0.242188 7.59375 -0.078125 C 7.082031 0.078125 6.5 0.15625 5.84375 0.15625 C 5.1875 0.15625 4.546875 0.03125 3.921875 -0.21875 C 3.304688 -0.46875 2.757812 -0.832031 2.28125 -1.3125 C 1.800781 -1.800781 1.414062 -2.390625 1.125 -3.078125 C 0.832031 -3.765625 0.6875 -4.546875 0.6875 -5.421875 C 0.6875 -6.109375 0.769531 -6.738281 0.9375 -7.3125 C 1.113281 -7.882812 1.347656 -8.40625 1.640625 -8.875 C 1.941406 -9.34375 2.289062 -9.753906 2.6875 -10.109375 C 3.082031 -10.460938 3.5 -10.753906 3.9375 -10.984375 C 4.375 -11.222656 4.816406 -11.398438 5.265625 -11.515625 C 5.722656 -11.640625 6.160156 -11.703125 6.578125 -11.703125 C 7.140625 -11.703125 7.625 -11.640625 8.03125 -11.515625 C 8.445312 -11.390625 8.789062 -11.21875 9.0625 -11 C 9.34375 -10.789062 9.550781 -10.546875 9.6875 -10.265625 C 9.820312 -9.992188 9.890625 -9.710938 9.890625 -9.421875 C 9.890625 -9.203125 9.859375 -8.992188 9.796875 -8.796875 C 9.742188 -8.597656 9.660156 -8.425781 9.546875 -8.28125 C 9.441406 -8.132812 9.304688 -8.015625 9.140625 -7.921875 C 8.972656 -7.835938 8.78125 -7.796875 8.5625 -7.796875 Z M 8.5625 -7.796875 "/></g></g></g><g fill="#1025a1" fill-opacity="1"><g transform="translate(153.505874, 67.218797)"><g><path d="M 11.265625 -1.96875 C 11.265625 -1.894531 11.265625 -1.816406 11.265625 -1.734375 C 11.273438 -1.660156 11.296875 -1.585938 11.328125 -1.515625 C 11.359375 -1.441406 11.40625 -1.382812 11.46875 -1.34375 C 11.53125 -1.300781 11.617188 -1.28125 11.734375 -1.28125 C 11.867188 -1.28125 11.992188 -1.328125 12.109375 -1.421875 C 12.222656 -1.523438 12.328125 -1.628906 12.421875 -1.734375 L 12.703125 -1.5 C 12.585938 -1.34375 12.441406 -1.164062 12.265625 -0.96875 C 12.097656 -0.78125 11.894531 -0.597656 11.65625 -0.421875 C 11.414062 -0.253906 11.140625 -0.113281 10.828125 0 C 10.523438 0.125 10.175781 0.1875 9.78125 0.1875 C 9.457031 0.1875 9.171875 0.140625 8.921875 0.046875 C 8.679688 -0.0351562 8.472656 -0.148438 8.296875 -0.296875 C 8.128906 -0.441406 8.003906 -0.613281 7.921875 -0.8125 C 7.835938 -1.007812 7.796875 -1.222656 7.796875 -1.453125 L 7.796875 -1.96875 C 7.421875 -1.5625 7.03125 -1.203125 6.625 -0.890625 C 6.4375 -0.753906 6.238281 -0.617188 6.03125 -0.484375 C 5.832031 -0.359375 5.625 -0.242188 5.40625 -0.140625 C 5.1875 -0.046875 4.960938 0.03125 4.734375 0.09375 C 4.503906 0.15625 4.269531 0.1875 4.03125 0.1875 C 3.582031 0.1875 3.195312 0.109375 2.875 -0.046875 C 2.5625 -0.210938 2.304688 -0.425781 2.109375 -0.6875 C 1.910156 -0.957031 1.765625 -1.257812 1.671875 -1.59375 C 1.585938 -1.925781 1.546875 -2.253906 1.546875 -2.578125 L 1.546875 -9.5625 C 1.546875 -9.625 1.539062 -9.695312 1.53125 -9.78125 C 1.519531 -9.863281 1.5 -9.9375 1.46875 -10 C 1.445312 -10.070312 1.40625 -10.128906 1.34375 -10.171875 C 1.28125 -10.222656 1.191406 -10.25 1.078125 -10.25 C 0.941406 -10.25 0.816406 -10.195312 0.703125 -10.09375 C 0.585938 -10 0.484375 -9.894531 0.390625 -9.78125 L 0.109375 -10.03125 C 0.222656 -10.1875 0.363281 -10.359375 0.53125 -10.546875 C 0.707031 -10.742188 0.914062 -10.925781 1.15625 -11.09375 C 1.394531 -11.269531 1.671875 -11.414062 1.984375 -11.53125 C 2.296875 -11.644531 2.640625 -11.703125 3.015625 -11.703125 C 3.347656 -11.703125 3.640625 -11.660156 3.890625 -11.578125 C 4.140625 -11.492188 4.347656 -11.375 4.515625 -11.21875 C 4.679688 -11.070312 4.800781 -10.898438 4.875 -10.703125 C 4.957031 -10.503906 5 -10.289062 5 -10.0625 L 5 -2.53125 C 5 -2.425781 5.015625 -2.316406 5.046875 -2.203125 C 5.085938 -2.097656 5.140625 -2 5.203125 -1.90625 C 5.265625 -1.820312 5.34375 -1.75 5.4375 -1.6875 C 5.539062 -1.632812 5.660156 -1.609375 5.796875 -1.609375 C 6.015625 -1.609375 6.234375 -1.664062 6.453125 -1.78125 C 6.671875 -1.894531 6.867188 -2.023438 7.046875 -2.171875 C 7.222656 -2.328125 7.378906 -2.476562 7.515625 -2.625 C 7.648438 -2.78125 7.742188 -2.898438 7.796875 -2.984375 L 7.796875 -9.5625 C 7.796875 -9.625 7.789062 -9.695312 7.78125 -9.78125 C 7.78125 -9.863281 7.765625 -9.9375 7.734375 -10 C 7.703125 -10.070312 7.65625 -10.128906 7.59375 -10.171875 C 7.539062 -10.222656 7.457031 -10.25 7.34375 -10.25 C 7.207031 -10.25 7.078125 -10.195312 6.953125 -10.09375 C 6.835938 -10 6.738281 -9.894531 6.65625 -9.78125 L 6.375 -10.03125 C 6.488281 -10.1875 6.628906 -10.359375 6.796875 -10.546875 C 6.960938 -10.742188 7.164062 -10.925781 7.40625 -11.09375 C 7.644531 -11.269531 7.921875 -11.414062 8.234375 -11.53125 C 8.546875 -11.644531 8.894531 -11.703125 9.28125 -11.703125 C 9.613281 -11.703125 9.898438 -11.660156 10.140625 -11.578125 C 10.390625 -11.492188 10.597656 -11.375 10.765625 -11.21875 C 10.929688 -11.070312 11.054688 -10.898438 11.140625 -10.703125 C 11.222656 -10.503906 11.265625 -10.289062 11.265625 -10.0625 Z M 11.265625 -1.96875 "/></g></g></g><g fill="#1025a1" fill-opacity="1"><g transform="translate(166.353663, 67.218797)"><g><path d="M 5 -9.328125 C 5.289062 -9.765625 5.597656 -10.160156 5.921875 -10.515625 C 6.054688 -10.660156 6.203125 -10.800781 6.359375 -10.9375 C 6.515625 -11.082031 6.675781 -11.210938 6.84375 -11.328125 C 7.019531 -11.441406 7.195312 -11.53125 7.375 -11.59375 C 7.550781 -11.664062 7.734375 -11.703125 7.921875 -11.703125 C 8.296875 -11.703125 8.59375 -11.585938 8.8125 -11.359375 C 9.03125 -11.128906 9.140625 -10.804688 9.140625 -10.390625 C 9.140625 -10.140625 9.117188 -9.894531 9.078125 -9.65625 C 9.035156 -9.414062 8.957031 -9.128906 8.84375 -8.796875 L 8.53125 -8.796875 C 8.476562 -9.023438 8.367188 -9.21875 8.203125 -9.375 C 8.046875 -9.53125 7.804688 -9.609375 7.484375 -9.609375 C 7.253906 -9.609375 7.023438 -9.5625 6.796875 -9.46875 C 6.578125 -9.382812 6.359375 -9.28125 6.140625 -9.15625 C 5.921875 -9.03125 5.71875 -8.890625 5.53125 -8.734375 C 5.34375 -8.585938 5.164062 -8.445312 5 -8.3125 L 5 -1 C 5 -0.894531 4.984375 -0.773438 4.953125 -0.640625 C 4.929688 -0.503906 4.859375 -0.375 4.734375 -0.25 C 4.617188 -0.132812 4.445312 -0.0351562 4.21875 0.046875 C 3.988281 0.140625 3.675781 0.1875 3.28125 0.1875 C 2.882812 0.1875 2.570312 0.140625 2.34375 0.046875 C 2.113281 -0.046875 1.9375 -0.15625 1.8125 -0.28125 C 1.695312 -0.414062 1.625 -0.550781 1.59375 -0.6875 C 1.5625 -0.820312 1.546875 -0.929688 1.546875 -1.015625 L 1.546875 -9.71875 C 1.546875 -9.9375 1.492188 -10.125 1.390625 -10.28125 C 1.285156 -10.445312 1.113281 -10.53125 0.875 -10.53125 C 0.75 -10.53125 0.640625 -10.503906 0.546875 -10.453125 C 0.460938 -10.410156 0.367188 -10.347656 0.265625 -10.265625 L 0.015625 -10.546875 C 0.191406 -10.691406 0.382812 -10.832031 0.59375 -10.96875 C 0.8125 -11.113281 1.046875 -11.238281 1.296875 -11.34375 C 1.546875 -11.445312 1.8125 -11.53125 2.09375 -11.59375 C 2.382812 -11.664062 2.6875 -11.703125 3 -11.703125 C 3.320312 -11.703125 3.597656 -11.660156 3.828125 -11.578125 C 4.054688 -11.492188 4.242188 -11.378906 4.390625 -11.234375 C 4.535156 -11.097656 4.648438 -10.941406 4.734375 -10.765625 C 4.816406 -10.597656 4.878906 -10.425781 4.921875 -10.25 C 4.960938 -10.070312 4.984375 -9.898438 4.984375 -9.734375 C 4.992188 -9.578125 5 -9.441406 5 -9.328125 Z M 5 -9.328125 "/></g></g></g><g fill="#1025a1" fill-opacity="1"><g transform="translate(175.546919, 67.218797)"><g><path d="M 5 -1.015625 C 5 -0.921875 4.984375 -0.800781 4.953125 -0.65625 C 4.921875 -0.519531 4.84375 -0.390625 4.71875 -0.265625 C 4.59375 -0.140625 4.410156 -0.0351562 4.171875 0.046875 C 3.941406 0.140625 3.628906 0.1875 3.234375 0.1875 C 2.835938 0.1875 2.523438 0.140625 2.296875 0.046875 C 2.078125 -0.046875 1.910156 -0.15625 1.796875 -0.28125 C 1.679688 -0.414062 1.609375 -0.550781 1.578125 -0.6875 C 1.554688 -0.820312 1.546875 -0.929688 1.546875 -1.015625 L 1.546875 -9.71875 C 1.546875 -9.9375 1.492188 -10.125 1.390625 -10.28125 C 1.285156 -10.445312 1.113281 -10.53125 0.875 -10.53125 C 0.75 -10.53125 0.640625 -10.503906 0.546875 -10.453125 C 0.460938 -10.410156 0.367188 -10.347656 0.265625 -10.265625 L 0.015625 -10.546875 C 0.191406 -10.691406 0.382812 -10.832031 0.59375 -10.96875 C 0.8125 -11.113281 1.046875 -11.238281 1.296875 -11.34375 C 1.546875 -11.445312 1.8125 -11.53125 2.09375 -11.59375 C 2.382812 -11.664062 2.6875 -11.703125 3 -11.703125 C 3.488281 -11.703125 3.867188 -11.632812 4.140625 -11.5 C 4.410156 -11.375 4.609375 -11.210938 4.734375 -11.015625 C 4.859375 -10.828125 4.929688 -10.625 4.953125 -10.40625 C 4.984375 -10.1875 5 -9.992188 5 -9.828125 Z M 1.1875 -14.28125 C 1.1875 -14.488281 1.234375 -14.6875 1.328125 -14.875 C 1.429688 -15.070312 1.566406 -15.238281 1.734375 -15.375 C 1.898438 -15.519531 2.09375 -15.632812 2.3125 -15.71875 C 2.539062 -15.800781 2.785156 -15.84375 3.046875 -15.84375 C 3.296875 -15.84375 3.53125 -15.800781 3.75 -15.71875 C 3.976562 -15.632812 4.175781 -15.519531 4.34375 -15.375 C 4.507812 -15.238281 4.640625 -15.070312 4.734375 -14.875 C 4.828125 -14.6875 4.875 -14.488281 4.875 -14.28125 C 4.875 -14.0625 4.828125 -13.859375 4.734375 -13.671875 C 4.640625 -13.484375 4.507812 -13.316406 4.34375 -13.171875 C 4.175781 -13.035156 3.976562 -12.925781 3.75 -12.84375 C 3.53125 -12.757812 3.296875 -12.71875 3.046875 -12.71875 C 2.785156 -12.71875 2.539062 -12.757812 2.3125 -12.84375 C 2.09375 -12.925781 1.898438 -13.035156 1.734375 -13.171875 C 1.566406 -13.316406 1.429688 -13.484375 1.328125 -13.671875 C 1.234375 -13.859375 1.1875 -14.0625 1.1875 -14.28125 Z M 1.1875 -14.28125 "/></g></g></g><g fill="#1025a1" fill-opacity="1"><g transform="translate(182.010558, 67.218797)"><g><path d="M 5.0625 -10.734375 L 5.0625 -2.40625 C 5.0625 -2 5.132812 -1.71875 5.28125 -1.5625 C 5.4375 -1.414062 5.644531 -1.34375 5.90625 -1.34375 C 6.113281 -1.34375 6.296875 -1.398438 6.453125 -1.515625 C 6.609375 -1.628906 6.742188 -1.753906 6.859375 -1.890625 C 6.992188 -2.046875 7.109375 -2.234375 7.203125 -2.453125 L 7.5625 -2.296875 C 7.445312 -2.046875 7.3125 -1.78125 7.15625 -1.5 C 7 -1.21875 6.789062 -0.953125 6.53125 -0.703125 C 6.28125 -0.460938 5.960938 -0.257812 5.578125 -0.09375 C 5.191406 0.0703125 4.703125 0.15625 4.109375 0.15625 C 3.785156 0.15625 3.46875 0.101562 3.15625 0 C 2.851562 -0.09375 2.582031 -0.242188 2.34375 -0.453125 C 2.113281 -0.660156 1.925781 -0.921875 1.78125 -1.234375 C 1.632812 -1.554688 1.5625 -1.9375 1.5625 -2.375 L 1.5625 -10.734375 L 0.296875 -10.734375 L 0.296875 -11.546875 C 0.515625 -11.546875 0.8125 -11.597656 1.1875 -11.703125 C 1.5625 -11.816406 1.945312 -12 2.34375 -12.25 C 2.738281 -12.507812 3.101562 -12.851562 3.4375 -13.28125 C 3.78125 -13.707031 4.019531 -14.238281 4.15625 -14.875 L 5.0625 -14.875 L 5.0625 -11.546875 L 6.90625 -11.546875 C 7.5 -11.546875 7.796875 -11.644531 7.796875 -11.84375 C 7.796875 -11.925781 7.757812 -11.976562 7.6875 -12 C 7.613281 -12.03125 7.53125 -12.066406 7.4375 -12.109375 C 7.34375 -12.148438 7.253906 -12.207031 7.171875 -12.28125 C 7.097656 -12.351562 7.0625 -12.476562 7.0625 -12.65625 C 7.0625 -12.863281 7.128906 -13.023438 7.265625 -13.140625 C 7.398438 -13.265625 7.570312 -13.328125 7.78125 -13.328125 C 7.914062 -13.328125 8.03125 -13.296875 8.125 -13.234375 C 8.226562 -13.179688 8.3125 -13.109375 8.375 -13.015625 C 8.445312 -12.921875 8.5 -12.8125 8.53125 -12.6875 C 8.570312 -12.570312 8.59375 -12.457031 8.59375 -12.34375 C 8.59375 -11.851562 8.453125 -11.460938 8.171875 -11.171875 C 7.890625 -10.878906 7.4375 -10.734375 6.8125 -10.734375 Z M 5.0625 -10.734375 "/></g></g></g><g fill="#1025a1" fill-opacity="1"><g transform="translate(189.816447, 67.218797)"><g><path d="M 4.3125 -5.171875 C 4.3125 -4.929688 4.347656 -4.671875 4.421875 -4.390625 C 4.492188 -4.109375 4.597656 -3.820312 4.734375 -3.53125 C 4.867188 -3.25 5.035156 -2.976562 5.234375 -2.71875 C 5.429688 -2.457031 5.660156 -2.222656 5.921875 -2.015625 C 6.179688 -1.816406 6.46875 -1.65625 6.78125 -1.53125 C 7.101562 -1.414062 7.453125 -1.359375 7.828125 -1.359375 C 8.085938 -1.359375 8.328125 -1.390625 8.546875 -1.453125 C 8.773438 -1.515625 8.988281 -1.597656 9.1875 -1.703125 C 9.382812 -1.804688 9.570312 -1.925781 9.75 -2.0625 C 9.9375 -2.207031 10.117188 -2.359375 10.296875 -2.515625 L 10.578125 -2.25 C 10.398438 -2.007812 10.175781 -1.75 9.90625 -1.46875 C 9.632812 -1.195312 9.304688 -0.9375 8.921875 -0.6875 C 8.546875 -0.445312 8.101562 -0.242188 7.59375 -0.078125 C 7.082031 0.078125 6.5 0.15625 5.84375 0.15625 C 5.1875 0.15625 4.546875 0.0390625 3.921875 -0.1875 C 3.304688 -0.425781 2.757812 -0.78125 2.28125 -1.25 C 1.800781 -1.726562 1.414062 -2.320312 1.125 -3.03125 C 0.832031 -3.738281 0.6875 -4.566406 0.6875 -5.515625 C 0.6875 -6.203125 0.769531 -6.828125 0.9375 -7.390625 C 1.113281 -7.960938 1.347656 -8.476562 1.640625 -8.9375 C 1.941406 -9.394531 2.289062 -9.796875 2.6875 -10.140625 C 3.082031 -10.492188 3.5 -10.785156 3.9375 -11.015625 C 4.375 -11.242188 4.816406 -11.414062 5.265625 -11.53125 C 5.722656 -11.644531 6.160156 -11.703125 6.578125 -11.703125 C 7.140625 -11.703125 7.625 -11.640625 8.03125 -11.515625 C 8.445312 -11.398438 8.789062 -11.238281 9.0625 -11.03125 C 9.34375 -10.832031 9.550781 -10.597656 9.6875 -10.328125 C 9.820312 -10.066406 9.890625 -9.789062 9.890625 -9.5 C 9.890625 -9.144531 9.785156 -8.828125 9.578125 -8.546875 C 9.378906 -8.265625 9.109375 -8.015625 8.765625 -7.796875 Z M 6.578125 -7.46875 C 6.679688 -7.53125 6.765625 -7.585938 6.828125 -7.640625 C 6.890625 -7.691406 6.9375 -7.757812 6.96875 -7.84375 C 7.007812 -7.925781 7.039062 -8.023438 7.0625 -8.140625 C 7.082031 -8.253906 7.09375 -8.394531 7.09375 -8.5625 C 7.09375 -8.757812 7.070312 -8.972656 7.03125 -9.203125 C 6.988281 -9.429688 6.914062 -9.644531 6.8125 -9.84375 C 6.71875 -10.050781 6.59375 -10.21875 6.4375 -10.34375 C 6.289062 -10.476562 6.113281 -10.546875 5.90625 -10.546875 C 5.632812 -10.546875 5.398438 -10.460938 5.203125 -10.296875 C 5.015625 -10.140625 4.859375 -9.929688 4.734375 -9.671875 C 4.617188 -9.421875 4.523438 -9.132812 4.453125 -8.8125 C 4.378906 -8.488281 4.320312 -8.160156 4.28125 -7.828125 C 4.25 -7.492188 4.226562 -7.175781 4.21875 -6.875 C 4.207031 -6.570312 4.203125 -6.3125 4.203125 -6.09375 Z M 4.34375 -13.15625 L 7.40625 -16.125 C 7.53125 -16.238281 7.664062 -16.332031 7.8125 -16.40625 C 7.957031 -16.476562 8.101562 -16.515625 8.25 -16.515625 C 8.382812 -16.515625 8.507812 -16.476562 8.625 -16.40625 C 8.75 -16.34375 8.851562 -16.257812 8.9375 -16.15625 C 9.03125 -16.050781 9.101562 -15.929688 9.15625 -15.796875 C 9.207031 -15.671875 9.234375 -15.539062 9.234375 -15.40625 C 9.234375 -15.207031 9.164062 -15.035156 9.03125 -14.890625 C 8.90625 -14.742188 8.75 -14.628906 8.5625 -14.546875 L 4.5625 -12.84375 Z M 4.34375 -13.15625 "/></g></g></g></svg>